{"glyphs":{"0":{"ha":880,"x_min":55,"x_max":825,"o":"m 440 -20 q 230 44 317 -20 q 99 216 143 108 q 55 457 55 325 q 101 703 55 593 q 234 878 147 814 q 439 942 321 942 q 656 876 569 942 q 784 701 743 810 q 825 460 825 591 q 781 218 825 327 q 649 44 736 109 q 440 -20 562 -20 m 440 92 q 582 140 522 92 q 673 271 642 187 q 705 460 705 355 q 675 649 705 565 q 584 782 644 732 q 439 831 524 831 q 300 783 360 831 q 208 650 241 735 q 175 458 175 566 q 207 270 175 353 q 299 139 239 186 q 440 92 359 92 z "},"1":{"ha":448,"x_min":24,"x_max":322,"o":"m 201 808 l 24 736 l 24 844 l 220 923 l 322 923 l 322 0 l 201 0 l 201 808 z "},"2":{"ha":743,"x_min":50,"x_max":693,"o":"m 372 365 q 476 466 438 425 q 537 550 515 507 q 559 641 559 593 q 534 735 559 693 q 467 800 510 777 q 373 823 425 823 q 276 799 321 823 q 204 725 231 774 q 178 602 178 675 l 58 602 q 95 768 58 692 q 203 889 132 844 q 370 935 273 935 q 531 896 460 935 q 640 790 601 857 q 679 641 679 724 q 656 528 679 581 q 594 429 633 475 q 494 330 554 382 l 229 94 l 288 104 l 693 104 l 693 0 l 50 0 l 50 73 l 372 365 z "},"3":{"ha":738,"x_min":45,"x_max":701,"o":"m 372 -20 q 214 13 288 -20 q 93 116 140 45 q 45 296 45 187 l 164 296 q 197 177 165 223 q 276 111 229 131 q 374 91 323 91 q 476 118 429 91 q 552 191 524 144 q 580 294 580 237 q 552 394 580 350 q 472 462 524 437 q 351 487 420 487 l 255 487 l 255 549 l 471 819 l 473 823 l 91 823 l 91 922 l 619 922 l 619 857 l 395 585 l 387 574 q 617 495 534 566 q 701 292 701 425 q 658 134 701 205 q 540 22 615 63 q 372 -20 465 -20 z "},"4":{"ha":804,"x_min":9,"x_max":780,"o":"m 500 212 l 16 212 l 9 298 l 490 927 l 621 927 l 621 312 l 780 312 l 780 212 l 621 212 l 621 0 l 500 0 l 500 212 m 500 311 l 500 772 l 141 310 l 500 311 z "},"5":{"ha":787,"x_min":70,"x_max":729,"o":"m 401 -20 q 254 8 324 -20 q 133 101 183 37 q 70 266 82 165 l 188 266 q 234 165 199 204 q 313 109 269 126 q 401 91 357 91 q 506 118 458 91 q 582 192 554 145 q 609 297 609 239 q 580 399 609 356 q 497 465 551 442 q 370 488 443 488 l 184 488 l 128 533 l 180 923 l 666 923 l 666 823 l 282 823 l 250 576 l 399 576 q 574 542 500 576 q 689 445 649 508 q 729 296 729 381 q 688 139 729 212 q 571 23 646 66 q 401 -20 496 -20 z "},"6":{"ha":755,"x_min":60,"x_max":707,"o":"m 383 -18 q 217 22 290 -18 q 101 133 143 63 q 60 289 60 203 q 72 376 60 334 q 110 464 84 417 q 182 585 135 511 l 399 922 l 538 922 l 295 553 q 412 588 351 588 q 558 549 490 588 q 666 441 626 509 q 707 289 707 372 q 665 133 707 203 q 550 22 623 63 q 383 -18 476 -18 m 384 92 q 484 118 439 92 q 554 188 528 143 q 579 288 579 232 q 554 388 579 342 q 484 459 528 433 q 384 485 439 485 q 278 454 323 485 q 210 377 233 423 q 186 288 186 332 q 212 188 186 232 q 283 118 238 143 q 384 92 328 92 z "},"7":{"ha":700,"x_min":40,"x_max":662,"o":"m 519 823 l 40 823 l 40 922 l 662 922 l 662 857 l 246 0 l 118 0 l 519 823 z "},"8":{"ha":763,"x_min":50,"x_max":713,"o":"m 382 -20 q 209 17 285 -20 q 92 117 134 53 q 50 260 50 181 q 75 373 50 321 q 142 459 100 424 q 235 509 184 494 q 167 550 197 522 q 119 618 136 579 q 102 701 102 658 q 139 827 102 772 q 240 912 176 882 q 382 942 304 942 q 524 912 460 942 q 624 829 587 883 q 661 703 661 774 q 643 620 661 660 q 594 550 625 579 q 527 509 564 520 q 622 460 579 495 q 688 374 664 425 q 713 260 713 322 q 671 117 713 181 q 553 17 629 53 q 382 -20 478 -20 m 381 553 q 464 573 427 553 q 522 625 501 592 q 543 698 543 659 q 522 770 543 737 q 464 823 500 804 q 382 843 427 843 q 299 823 336 843 q 240 770 261 804 q 218 698 218 737 q 239 625 218 659 q 297 573 260 592 q 381 553 334 553 m 381 81 q 489 105 439 81 q 567 171 538 129 q 595 264 595 213 q 567 361 595 317 q 489 429 538 404 q 381 454 439 454 q 274 429 323 454 q 196 361 224 404 q 167 264 167 317 q 196 171 167 213 q 274 105 224 129 q 381 81 323 81 z "},"9":{"ha":755,"x_min":48,"x_max":695,"o":"m 372 941 q 538 900 465 941 q 653 789 612 859 q 695 633 695 719 q 683 547 695 588 q 645 458 671 505 q 572 338 620 412 l 355 0 l 217 0 l 460 370 q 342 334 404 334 q 197 374 264 334 q 89 481 129 413 q 48 633 48 550 q 90 789 48 719 q 205 900 132 859 q 372 941 279 941 m 371 830 q 271 805 316 830 q 201 735 227 779 q 176 635 176 690 q 201 535 176 580 q 271 464 227 490 q 371 437 316 437 q 477 468 432 437 q 545 545 522 499 q 568 635 568 591 q 543 735 568 690 q 472 805 517 779 q 371 830 427 830 z "}," ":{"ha":343,"x_min":0,"x_max":0,"o":""},"A":{"ha":913,"x_min":9,"x_max":905,"o":"m 777 0 l 690 209 l 224 209 l 136 0 l 9 0 l 399 922 l 515 922 l 905 0 l 777 0 m 267 311 l 647 311 l 461 753 l 458 769 l 456 769 l 452 753 l 267 311 z "},"B":{"ha":890,"x_min":125,"x_max":836,"o":"m 519 922 q 655 892 595 922 q 749 806 715 861 q 783 680 783 751 q 767 600 783 638 q 723 532 751 561 q 661 488 695 503 q 749 440 709 473 q 813 360 789 406 q 836 260 836 313 q 798 121 836 180 q 695 31 759 62 q 558 0 631 0 l 125 0 l 125 922 l 519 922 m 514 522 q 588 542 555 522 q 642 596 622 562 q 661 671 661 630 q 642 745 661 711 q 588 798 622 779 q 515 818 555 818 l 247 818 l 247 522 l 514 522 m 549 106 q 632 127 594 106 q 691 186 669 149 q 713 269 713 223 q 691 349 713 313 q 632 408 669 386 q 550 429 595 429 l 247 429 l 247 106 l 549 106 z "},"C":{"ha":1023,"x_min":55,"x_max":968,"o":"m 536 -18 q 293 46 403 -18 q 119 220 182 110 q 55 462 55 330 q 119 704 55 594 q 293 879 182 814 q 536 943 403 943 q 726 905 636 943 q 881 791 817 867 q 968 609 945 716 l 846 609 q 731 775 815 718 q 532 832 648 832 q 351 785 433 832 q 222 652 269 737 q 175 462 175 568 q 222 271 175 355 q 351 140 269 187 q 532 93 433 93 q 731 150 647 93 q 845 315 814 207 l 968 315 q 881 132 945 208 q 727 19 817 57 q 536 -18 637 -18 z "},"D":{"ha":1004,"x_min":125,"x_max":949,"o":"m 463 922 q 717 865 607 922 q 888 703 827 807 q 949 462 949 598 q 888 220 949 325 q 718 58 828 115 q 465 0 608 0 l 125 0 l 125 922 l 463 922 m 462 109 q 656 152 574 109 q 783 274 739 195 q 827 459 827 353 q 783 646 827 566 q 655 771 739 727 q 459 815 572 815 l 243 815 l 243 109 l 462 109 z "},"E":{"ha":793,"x_min":125,"x_max":745,"o":"m 125 922 l 739 922 l 739 813 l 245 813 l 245 521 l 674 521 l 674 418 l 245 418 l 245 109 l 745 109 l 745 0 l 125 0 l 125 922 z "},"F":{"ha":780,"x_min":125,"x_max":739,"o":"m 125 922 l 739 922 l 739 813 l 245 813 l 245 489 l 674 489 l 674 387 l 245 387 l 245 0 l 125 0 l 125 922 z "},"G":{"ha":1065,"x_min":56,"x_max":1010,"o":"m 540 -18 q 296 46 407 -18 q 120 221 185 111 q 56 462 56 331 q 120 704 56 594 q 296 879 185 814 q 540 943 407 943 q 731 905 639 943 q 890 798 823 868 q 980 631 956 727 l 858 631 q 734 779 819 726 q 537 832 649 832 q 355 784 437 832 q 224 652 272 736 q 176 462 176 568 q 224 271 176 355 q 355 140 272 187 q 537 93 437 93 q 712 130 638 93 q 829 232 786 168 q 885 377 872 296 l 533 377 l 533 486 l 1010 486 q 955 230 1010 345 q 792 49 899 115 q 540 -18 686 -18 z "},"H":{"ha":1025,"x_min":125,"x_max":899,"o":"m 125 922 l 245 922 l 245 516 l 779 516 l 779 922 l 899 922 l 899 0 l 779 0 l 779 408 l 245 408 l 245 0 l 125 0 l 125 922 z "},"I":{"ha":371,"x_min":125,"x_max":245,"o":"m 125 922 l 245 922 l 245 0 l 125 0 l 125 922 z "},"J":{"ha":588,"x_min":25,"x_max":480,"o":"m 156 109 q 264 135 217 109 q 336 209 311 161 q 361 322 361 258 l 361 922 l 480 922 l 480 316 q 439 148 480 220 q 324 38 397 77 q 155 0 250 0 l 25 0 l 25 109 l 156 109 z "},"K":{"ha":898,"x_min":125,"x_max":883,"o":"m 496 515 l 883 0 l 739 0 l 418 427 l 245 216 l 245 0 l 125 0 l 125 922 l 245 922 l 245 376 l 690 922 l 831 922 l 496 515 z "},"L":{"ha":721,"x_min":125,"x_max":694,"o":"m 125 922 l 245 922 l 245 109 l 694 109 l 694 0 l 125 0 l 125 922 z "},"M":{"ha":1161,"x_min":125,"x_max":1036,"o":"m 125 922 l 229 922 l 580 457 l 581 457 l 930 922 l 1036 922 l 1036 0 l 916 0 l 916 728 l 597 303 l 562 303 l 245 729 l 245 0 l 125 0 l 125 922 z "},"N":{"ha":1040,"x_min":125,"x_max":915,"o":"m 795 922 l 915 922 l 915 0 l 813 0 l 245 721 l 245 0 l 125 0 l 125 922 l 227 922 l 795 199 l 795 199 l 795 922 z "},"O":{"ha":1096,"x_min":55,"x_max":1041,"o":"m 547 -18 q 300 46 414 -18 q 121 221 187 111 q 55 462 55 331 q 121 704 55 594 q 300 879 187 814 q 547 943 413 943 q 795 879 682 943 q 975 704 908 814 q 1041 462 1041 594 q 975 221 1041 331 q 795 46 908 111 q 547 -18 682 -18 m 547 93 q 735 141 650 93 q 871 274 821 190 q 921 462 921 359 q 871 650 921 565 q 735 783 821 734 q 547 832 650 832 q 360 783 446 832 q 225 650 275 734 q 175 462 175 565 q 225 274 175 359 q 360 141 275 190 q 547 93 446 93 z "},"P":{"ha":838,"x_min":125,"x_max":810,"o":"m 504 922 q 662 883 592 922 q 771 776 732 844 q 810 621 810 707 q 771 463 810 532 q 663 354 732 393 q 507 315 594 315 l 245 315 l 245 0 l 125 0 l 125 922 l 504 922 m 501 424 q 597 450 554 424 q 666 520 641 475 q 690 621 690 566 q 665 718 690 673 q 596 788 640 762 q 500 814 553 814 l 245 814 l 245 424 l 501 424 z "},"Q":{"ha":1107,"x_min":55,"x_max":1041,"o":"m 1041 462 q 988 245 1041 346 q 845 78 936 145 l 999 -132 l 888 -196 l 743 20 q 547 -18 650 -18 q 300 46 414 -18 q 121 221 187 111 q 55 462 55 331 q 121 704 55 594 q 300 879 187 814 q 547 943 413 943 q 795 879 682 943 q 975 704 908 814 q 1041 462 1041 594 m 175 462 q 225 274 175 359 q 360 141 275 190 q 547 93 446 93 q 735 141 650 93 q 871 274 821 190 q 921 462 921 359 q 871 650 921 565 q 735 783 821 734 q 547 832 650 832 q 360 783 446 832 q 225 650 275 734 q 175 462 175 565 z "},"R":{"ha":886,"x_min":125,"x_max":844,"o":"m 517 922 q 676 886 606 922 q 784 784 745 850 q 823 633 823 718 q 798 511 823 566 q 728 419 773 456 q 621 365 682 381 l 844 0 l 705 0 l 500 347 q 471 347 490 347 l 245 347 l 245 0 l 125 0 l 125 922 l 517 922 m 515 449 q 611 472 568 449 q 679 537 654 496 q 703 632 703 578 q 678 725 703 684 q 610 791 653 767 q 513 814 566 814 l 245 814 l 245 449 l 515 449 z "},"S":{"ha":825,"x_min":51,"x_max":778,"o":"m 413 -20 q 213 21 294 -20 q 91 128 131 62 q 51 267 51 194 l 171 267 q 200 176 171 218 q 284 109 229 134 q 412 83 339 83 q 594 127 531 83 q 656 255 656 170 q 594 368 656 330 q 416 423 532 406 q 248 466 321 439 q 124 546 174 492 q 75 686 75 600 q 110 817 75 759 q 219 908 144 874 q 409 943 294 943 q 590 909 515 943 q 703 817 665 876 q 741 680 741 758 l 621 680 q 596 762 621 726 q 523 817 571 798 q 408 837 475 837 q 243 794 292 837 q 195 686 195 751 q 258 579 195 616 q 453 525 322 543 q 687 442 596 502 q 778 255 778 382 q 734 107 778 170 q 608 13 690 45 q 413 -20 526 -20 z "},"T":{"ha":771,"x_min":33,"x_max":737,"o":"m 325 814 l 33 814 l 33 922 l 737 922 l 737 814 l 445 814 l 445 0 l 325 0 l 325 814 z "},"U":{"ha":979,"x_min":108,"x_max":871,"o":"m 490 -19 q 295 28 382 -19 q 158 160 208 75 q 108 357 108 245 l 108 923 l 227 923 l 227 366 q 258 228 227 290 q 349 129 290 165 q 490 92 408 92 q 629 129 570 92 q 720 227 688 165 q 751 365 751 289 l 751 923 l 871 923 l 871 357 q 823 162 871 248 q 687 29 774 77 q 490 -19 600 -19 z "},"V":{"ha":924,"x_min":14,"x_max":909,"o":"m 14 922 l 141 922 l 461 155 l 463 157 l 782 922 l 909 922 l 517 0 l 406 0 l 14 922 z "},"W":{"ha":1377,"x_min":14,"x_max":1362,"o":"m 14 922 l 141 922 l 376 214 l 389 160 l 392 160 l 403 216 l 625 922 l 751 922 l 973 216 l 985 160 l 987 160 l 1002 220 l 1236 922 l 1362 922 l 1049 0 l 931 0 l 688 756 l 445 0 l 328 0 l 14 922 z "},"X":{"ha":896,"x_min":20,"x_max":876,"o":"m 373 479 l 43 922 l 186 922 l 448 564 l 710 922 l 852 922 l 523 479 l 876 0 l 733 0 l 448 395 l 163 0 l 20 0 l 373 479 z "},"Y":{"ha":893,"x_min":14,"x_max":879,"o":"m 387 353 l 14 922 l 155 922 l 446 461 l 447 461 l 736 922 l 879 922 l 506 354 l 507 0 l 387 0 l 387 353 z "},"Z":{"ha":846,"x_min":50,"x_max":801,"o":"m 50 92 l 617 820 l 79 820 l 79 922 l 775 922 l 775 832 l 208 102 l 801 102 l 801 0 l 52 0 l 50 92 z "},"Æ":{"ha":1331,"x_min":11,"x_max":1301,"o":"m 802 109 l 1301 109 l 1301 0 l 682 0 l 682 208 l 300 208 l 156 0 l 11 0 l 650 922 l 1295 922 l 1295 813 l 802 813 l 802 521 l 1231 521 l 1231 418 l 802 418 l 802 109 m 368 310 l 682 310 l 682 772 l 669 747 l 368 310 z "},"Œ":{"ha":1343,"x_min":68,"x_max":1294,"o":"m 1294 0 l 684 0 q 561 -18 623 -18 q 314 46 427 -18 q 135 221 201 111 q 68 462 68 331 q 135 704 68 594 q 314 879 201 814 q 561 943 427 943 q 694 922 631 943 l 1288 922 l 1288 813 l 795 813 l 795 521 l 1223 521 l 1223 418 l 795 418 l 795 109 l 1294 109 l 1294 0 m 189 462 q 238 274 189 359 q 374 141 288 190 q 561 93 459 93 q 675 115 622 93 l 675 812 q 561 832 618 832 q 374 783 459 832 q 238 650 288 734 q 189 462 189 565 z "},"Ð":{"ha":1004,"x_min":35,"x_max":949,"o":"m 463 922 q 717 865 607 922 q 888 703 827 807 q 949 462 949 598 q 888 220 949 325 q 718 58 828 115 q 465 0 608 0 l 125 0 l 125 455 l 35 455 l 35 545 l 125 545 l 125 922 l 463 922 m 462 109 q 656 152 574 109 q 783 274 739 195 q 827 459 827 353 q 783 646 827 566 q 655 771 739 727 q 459 815 572 815 l 243 815 l 243 545 l 473 545 l 473 455 l 243 455 l 243 109 l 462 109 z "},"Þ":{"ha":850,"x_min":120,"x_max":796,"o":"m 240 922 l 240 758 l 490 758 q 648 719 578 758 q 757 612 718 680 q 796 457 796 543 q 757 302 796 371 q 649 196 718 234 q 492 157 580 157 l 240 157 l 240 0 l 120 0 l 120 922 l 240 922 m 487 260 q 583 286 540 260 q 651 357 627 312 q 676 457 676 402 q 651 557 676 512 q 583 629 626 603 q 486 656 539 656 l 240 656 l 240 260 l 487 260 z "},"ẞ":{"ha":892,"x_min":125,"x_max":836,"o":"m 125 680 q 159 806 125 751 q 253 892 193 861 q 389 922 313 922 l 766 922 l 766 823 l 567 496 l 613 496 q 728 458 677 492 q 807 372 779 425 q 836 260 836 320 q 798 121 836 180 q 695 31 759 62 q 558 0 631 0 l 371 0 l 371 104 l 549 104 q 629 124 591 104 q 691 183 667 145 q 714 267 714 220 q 692 351 714 313 q 629 409 669 388 q 539 431 589 431 l 454 431 l 455 513 l 646 820 l 392 820 q 319 801 353 820 q 266 747 286 781 q 245 672 245 713 l 245 0 l 125 0 l 125 680 z "},"a":{"ha":886,"x_min":54,"x_max":774,"o":"m 388 -20 q 218 29 295 -20 q 98 162 142 78 q 54 346 54 245 q 98 529 54 446 q 218 662 142 613 q 387 711 295 711 q 553 666 480 711 q 662 543 627 621 l 662 692 l 774 692 l 774 0 l 662 0 l 662 147 q 553 25 627 70 q 388 -20 480 -20 m 414 90 q 537 123 481 90 q 625 216 593 157 q 658 346 658 275 q 625 475 658 416 q 536 568 592 534 q 414 602 481 602 q 291 569 347 602 q 202 477 235 536 q 170 346 170 419 q 202 213 170 271 q 291 122 235 155 q 414 90 347 90 z "},"b":{"ha":901,"x_min":112,"x_max":831,"o":"m 492 -20 q 333 25 406 -20 q 224 147 261 70 l 224 0 l 112 0 l 112 955 l 229 955 l 229 641 l 227 546 q 289 631 250 593 q 380 689 328 668 q 490 711 432 711 q 664 662 586 711 q 787 529 742 613 q 831 346 831 446 q 787 162 831 245 q 664 29 742 78 q 492 -20 587 -20 m 471 89 q 594 121 538 89 q 683 213 650 154 q 715 346 715 271 q 683 477 715 419 q 594 569 650 536 q 471 602 538 602 q 349 568 405 602 q 260 475 293 534 q 228 346 228 416 q 261 215 228 274 q 350 122 294 156 q 471 89 406 89 z "},"c":{"ha":782,"x_min":54,"x_max":739,"o":"m 407 -20 q 228 30 309 -20 q 100 162 147 79 q 54 346 54 246 q 100 529 54 446 q 228 662 147 613 q 407 711 309 711 q 555 680 488 711 q 670 593 623 648 q 739 465 718 537 l 618 465 q 536 566 592 531 q 408 602 479 602 q 292 570 347 602 q 204 480 237 538 q 170 346 170 422 q 204 211 170 269 q 292 121 237 153 q 408 90 347 90 q 536 126 479 90 q 618 232 592 163 l 738 232 q 671 100 718 157 q 556 12 624 43 q 407 -20 488 -20 z "},"d":{"ha":885,"x_min":54,"x_max":773,"o":"m 394 -20 q 220 29 298 -20 q 98 162 142 78 q 54 346 54 245 q 98 530 54 446 q 220 663 142 614 q 395 711 298 711 q 509 688 456 711 q 600 628 562 665 q 659 546 638 590 l 656 613 l 656 955 l 773 955 l 773 0 l 661 0 l 661 147 q 600 62 639 100 q 508 2 560 24 q 394 -20 455 -20 m 413 89 q 536 123 480 89 q 625 216 592 157 q 658 346 658 275 q 625 475 658 416 q 536 568 593 534 q 413 602 480 602 q 290 569 346 602 q 202 476 234 535 q 170 346 170 418 q 201 215 170 274 q 289 123 233 157 q 413 89 345 89 z "},"e":{"ha":790,"x_min":54,"x_max":747,"o":"m 747 363 q 745 315 747 353 l 172 315 q 212 196 178 248 q 295 117 245 145 q 403 90 346 90 q 522 120 473 90 q 595 208 572 150 l 726 208 q 660 93 706 144 q 548 11 614 41 q 406 -19 482 -19 q 227 30 307 -19 q 100 162 146 79 q 54 346 54 245 q 100 530 54 446 q 227 663 146 614 q 406 711 307 711 q 581 664 503 711 q 703 536 659 616 q 747 363 747 456 m 628 418 q 593 509 625 467 q 512 576 562 551 q 404 602 461 602 q 304 580 351 602 q 223 517 257 559 q 177 418 190 476 l 628 418 z "},"f":{"ha":490,"x_min":15,"x_max":482,"o":"m 15 590 l 15 692 l 163 692 l 163 741 q 185 849 163 800 q 253 930 208 899 q 366 960 299 960 l 482 960 l 482 862 l 393 862 q 311 825 341 862 q 280 731 280 788 l 280 692 l 477 692 l 477 590 l 280 590 l 280 0 l 163 0 l 163 590 l 15 590 z "},"g":{"ha":886,"x_min":54,"x_max":774,"o":"m 415 -260 q 231 -224 304 -260 q 122 -130 158 -188 q 83 -4 87 -72 l 193 -4 q 257 -117 205 -74 q 415 -161 310 -161 q 556 -126 500 -161 q 636 -35 611 -92 q 662 90 662 21 l 662 175 q 554 55 626 98 q 393 13 483 13 q 220 59 298 13 q 98 185 142 106 q 54 359 54 264 q 98 533 54 452 q 219 663 142 614 q 390 711 296 711 q 508 688 454 711 q 602 628 562 666 q 662 543 641 590 l 662 692 l 774 692 l 774 93 q 734 -86 774 -6 q 613 -213 694 -166 q 415 -260 532 -260 m 414 116 q 536 149 480 116 q 625 237 592 182 q 658 359 658 293 q 625 479 658 424 q 537 568 593 535 q 414 602 481 602 q 291 570 347 602 q 202 483 235 538 q 170 359 170 427 q 202 235 170 291 q 291 148 235 180 q 414 116 347 116 z "},"h":{"ha":863,"x_min":112,"x_max":759,"o":"m 229 955 l 229 634 l 227 560 q 326 670 258 629 q 479 711 393 711 q 688 626 616 711 q 759 375 759 541 l 759 0 l 642 0 l 642 373 q 592 546 642 490 q 449 602 542 602 q 340 572 391 602 q 259 487 290 541 q 229 363 229 432 l 229 0 l 112 0 l 112 955 l 229 955 z "},"i":{"ha":340,"x_min":91,"x_max":250,"o":"m 170 827 q 113 848 134 827 q 91 901 91 869 q 113 954 91 932 q 170 975 134 975 q 228 954 206 975 q 250 901 250 932 q 228 848 250 869 q 170 827 206 827 m 112 692 l 229 692 l 229 0 l 112 0 l 112 692 z "},"ı":{"ha":340,"x_min":112,"x_max":229,"o":"m 112 692 l 229 692 l 229 0 l 112 0 l 112 692 z "},"j":{"ha":348,"x_min":-71,"x_max":258,"o":"m 178 827 q 121 848 142 827 q 99 901 99 869 q 121 954 99 932 q 178 975 142 975 q 236 954 214 975 q 258 901 258 932 q 236 848 258 869 q 178 827 214 827 m 1 -140 q 88 -102 57 -140 q 119 -5 119 -65 l 119 692 l 236 692 l 236 3 q 180 -175 236 -113 q 13 -237 123 -237 l -71 -237 l -71 -140 l 1 -140 z "},"ȷ":{"ha":348,"x_min":-71,"x_max":236,"o":"m 1 -140 q 88 -102 57 -140 q 119 -5 119 -65 l 119 692 l 236 692 l 236 3 q 180 -175 236 -113 q 13 -237 123 -237 l -71 -237 l -71 -140 l 1 -140 z "},"k":{"ha":715,"x_min":112,"x_max":704,"o":"m 572 0 l 358 338 l 229 195 l 229 0 l 112 0 l 112 955 l 229 955 l 229 323 l 526 692 l 669 692 l 444 414 l 704 0 l 572 0 z "},"l":{"ha":340,"x_min":112,"x_max":229,"o":"m 112 956 l 229 956 l 229 0 l 112 0 l 112 956 z "},"m":{"ha":1323,"x_min":112,"x_max":1219,"o":"m 957 711 q 1153 626 1086 711 q 1219 375 1219 541 l 1219 0 l 1103 0 l 1103 373 q 1057 546 1103 489 q 925 602 1010 602 q 826 572 872 602 q 751 487 779 541 q 723 363 723 432 l 723 0 l 608 0 l 608 373 q 562 546 608 490 q 430 602 515 602 q 330 572 377 602 q 255 487 283 541 q 227 363 227 432 l 227 0 l 112 0 l 112 692 l 222 692 l 223 558 q 276 636 241 602 q 359 691 311 671 q 461 711 407 711 q 615 667 554 711 q 703 534 675 622 q 808 666 742 621 q 957 711 875 711 z "},"n":{"ha":863,"x_min":112,"x_max":759,"o":"m 224 692 l 224 558 q 281 637 243 603 q 370 692 319 672 q 479 711 421 711 q 688 626 616 711 q 759 375 759 541 l 759 0 l 642 0 l 642 373 q 592 546 642 490 q 449 602 542 602 q 340 573 391 602 q 259 489 290 544 q 229 363 229 435 l 229 0 l 112 0 l 112 692 l 224 692 z "},"o":{"ha":827,"x_min":54,"x_max":774,"o":"m 413 -20 q 230 29 313 -20 q 101 162 148 78 q 54 346 54 245 q 101 530 54 446 q 230 663 148 614 q 413 711 312 711 q 597 663 514 711 q 727 530 680 614 q 774 346 774 446 q 727 162 774 245 q 597 29 680 78 q 413 -20 515 -20 m 414 90 q 538 123 482 90 q 625 215 593 157 q 657 346 657 273 q 625 476 657 418 q 538 568 593 534 q 414 602 482 602 q 291 568 347 602 q 202 476 235 534 q 170 346 170 418 q 202 215 170 273 q 291 123 235 157 q 414 90 347 90 z "},"p":{"ha":886,"x_min":112,"x_max":831,"o":"m 224 692 l 224 544 q 332 665 261 618 q 490 711 403 711 q 664 662 586 711 q 787 529 742 613 q 831 346 831 446 q 787 162 831 245 q 664 29 742 78 q 492 -20 587 -20 q 335 25 406 -20 q 227 144 263 69 l 229 66 l 229 -236 l 112 -236 l 112 692 l 224 692 m 471 89 q 594 121 538 89 q 683 213 650 154 q 715 346 715 271 q 683 477 715 419 q 594 569 650 536 q 471 602 538 602 q 349 568 405 602 q 260 475 293 534 q 228 346 228 416 q 261 215 228 274 q 350 122 294 156 q 471 89 406 89 z "},"q":{"ha":885,"x_min":54,"x_max":773,"o":"m 658 144 q 598 61 637 98 q 508 2 560 24 q 394 -20 455 -20 q 220 29 298 -20 q 98 162 142 78 q 54 346 54 245 q 98 530 54 446 q 220 663 142 614 q 395 711 298 711 q 509 688 456 711 q 601 627 562 665 q 661 544 639 589 l 661 692 l 773 692 l 773 -236 l 656 -236 l 656 81 l 658 144 m 413 89 q 536 123 480 89 q 625 216 592 157 q 658 346 658 275 q 625 475 658 416 q 536 568 593 534 q 413 602 480 602 q 290 569 346 602 q 202 476 234 535 q 170 346 170 418 q 201 215 170 274 q 289 123 233 157 q 413 89 345 89 z "},"r":{"ha":526,"x_min":112,"x_max":502,"o":"m 224 692 l 224 537 q 305 651 250 610 q 435 692 360 692 l 502 692 l 502 589 l 441 589 q 332 558 380 589 q 256 467 283 526 q 229 326 229 407 l 229 0 l 112 0 l 112 692 l 224 692 z "},"s":{"ha":669,"x_min":54,"x_max":621,"o":"m 342 -20 q 185 13 250 -20 q 86 98 119 45 q 54 212 54 151 l 166 212 q 188 142 167 174 q 249 93 209 111 q 344 75 289 75 q 462 105 421 75 q 503 189 503 136 q 483 249 503 227 q 426 282 463 271 q 328 304 389 294 q 151 367 216 321 q 86 509 86 412 q 114 612 86 566 q 198 685 142 659 q 334 711 254 711 q 473 685 412 711 q 566 611 533 659 q 600 504 600 564 l 485 504 q 442 584 482 554 q 334 614 402 614 q 235 585 269 614 q 201 511 201 555 q 216 458 201 478 q 267 424 231 437 q 368 399 302 410 q 498 368 444 387 q 586 308 551 349 q 621 195 621 266 q 586 78 621 126 q 489 5 551 29 q 342 -20 426 -20 z "},"t":{"ha":545,"x_min":7,"x_max":507,"o":"m 379 0 q 222 55 283 0 q 161 256 161 110 l 161 589 l 7 589 l 7 692 l 161 692 l 161 897 l 278 898 l 278 692 l 507 692 l 507 589 l 278 589 l 278 251 q 312 131 278 163 q 402 99 347 99 l 507 99 l 507 0 l 379 0 z "},"u":{"ha":816,"x_min":93,"x_max":723,"o":"m 409 -20 q 243 17 314 -20 q 133 129 172 53 q 93 322 93 205 l 93 692 l 209 692 l 209 326 q 260 150 209 210 q 408 90 312 90 q 555 150 504 90 q 606 326 606 210 l 606 692 l 723 692 l 723 322 q 683 130 723 206 q 572 17 643 53 q 409 -20 502 -20 z "},"v":{"ha":690,"x_min":9,"x_max":682,"o":"m 9 692 l 133 692 l 328 203 l 345 142 l 361 203 l 557 692 l 682 692 l 400 0 l 290 0 l 9 692 z "},"w":{"ha":1055,"x_min":9,"x_max":1046,"o":"m 9 692 l 134 692 l 298 192 l 311 151 l 313 151 l 326 191 l 484 692 l 573 692 l 726 200 l 741 151 l 743 151 l 762 202 l 922 692 l 1046 692 l 808 0 l 698 0 l 527 518 l 526 518 l 354 0 l 247 0 l 9 692 z "},"x":{"ha":696,"x_min":26,"x_max":669,"o":"m 267 353 l 33 692 l 171 692 l 347 431 l 348 431 l 525 692 l 663 692 l 429 353 l 669 0 l 529 0 l 347 270 l 163 0 l 26 0 l 267 353 z "},"y":{"ha":711,"x_min":29,"x_max":702,"o":"m 149 -138 q 216 -123 190 -138 q 259 -80 241 -109 q 296 1 277 -52 l 304 20 l 29 692 l 153 692 l 349 203 l 366 142 l 383 202 l 578 691 l 702 692 l 429 19 q 353 -137 388 -83 q 271 -213 318 -190 q 149 -236 224 -236 l 35 -236 l 35 -138 l 149 -138 z "},"z":{"ha":656,"x_min":47,"x_max":623,"o":"m 47 75 l 448 592 l 67 592 l 67 692 l 606 692 l 606 615 l 208 100 l 623 100 l 623 0 l 47 0 l 47 75 z "},"æ":{"ha":1399,"x_min":54,"x_max":1357,"o":"m 1357 363 q 1354 315 1357 349 l 781 315 q 821 196 787 248 q 905 117 854 145 q 1013 90 956 90 q 1132 120 1082 90 q 1204 208 1181 150 l 1335 208 q 1269 93 1315 144 q 1157 11 1223 41 q 1015 -19 1091 -19 q 883 6 945 -19 q 774 78 821 32 l 774 0 l 662 0 l 662 147 q 553 25 627 70 q 388 -20 480 -20 q 218 29 295 -20 q 98 162 142 78 q 54 346 54 245 q 98 529 54 446 q 218 662 142 613 q 387 711 295 711 q 553 666 480 711 q 662 543 627 621 l 662 692 l 774 692 l 774 614 q 883 686 821 661 q 1015 711 945 711 q 1190 664 1112 711 q 1313 536 1268 616 q 1357 363 1357 456 m 414 90 q 537 123 481 90 q 625 216 593 157 q 658 346 658 275 q 625 475 658 416 q 536 568 592 534 q 414 602 481 602 q 291 569 347 602 q 202 477 235 536 q 170 346 170 419 q 202 213 170 271 q 291 122 235 155 q 414 90 347 90 m 1238 418 q 1203 509 1234 467 q 1121 576 1172 551 q 1013 602 1071 602 q 913 580 960 602 q 832 517 866 559 q 786 418 799 476 l 1238 418 z "},"œ":{"ha":1394,"x_min":54,"x_max":1351,"o":"m 1351 363 q 1349 315 1351 353 l 775 315 q 815 196 782 248 q 899 117 848 145 q 1006 90 949 90 q 1126 120 1076 90 q 1198 208 1175 150 l 1329 208 q 1263 93 1310 144 q 1152 11 1217 41 q 1009 -19 1086 -19 q 840 24 917 -19 q 715 142 763 68 q 588 24 667 67 q 413 -20 509 -20 q 230 29 313 -20 q 101 162 148 78 q 54 346 54 245 q 101 530 54 446 q 230 663 148 614 q 413 711 312 711 q 587 668 508 711 q 715 549 667 624 q 840 668 763 624 q 1009 711 917 711 q 1184 664 1106 711 q 1307 536 1263 616 q 1351 363 1351 456 m 414 90 q 538 123 482 90 q 625 215 593 157 q 657 346 657 273 q 625 476 657 418 q 538 568 593 534 q 414 602 482 602 q 291 568 347 602 q 202 476 235 534 q 170 346 170 418 q 202 215 170 273 q 291 123 235 157 q 414 90 347 90 m 1232 418 q 1197 509 1228 467 q 1115 576 1166 551 q 1007 602 1065 602 q 907 580 954 602 q 827 517 861 559 q 781 418 793 476 l 1232 418 z "},"ð":{"ha":848,"x_min":54,"x_max":773,"o":"m 413 -20 q 230 28 312 -20 q 101 158 148 76 q 54 341 54 241 q 97 525 54 442 q 218 654 140 607 q 395 702 296 702 q 532 665 468 702 q 636 564 596 628 q 518 808 599 710 l 370 730 l 336 787 l 469 859 q 360 935 416 907 l 500 968 q 580 901 547 934 l 711 970 l 746 914 l 625 848 q 735 630 698 755 q 773 363 773 504 q 726 166 773 254 q 597 30 680 79 q 413 -20 515 -20 m 414 90 q 537 122 481 90 q 625 213 593 155 q 658 341 658 271 q 625 475 658 416 q 537 568 593 534 q 414 602 481 602 q 291 568 347 602 q 203 475 235 534 q 170 341 170 416 q 203 213 170 271 q 292 122 235 155 q 414 90 348 90 z "},"þ":{"ha":886,"x_min":112,"x_max":831,"o":"m 229 956 l 229 623 l 227 546 q 335 665 266 620 q 490 711 405 711 q 664 662 586 711 q 787 529 742 613 q 831 346 831 446 q 787 162 831 245 q 664 29 742 78 q 492 -20 587 -20 q 336 24 407 -20 q 229 142 265 68 l 229 -236 l 112 -236 l 112 956 l 229 956 m 471 89 q 594 121 538 89 q 683 213 650 154 q 715 346 715 271 q 683 477 715 419 q 594 569 650 536 q 471 602 538 602 q 349 568 405 602 q 260 475 293 534 q 228 346 228 416 q 261 215 228 274 q 350 122 294 156 q 471 89 406 89 z "},"ß":{"ha":836,"x_min":112,"x_max":783,"o":"m 510 328 q 654 289 592 325 q 749 193 715 254 q 783 56 783 132 q 741 -105 783 -35 q 628 -212 699 -174 q 477 -249 558 -249 q 397 -239 437 -249 q 325 -208 357 -229 l 325 -120 q 393 -154 356 -143 q 463 -165 429 -165 q 568 -136 519 -165 q 647 -55 617 -106 q 676 60 676 -3 q 648 168 676 121 q 569 241 619 215 q 458 267 519 267 l 397 267 l 397 332 l 585 591 l 229 591 l 229 0 l 112 0 l 112 741 q 134 849 112 800 q 202 930 157 899 q 315 960 248 960 l 460 960 l 460 862 l 342 862 q 259 825 290 862 q 229 731 229 788 l 229 692 l 717 692 l 716 610 l 500 328 l 510 328 z "},"Á":{"ha":913,"x_min":9,"x_max":905,"o":"m 777 0 l 690 209 l 224 209 l 136 0 l 9 0 l 399 922 l 515 922 l 905 0 l 777 0 m 267 311 l 647 311 l 461 753 l 458 769 l 456 769 l 452 753 l 267 311 m 538 1183 l 627 1152 l 507 991 l 420 991 l 538 1183 z "},"Ă":{"ha":913,"x_min":9,"x_max":905,"o":"m 777 0 l 690 209 l 224 209 l 136 0 l 9 0 l 399 922 l 515 922 l 905 0 l 777 0 m 267 311 l 647 311 l 461 753 l 458 769 l 456 769 l 452 753 l 267 311 m 456 998 q 267 1158 292 998 l 359 1158 q 376 1109 366 1128 q 405 1080 386 1090 q 456 1069 424 1069 q 508 1080 489 1069 q 537 1109 527 1090 q 554 1158 547 1128 l 646 1158 q 456 998 625 998 z "},"Â":{"ha":913,"x_min":9,"x_max":905,"o":"m 777 0 l 690 209 l 224 209 l 136 0 l 9 0 l 399 922 l 515 922 l 905 0 l 777 0 m 267 311 l 647 311 l 461 753 l 458 769 l 456 769 l 452 753 l 267 311 m 256 996 l 416 1162 l 493 1162 l 654 996 l 556 996 l 454 1098 l 354 996 l 256 996 z "},"Ä":{"ha":913,"x_min":9,"x_max":905,"o":"m 777 0 l 690 209 l 224 209 l 136 0 l 9 0 l 399 922 l 515 922 l 905 0 l 777 0 m 267 311 l 647 311 l 461 753 l 458 769 l 456 769 l 452 753 l 267 311 m 342 1017 q 296 1033 314 1017 q 278 1073 278 1049 q 296 1114 278 1097 q 342 1130 314 1130 q 388 1114 370 1130 q 406 1073 406 1097 q 388 1033 406 1049 q 342 1017 370 1017 m 570 1017 q 525 1033 543 1017 q 507 1073 507 1049 q 525 1114 507 1097 q 570 1130 543 1130 q 617 1114 599 1130 q 635 1073 635 1097 q 617 1033 635 1049 q 570 1017 599 1017 z "},"Ạ":{"ha":913,"x_min":9,"x_max":905,"o":"m 777 0 l 690 209 l 224 209 l 136 0 l 9 0 l 399 922 l 515 922 l 905 0 l 777 0 m 267 311 l 647 311 l 461 753 l 458 769 l 456 769 l 452 753 l 267 311 z "},"À":{"ha":913,"x_min":9,"x_max":905,"o":"m 777 0 l 690 209 l 224 209 l 136 0 l 9 0 l 399 922 l 515 922 l 905 0 l 777 0 m 267 311 l 647 311 l 461 753 l 458 769 l 456 769 l 452 753 l 267 311 m 286 1152 l 374 1183 l 492 991 l 405 991 l 286 1152 z "},"Ā":{"ha":913,"x_min":9,"x_max":905,"o":"m 777 0 l 690 209 l 224 209 l 136 0 l 9 0 l 399 922 l 515 922 l 905 0 l 777 0 m 267 311 l 647 311 l 461 753 l 458 769 l 456 769 l 452 753 l 267 311 m 294 1103 l 620 1103 l 620 1031 l 294 1031 l 294 1103 z "},"Ą":{"ha":913,"x_min":9,"x_max":905,"o":"m 810 -209 q 884 -189 842 -209 l 903 -246 q 843 -276 876 -264 q 776 -288 810 -288 q 688 -260 718 -288 q 659 -190 659 -233 q 696 -91 659 -136 q 797 0 733 -47 l 777 0 l 690 209 l 224 209 l 136 0 l 9 0 l 399 922 l 515 922 l 905 0 l 890 -12 q 824 -63 850 -41 q 779 -113 798 -86 q 760 -168 760 -140 q 773 -198 760 -187 q 810 -209 787 -209 m 267 311 l 647 311 l 461 753 l 458 769 l 456 769 l 452 753 l 267 311 z "},"Å":{"ha":913,"x_min":9,"x_max":905,"o":"m 777 0 l 690 209 l 224 209 l 136 0 l 9 0 l 399 922 l 515 922 l 905 0 l 777 0 m 267 311 l 647 311 l 461 753 l 458 769 l 456 769 l 452 753 l 267 311 m 457 991 q 397 1004 424 991 q 355 1041 370 1018 q 340 1090 340 1063 q 355 1142 340 1119 q 397 1179 370 1166 q 457 1193 424 1193 q 518 1179 491 1193 q 559 1142 545 1166 q 574 1090 574 1119 q 559 1041 574 1063 q 518 1004 545 1018 q 457 991 491 991 m 457 1044 q 494 1058 479 1044 q 509 1090 509 1072 q 494 1126 509 1112 q 457 1140 479 1140 q 421 1126 436 1140 q 407 1090 407 1112 q 421 1058 407 1072 q 457 1044 436 1044 z "},"Ǻ":{"ha":913,"x_min":9,"x_max":905,"o":"m 777 0 l 690 209 l 224 209 l 136 0 l 9 0 l 399 922 l 515 922 l 905 0 l 777 0 m 267 311 l 647 311 l 461 753 l 458 769 l 456 769 l 452 753 l 267 311 m 457 991 q 397 1004 424 991 q 355 1041 370 1018 q 340 1090 340 1063 q 355 1142 340 1119 q 397 1179 370 1166 q 457 1193 424 1193 q 518 1179 491 1193 q 559 1142 545 1166 q 574 1090 574 1119 q 559 1041 574 1063 q 518 1004 545 1018 q 457 991 491 991 m 457 1044 q 494 1058 479 1044 q 509 1090 509 1072 q 494 1126 509 1112 q 457 1140 479 1140 q 421 1126 436 1140 q 407 1090 407 1112 q 421 1058 407 1072 q 457 1044 436 1044 m 530 1411 l 619 1381 l 499 1219 l 412 1219 l 530 1411 z "},"Ã":{"ha":913,"x_min":9,"x_max":905,"o":"m 777 0 l 690 209 l 224 209 l 136 0 l 9 0 l 399 922 l 515 922 l 905 0 l 777 0 m 267 311 l 647 311 l 461 753 l 458 769 l 456 769 l 452 753 l 267 311 m 638 1101 q 514 994 591 994 q 469 1001 490 994 q 420 1022 447 1008 q 387 1037 399 1032 q 363 1042 374 1042 q 332 1032 346 1042 q 305 998 317 1022 l 262 1032 q 305 1094 279 1072 q 365 1115 331 1115 q 388 1113 376 1115 q 419 1104 405 1110 q 455 1089 434 1099 q 490 1074 477 1079 q 515 1069 503 1069 q 594 1135 562 1069 l 638 1101 z "},"Ǽ":{"ha":1331,"x_min":11,"x_max":1301,"o":"m 802 109 l 1301 109 l 1301 0 l 682 0 l 682 208 l 300 208 l 156 0 l 11 0 l 650 922 l 1295 922 l 1295 813 l 802 813 l 802 521 l 1231 521 l 1231 418 l 802 418 l 802 109 m 368 310 l 682 310 l 682 772 l 669 747 l 368 310 m 1025 1202 l 1114 1171 l 1002 1010 l 921 1010 l 1025 1202 z "},"Ḅ":{"ha":890,"x_min":125,"x_max":836,"o":"m 519 922 q 655 892 595 922 q 749 806 715 861 q 783 680 783 751 q 767 600 783 638 q 723 532 751 561 q 661 488 695 503 q 749 440 709 473 q 813 360 789 406 q 836 260 836 313 q 798 121 836 180 q 695 31 759 62 q 558 0 631 0 l 125 0 l 125 922 l 519 922 m 514 522 q 588 542 555 522 q 642 596 622 562 q 661 671 661 630 q 642 745 661 711 q 588 798 622 779 q 515 818 555 818 l 247 818 l 247 522 l 514 522 m 549 106 q 632 127 594 106 q 691 186 669 149 q 713 269 713 223 q 691 349 713 313 q 632 408 669 386 q 550 429 595 429 l 247 429 l 247 106 l 549 106 z "},"Ć":{"ha":1023,"x_min":55,"x_max":968,"o":"m 536 -18 q 293 46 403 -18 q 119 220 182 110 q 55 462 55 330 q 119 704 55 594 q 293 879 182 814 q 536 943 403 943 q 726 905 636 943 q 881 791 817 867 q 968 609 945 716 l 846 609 q 731 775 815 718 q 532 832 648 832 q 351 785 433 832 q 222 652 269 737 q 175 462 175 568 q 222 271 175 355 q 351 140 269 187 q 532 93 433 93 q 731 150 647 93 q 845 315 814 207 l 968 315 q 881 132 945 208 q 727 19 817 57 q 536 -18 637 -18 m 627 1187 l 715 1157 l 595 996 l 509 996 l 627 1187 z "},"Č":{"ha":1023,"x_min":55,"x_max":968,"o":"m 536 -18 q 293 46 403 -18 q 119 220 182 110 q 55 462 55 330 q 119 704 55 594 q 293 879 182 814 q 536 943 403 943 q 726 905 636 943 q 881 791 817 867 q 968 609 945 716 l 846 609 q 731 775 815 718 q 532 832 648 832 q 351 785 433 832 q 222 652 269 737 q 175 462 175 568 q 222 271 175 355 q 351 140 269 187 q 532 93 433 93 q 731 150 647 93 q 845 315 814 207 l 968 315 q 881 132 945 208 q 727 19 817 57 q 536 -18 637 -18 m 444 1160 l 545 1057 l 646 1160 l 744 1160 l 583 993 l 506 993 l 346 1160 l 444 1160 z "},"Ç":{"ha":1023,"x_min":55,"x_max":968,"o":"m 532 93 q 731 150 647 93 q 845 315 814 207 l 968 315 q 885 137 946 211 q 736 24 823 62 q 552 -18 650 -15 l 534 -62 q 601 -94 572 -69 q 630 -157 630 -118 q 613 -217 630 -192 q 568 -255 595 -242 q 511 -267 541 -267 q 464 -260 488 -267 q 420 -239 440 -252 l 444 -184 q 477 -199 463 -194 q 509 -203 491 -203 q 545 -191 527 -203 q 563 -153 563 -179 q 536 -114 563 -125 q 474 -102 509 -102 l 499 -17 q 273 58 374 -8 q 113 230 172 124 q 55 462 55 336 q 119 704 55 594 q 293 879 182 814 q 536 943 403 943 q 726 905 636 943 q 881 791 817 867 q 968 609 945 716 l 846 609 q 731 775 815 718 q 532 832 648 832 q 351 785 433 832 q 222 652 269 737 q 175 462 175 568 q 222 271 175 355 q 351 140 269 187 q 532 93 433 93 z "},"Ĉ":{"ha":1023,"x_min":55,"x_max":968,"o":"m 536 -18 q 293 46 403 -18 q 119 220 182 110 q 55 462 55 330 q 119 704 55 594 q 293 879 182 814 q 536 943 403 943 q 726 905 636 943 q 881 791 817 867 q 968 609 945 716 l 846 609 q 731 775 815 718 q 532 832 648 832 q 351 785 433 832 q 222 652 269 737 q 175 462 175 568 q 222 271 175 355 q 351 140 269 187 q 532 93 433 93 q 731 150 647 93 q 845 315 814 207 l 968 315 q 881 132 945 208 q 727 19 817 57 q 536 -18 637 -18 m 345 1013 l 504 1180 l 581 1180 l 742 1013 l 644 1013 l 543 1115 l 442 1013 l 345 1013 z "},"Ċ":{"ha":1023,"x_min":55,"x_max":968,"o":"m 536 -18 q 293 46 403 -18 q 119 220 182 110 q 55 462 55 330 q 119 704 55 594 q 293 879 182 814 q 536 943 403 943 q 726 905 636 943 q 881 791 817 867 q 968 609 945 716 l 846 609 q 731 775 815 718 q 532 832 648 832 q 351 785 433 832 q 222 652 269 737 q 175 462 175 568 q 222 271 175 355 q 351 140 269 187 q 532 93 433 93 q 731 150 647 93 q 845 315 814 207 l 968 315 q 881 132 945 208 q 727 19 817 57 q 536 -18 637 -18 m 545 1039 q 499 1055 517 1039 q 481 1095 481 1072 q 499 1136 481 1120 q 545 1153 517 1153 q 592 1137 574 1153 q 610 1095 610 1120 q 591 1056 610 1072 q 545 1039 573 1039 z "},"Ď":{"ha":1004,"x_min":125,"x_max":949,"o":"m 463 922 q 717 865 607 922 q 888 703 827 807 q 949 462 949 598 q 888 220 949 325 q 718 58 828 115 q 465 0 608 0 l 125 0 l 125 922 l 463 922 m 462 109 q 656 152 574 109 q 783 274 739 195 q 827 459 827 353 q 783 646 827 566 q 655 771 739 727 q 459 815 572 815 l 243 815 l 243 109 l 462 109 m 356 1155 l 456 1053 l 558 1155 l 656 1155 l 495 988 l 418 988 l 258 1155 l 356 1155 z "},"Đ":{"ha":1004,"x_min":35,"x_max":949,"o":"m 463 922 q 717 865 607 922 q 888 703 827 807 q 949 462 949 598 q 888 220 949 325 q 718 58 828 115 q 465 0 608 0 l 125 0 l 125 455 l 35 455 l 35 545 l 125 545 l 125 922 l 463 922 m 462 109 q 656 152 574 109 q 783 274 739 195 q 827 459 827 353 q 783 646 827 566 q 655 771 739 727 q 459 815 572 815 l 243 815 l 243 545 l 473 545 l 473 455 l 243 455 l 243 109 l 462 109 z "},"Ḍ":{"ha":1004,"x_min":125,"x_max":949,"o":"m 463 922 q 717 865 607 922 q 888 703 827 807 q 949 462 949 598 q 888 220 949 325 q 718 58 828 115 q 465 0 608 0 l 125 0 l 125 922 l 463 922 m 462 109 q 656 152 574 109 q 783 274 739 195 q 827 459 827 353 q 783 646 827 566 q 655 771 739 727 q 459 815 572 815 l 243 815 l 243 109 l 462 109 z "},"É":{"ha":793,"x_min":125,"x_max":745,"o":"m 125 922 l 739 922 l 739 813 l 245 813 l 245 521 l 674 521 l 674 418 l 245 418 l 245 109 l 745 109 l 745 0 l 125 0 l 125 922 m 520 1183 l 609 1152 l 489 991 l 402 991 l 520 1183 z "},"Ĕ":{"ha":793,"x_min":125,"x_max":745,"o":"m 125 922 l 739 922 l 739 813 l 245 813 l 245 521 l 674 521 l 674 418 l 245 418 l 245 109 l 745 109 l 745 0 l 125 0 l 125 922 m 438 998 q 249 1158 273 998 l 341 1158 q 357 1109 347 1128 q 387 1080 368 1090 q 438 1069 406 1069 q 490 1080 471 1069 q 519 1109 509 1090 q 536 1158 529 1128 l 627 1158 q 438 998 607 998 z "},"Ě":{"ha":793,"x_min":125,"x_max":745,"o":"m 125 922 l 739 922 l 739 813 l 245 813 l 245 521 l 674 521 l 674 418 l 245 418 l 245 109 l 745 109 l 745 0 l 125 0 l 125 922 m 338 1155 l 438 1053 l 540 1155 l 637 1155 l 477 988 l 399 988 l 239 1155 l 338 1155 z "},"Ê":{"ha":793,"x_min":125,"x_max":745,"o":"m 125 922 l 739 922 l 739 813 l 245 813 l 245 521 l 674 521 l 674 418 l 245 418 l 245 109 l 745 109 l 745 0 l 125 0 l 125 922 m 238 996 l 397 1162 l 475 1162 l 635 996 l 538 996 l 436 1098 l 336 996 l 238 996 z "},"Ë":{"ha":793,"x_min":125,"x_max":745,"o":"m 125 922 l 739 922 l 739 813 l 245 813 l 245 521 l 674 521 l 674 418 l 245 418 l 245 109 l 745 109 l 745 0 l 125 0 l 125 922 m 323 1017 q 278 1033 296 1017 q 260 1073 260 1049 q 278 1114 260 1097 q 323 1130 296 1130 q 370 1114 352 1130 q 388 1073 388 1097 q 370 1033 388 1049 q 323 1017 352 1017 m 552 1017 q 507 1033 524 1017 q 489 1073 489 1049 q 507 1114 489 1097 q 552 1130 524 1130 q 598 1114 581 1130 q 616 1073 616 1097 q 598 1033 616 1049 q 552 1017 581 1017 z "},"Ė":{"ha":793,"x_min":125,"x_max":745,"o":"m 125 922 l 739 922 l 739 813 l 245 813 l 245 521 l 674 521 l 674 418 l 245 418 l 245 109 l 745 109 l 745 0 l 125 0 l 125 922 m 439 1015 q 393 1031 411 1015 q 375 1072 375 1048 q 393 1113 375 1096 q 439 1129 411 1129 q 485 1113 467 1129 q 503 1072 503 1097 q 485 1032 503 1048 q 439 1015 467 1015 z "},"Ẹ":{"ha":793,"x_min":125,"x_max":745,"o":"m 125 922 l 739 922 l 739 813 l 245 813 l 245 521 l 674 521 l 674 418 l 245 418 l 245 109 l 745 109 l 745 0 l 125 0 l 125 922 z "},"È":{"ha":793,"x_min":125,"x_max":745,"o":"m 125 922 l 739 922 l 739 813 l 245 813 l 245 521 l 674 521 l 674 418 l 245 418 l 245 109 l 745 109 l 745 0 l 125 0 l 125 922 m 268 1152 l 356 1183 l 475 991 l 387 991 l 268 1152 z "},"Ē":{"ha":793,"x_min":125,"x_max":745,"o":"m 125 922 l 739 922 l 739 813 l 245 813 l 245 521 l 674 521 l 674 418 l 245 418 l 245 109 l 745 109 l 745 0 l 125 0 l 125 922 m 275 1103 l 602 1103 l 602 1031 l 275 1031 l 275 1103 z "},"Ę":{"ha":793,"x_min":125,"x_max":745,"o":"m 730 -12 q 664 -63 690 -41 q 619 -113 638 -86 q 600 -168 600 -140 q 613 -198 600 -187 q 650 -209 627 -209 q 724 -189 682 -209 l 743 -246 q 683 -276 715 -264 q 616 -288 650 -288 q 528 -260 558 -288 q 498 -190 498 -233 q 536 -91 498 -136 q 637 0 573 -47 l 125 0 l 125 922 l 739 922 l 739 813 l 245 813 l 245 521 l 674 521 l 674 418 l 245 418 l 245 109 l 745 109 l 745 0 l 730 -12 z "},"Ẽ":{"ha":793,"x_min":125,"x_max":745,"o":"m 125 922 l 739 922 l 739 813 l 245 813 l 245 521 l 674 521 l 674 418 l 245 418 l 245 109 l 745 109 l 745 0 l 125 0 l 125 922 m 620 1101 q 496 994 573 994 q 450 1001 472 994 q 401 1022 429 1008 q 368 1037 380 1032 q 345 1042 356 1042 q 313 1032 328 1042 q 287 998 299 1022 l 244 1032 q 287 1094 261 1072 q 347 1115 313 1115 q 370 1113 357 1115 q 401 1104 387 1110 q 437 1089 416 1099 q 471 1074 458 1079 q 497 1069 484 1069 q 576 1135 543 1069 l 620 1101 z "},"Ğ":{"ha":1065,"x_min":56,"x_max":1010,"o":"m 540 -18 q 296 46 407 -18 q 120 221 185 111 q 56 462 56 331 q 120 704 56 594 q 296 879 185 814 q 540 943 407 943 q 731 905 639 943 q 890 798 823 868 q 980 631 956 727 l 858 631 q 734 779 819 726 q 537 832 649 832 q 355 784 437 832 q 224 652 272 736 q 176 462 176 568 q 224 271 176 355 q 355 140 272 187 q 537 93 437 93 q 712 130 638 93 q 829 232 786 168 q 885 377 872 296 l 533 377 l 533 486 l 1010 486 q 955 230 1010 345 q 792 49 899 115 q 540 -18 686 -18 z "},"Ǧ":{"ha":1065,"x_min":56,"x_max":1010,"o":"m 540 -18 q 296 46 407 -18 q 120 221 185 111 q 56 462 56 331 q 120 704 56 594 q 296 879 185 814 q 540 943 407 943 q 731 905 639 943 q 890 798 823 868 q 980 631 956 727 l 858 631 q 734 779 819 726 q 537 832 649 832 q 355 784 437 832 q 224 652 272 736 q 176 462 176 568 q 224 271 176 355 q 355 140 272 187 q 537 93 437 93 q 712 130 638 93 q 829 232 786 168 q 885 377 872 296 l 533 377 l 533 486 l 1010 486 q 955 230 1010 345 q 792 49 899 115 q 540 -18 686 -18 m 439 1155 l 539 1053 l 641 1155 l 739 1155 l 578 988 l 500 988 l 340 1155 l 439 1155 z "},"Ĝ":{"ha":1065,"x_min":56,"x_max":1010,"o":"m 540 -18 q 296 46 407 -18 q 120 221 185 111 q 56 462 56 331 q 120 704 56 594 q 296 879 185 814 q 540 943 407 943 q 731 905 639 943 q 890 798 823 868 q 980 631 956 727 l 858 631 q 734 779 819 726 q 537 832 649 832 q 355 784 437 832 q 224 652 272 736 q 176 462 176 568 q 224 271 176 355 q 355 140 272 187 q 537 93 437 93 q 712 130 638 93 q 829 232 786 168 q 885 377 872 296 l 533 377 l 533 486 l 1010 486 q 955 230 1010 345 q 792 49 899 115 q 540 -18 686 -18 m 339 1008 l 498 1175 l 576 1175 l 736 1008 l 639 1008 l 537 1110 l 437 1008 l 339 1008 z "},"Ģ":{"ha":1065,"x_min":56,"x_max":1010,"o":"m 540 -18 q 296 46 407 -18 q 120 221 185 111 q 56 462 56 331 q 120 704 56 594 q 296 879 185 814 q 540 943 407 943 q 731 905 639 943 q 890 798 823 868 q 980 631 956 727 l 858 631 q 734 779 819 726 q 537 832 649 832 q 355 784 437 832 q 224 652 272 736 q 176 462 176 568 q 224 271 176 355 q 355 140 272 187 q 537 93 437 93 q 712 130 638 93 q 829 232 786 168 q 885 377 872 296 l 533 377 l 533 486 l 1010 486 q 955 230 1010 345 q 792 49 899 115 q 540 -18 686 -18 m 451 -272 l 502 -92 l 608 -104 l 536 -276 l 451 -272 z "},"Ġ":{"ha":1065,"x_min":56,"x_max":1010,"o":"m 540 -18 q 296 46 407 -18 q 120 221 185 111 q 56 462 56 331 q 120 704 56 594 q 296 879 185 814 q 540 943 407 943 q 731 905 639 943 q 890 798 823 868 q 980 631 956 727 l 858 631 q 734 779 819 726 q 537 832 649 832 q 355 784 437 832 q 224 652 272 736 q 176 462 176 568 q 224 271 176 355 q 355 140 272 187 q 537 93 437 93 q 712 130 638 93 q 829 232 786 168 q 885 377 872 296 l 533 377 l 533 486 l 1010 486 q 955 230 1010 345 q 792 49 899 115 q 540 -18 686 -18 m 539 1034 q 493 1050 511 1034 q 475 1090 475 1067 q 493 1132 475 1115 q 539 1148 511 1148 q 586 1132 568 1148 q 604 1090 604 1116 q 585 1051 604 1067 q 539 1034 567 1034 z "},"Ħ":{"ha":1025,"x_min":125,"x_max":899,"o":"m 779 922 l 899 922 l 899 0 l 779 0 l 779 408 l 245 408 l 245 0 l 125 0 l 125 922 l 245 922 l 245 831 l 779 831 l 779 922 m 245 516 l 779 516 l 779 741 l 245 741 l 245 516 z "},"Ĥ":{"ha":1025,"x_min":125,"x_max":899,"o":"m 125 922 l 245 922 l 245 516 l 779 516 l 779 922 l 899 922 l 899 0 l 779 0 l 779 408 l 245 408 l 245 0 l 125 0 l 125 922 m 311 1008 l 470 1175 l 547 1175 l 708 1008 l 610 1008 l 509 1110 l 408 1008 l 311 1008 z "},"Ḥ":{"ha":1025,"x_min":125,"x_max":899,"o":"m 125 922 l 245 922 l 245 516 l 779 516 l 779 922 l 899 922 l 899 0 l 779 0 l 779 408 l 245 408 l 245 0 l 125 0 l 125 922 z "},"Ĳ":{"ha":741,"x_min":125,"x_max":633,"o":"m 125 922 l 245 922 l 245 279 l 125 279 l 125 922 m 309 109 q 416 135 370 109 q 489 209 463 161 q 514 322 514 258 l 514 922 l 633 922 l 633 316 q 592 148 633 220 q 477 38 551 77 q 308 0 403 0 l 126 0 l 126 109 l 309 109 z "},"Í":{"ha":371,"x_min":125,"x_max":355,"o":"m 125 922 l 245 922 l 245 0 l 125 0 l 125 922 m 267 1183 l 355 1152 l 235 991 l 149 991 l 267 1183 z "},"Ĭ":{"ha":371,"x_min":-4,"x_max":374,"o":"m 125 922 l 245 922 l 245 0 l 125 0 l 125 922 z "},"Î":{"ha":371,"x_min":-16,"x_max":382,"o":"m 125 922 l 245 922 l 245 0 l 125 0 l 125 922 m -16 996 l 144 1162 l 221 1162 l 382 996 l 284 996 l 182 1098 l 82 996 l -16 996 z "},"Ï":{"ha":371,"x_min":6,"x_max":363,"o":"m 125 922 l 245 922 l 245 0 l 125 0 l 125 922 m 70 1017 q 24 1033 42 1017 q 6 1073 6 1049 q 24 1114 6 1097 q 70 1130 42 1130 q 116 1114 98 1130 q 134 1073 134 1097 q 116 1033 134 1049 q 70 1017 98 1017 m 298 1017 q 253 1033 271 1017 q 235 1073 235 1049 q 253 1114 235 1097 q 298 1130 271 1130 q 345 1114 327 1130 q 363 1073 363 1097 q 345 1033 363 1049 q 298 1017 327 1017 z "},"İ":{"ha":371,"x_min":121,"x_max":250,"o":"m 125 922 l 245 922 l 245 0 l 125 0 l 125 922 m 185 1034 q 139 1050 157 1034 q 121 1090 121 1067 q 139 1132 121 1115 q 185 1148 157 1148 q 232 1132 214 1148 q 250 1090 250 1116 q 231 1051 250 1067 q 185 1034 213 1034 z "},"Ị":{"ha":371,"x_min":122,"x_max":250,"o":"m 125 922 l 245 922 l 245 0 l 125 0 l 125 922 z "},"Ì":{"ha":371,"x_min":14,"x_max":245,"o":"m 125 922 l 245 922 l 245 0 l 125 0 l 125 922 m 14 1152 l 102 1183 l 221 991 l 134 991 l 14 1152 z "},"Ī":{"ha":371,"x_min":22,"x_max":348,"o":"m 125 922 l 245 922 l 245 0 l 125 0 l 125 922 m 22 1103 l 348 1103 l 348 1031 l 22 1031 l 22 1103 z "},"Į":{"ha":371,"x_min":-1,"x_max":245,"o":"m 231 -12 q 165 -63 191 -41 q 120 -113 139 -86 q 101 -168 101 -140 q 114 -198 101 -187 q 151 -209 127 -209 q 225 -189 183 -209 l 243 -246 q 184 -276 216 -264 q 117 -288 151 -288 q 29 -260 59 -288 q -1 -190 -1 -233 q 37 -91 -1 -136 q 138 0 74 -47 l 125 0 l 125 922 l 245 922 l 245 0 l 231 -12 z "},"Ĩ":{"ha":371,"x_min":-3,"x_max":372,"o":"m 125 922 l 245 922 l 245 0 l 125 0 l 125 922 z "},"Ĵ":{"ha":588,"x_min":25,"x_max":617,"o":"m 156 109 q 264 135 217 109 q 336 209 311 161 q 361 322 361 258 l 361 922 l 480 922 l 480 316 q 439 148 480 220 q 324 38 397 77 q 155 0 250 0 l 25 0 l 25 109 l 156 109 m 220 1008 l 379 1175 l 456 1175 l 617 1008 l 519 1008 l 418 1110 l 317 1008 l 220 1008 z "},"Ķ":{"ha":898,"x_min":125,"x_max":883,"o":"m 496 515 l 883 0 l 739 0 l 418 427 l 245 216 l 245 0 l 125 0 l 125 922 l 245 922 l 245 376 l 690 922 l 831 922 l 496 515 m 359 -259 l 410 -79 l 516 -91 l 444 -263 l 359 -259 z "},"Ḳ":{"ha":898,"x_min":125,"x_max":883,"o":"m 496 515 l 883 0 l 739 0 l 418 427 l 245 216 l 245 0 l 125 0 l 125 922 l 245 922 l 245 376 l 690 922 l 831 922 l 496 515 z "},"Ĺ":{"ha":721,"x_min":125,"x_max":694,"o":"m 125 922 l 245 922 l 245 109 l 694 109 l 694 0 l 125 0 l 125 922 m 273 1183 l 362 1152 l 242 991 l 155 991 l 273 1183 z "},"Ľ":{"ha":732,"x_min":125,"x_max":694,"o":"m 125 922 l 245 922 l 245 109 l 694 109 l 694 0 l 125 0 l 125 922 m 557 922 l 644 922 l 632 669 l 567 669 l 557 922 z "},"Ļ":{"ha":721,"x_min":125,"x_max":694,"o":"m 125 922 l 245 922 l 245 109 l 694 109 l 694 0 l 125 0 l 125 922 m 262 -259 l 313 -79 l 419 -91 l 347 -263 l 262 -259 z "},"Ŀ":{"ha":735,"x_min":125,"x_max":694,"o":"m 245 922 l 245 109 l 694 109 l 694 0 l 125 0 l 125 922 l 245 922 m 543 408 q 488 428 509 408 q 466 477 466 448 q 488 526 466 506 q 543 546 509 546 q 597 526 576 546 q 619 477 619 506 q 598 428 619 448 q 543 408 576 408 z "},"Ḷ":{"ha":721,"x_min":125,"x_max":694,"o":"m 125 922 l 245 922 l 245 109 l 694 109 l 694 0 l 125 0 l 125 922 z "},"Ł":{"ha":748,"x_min":33,"x_max":721,"o":"m 273 109 l 721 109 l 721 0 l 153 0 l 153 394 l 33 342 l 33 438 l 153 490 l 153 922 l 273 922 l 273 543 l 395 595 l 395 498 l 273 446 l 273 109 z "},"Ṃ":{"ha":1161,"x_min":125,"x_max":1036,"o":"m 125 922 l 229 922 l 580 457 l 581 457 l 930 922 l 1036 922 l 1036 0 l 916 0 l 916 728 l 597 303 l 562 303 l 245 729 l 245 0 l 125 0 l 125 922 z "},"Ń":{"ha":1040,"x_min":125,"x_max":915,"o":"m 795 922 l 915 922 l 915 0 l 813 0 l 245 721 l 245 0 l 125 0 l 125 922 l 227 922 l 795 199 l 795 199 l 795 922 m 600 1183 l 689 1152 l 569 991 l 482 991 l 600 1183 z "},"Ň":{"ha":1040,"x_min":125,"x_max":915,"o":"m 795 922 l 915 922 l 915 0 l 813 0 l 245 721 l 245 0 l 125 0 l 125 922 l 227 922 l 795 199 l 795 199 l 795 922 m 418 1155 l 518 1053 l 620 1155 l 718 1155 l 557 988 l 479 988 l 319 1155 l 418 1155 z "},"Ņ":{"ha":1040,"x_min":125,"x_max":915,"o":"m 795 922 l 915 922 l 915 0 l 813 0 l 245 721 l 245 0 l 125 0 l 125 922 l 227 922 l 795 199 l 795 199 l 795 922 m 426 -259 l 477 -79 l 583 -91 l 511 -263 l 426 -259 z "},"Ṇ":{"ha":1040,"x_min":125,"x_max":915,"o":"m 795 922 l 915 922 l 915 0 l 813 0 l 245 721 l 245 0 l 125 0 l 125 922 l 227 922 l 795 199 l 795 199 l 795 922 z "},"Ŋ":{"ha":1040,"x_min":125,"x_max":915,"o":"m 915 922 l 915 -18 q 891 -142 915 -90 q 821 -222 867 -195 q 710 -250 774 -250 l 652 -250 l 652 -150 l 705 -150 q 782 -113 755 -150 q 808 -18 808 -77 l 808 7 l 245 721 l 245 0 l 125 0 l 125 922 l 227 922 l 795 199 l 795 199 l 795 922 l 915 922 z "},"Ɲ":{"ha":1040,"x_min":-45,"x_max":915,"o":"m 915 922 l 915 0 l 813 0 l 245 721 l 245 -10 q 185 -189 245 -125 q 18 -252 125 -252 l -45 -252 l -45 -151 l 14 -151 q 98 -113 70 -151 q 127 -9 127 -75 l 127 0 l 125 0 l 125 922 l 227 922 l 795 199 l 795 199 l 795 922 l 915 922 z "},"Ñ":{"ha":1040,"x_min":125,"x_max":915,"o":"m 795 922 l 915 922 l 915 0 l 813 0 l 245 721 l 245 0 l 125 0 l 125 922 l 227 922 l 795 199 l 795 199 l 795 922 m 701 1101 q 576 994 654 994 q 531 1001 553 994 q 482 1022 509 1008 q 449 1037 461 1032 q 425 1042 437 1042 q 394 1032 408 1042 q 368 998 380 1022 l 325 1032 q 368 1094 342 1072 q 427 1115 393 1115 q 450 1113 438 1115 q 482 1104 467 1110 q 517 1089 496 1099 q 552 1074 539 1079 q 578 1069 565 1069 q 656 1135 624 1069 l 701 1101 z "},"Ó":{"ha":1096,"x_min":55,"x_max":1041,"o":"m 547 -18 q 300 46 414 -18 q 121 221 187 111 q 55 462 55 331 q 121 704 55 594 q 300 879 187 814 q 547 943 413 943 q 795 879 682 943 q 975 704 908 814 q 1041 462 1041 594 q 975 221 1041 331 q 795 46 908 111 q 547 -18 682 -18 m 547 93 q 735 141 650 93 q 871 274 821 190 q 921 462 921 359 q 871 650 921 565 q 735 783 821 734 q 547 832 650 832 q 360 783 446 832 q 225 650 275 734 q 175 462 175 565 q 225 274 175 359 q 360 141 275 190 q 547 93 446 93 m 625 1198 l 713 1167 l 593 1006 l 507 1006 l 625 1198 z "},"Ŏ":{"ha":1096,"x_min":55,"x_max":1041,"o":"m 547 -18 q 300 46 414 -18 q 121 221 187 111 q 55 462 55 331 q 121 704 55 594 q 300 879 187 814 q 547 943 413 943 q 795 879 682 943 q 975 704 908 814 q 1041 462 1041 594 q 975 221 1041 331 q 795 46 908 111 q 547 -18 682 -18 m 547 93 q 735 141 650 93 q 871 274 821 190 q 921 462 921 359 q 871 650 921 565 q 735 783 821 734 q 547 832 650 832 q 360 783 446 832 q 225 650 275 734 q 175 462 175 565 q 225 274 175 359 q 360 141 275 190 q 547 93 446 93 z "},"Ô":{"ha":1096,"x_min":55,"x_max":1041,"o":"m 547 -18 q 300 46 414 -18 q 121 221 187 111 q 55 462 55 331 q 121 704 55 594 q 300 879 187 814 q 547 943 413 943 q 795 879 682 943 q 975 704 908 814 q 1041 462 1041 594 q 975 221 1041 331 q 795 46 908 111 q 547 -18 682 -18 m 547 93 q 735 141 650 93 q 871 274 821 190 q 921 462 921 359 q 871 650 921 565 q 735 783 821 734 q 547 832 650 832 q 360 783 446 832 q 225 650 275 734 q 175 462 175 565 q 225 274 175 359 q 360 141 275 190 q 547 93 446 93 m 342 1010 l 502 1177 l 579 1177 l 740 1010 l 642 1010 l 541 1113 l 440 1010 l 342 1010 z "},"Ö":{"ha":1096,"x_min":55,"x_max":1041,"o":"m 547 -18 q 300 46 414 -18 q 121 221 187 111 q 55 462 55 331 q 121 704 55 594 q 300 879 187 814 q 547 943 413 943 q 795 879 682 943 q 975 704 908 814 q 1041 462 1041 594 q 975 221 1041 331 q 795 46 908 111 q 547 -18 682 -18 m 547 93 q 735 141 650 93 q 871 274 821 190 q 921 462 921 359 q 871 650 921 565 q 735 783 821 734 q 547 832 650 832 q 360 783 446 832 q 225 650 275 734 q 175 462 175 565 q 225 274 175 359 q 360 141 275 190 q 547 93 446 93 m 428 1031 q 382 1048 400 1031 q 364 1088 364 1064 q 382 1128 364 1112 q 428 1145 400 1145 q 474 1128 456 1145 q 492 1088 492 1112 q 474 1048 492 1064 q 428 1031 456 1031 m 656 1031 q 611 1048 629 1031 q 593 1088 593 1064 q 611 1128 593 1112 q 656 1145 629 1145 q 703 1128 685 1145 q 721 1088 721 1112 q 703 1048 721 1064 q 656 1031 685 1031 z "},"Ọ":{"ha":1096,"x_min":55,"x_max":1041,"o":"m 547 -18 q 300 46 414 -18 q 121 221 187 111 q 55 462 55 331 q 121 704 55 594 q 300 879 187 814 q 547 943 413 943 q 795 879 682 943 q 975 704 908 814 q 1041 462 1041 594 q 975 221 1041 331 q 795 46 908 111 q 547 -18 682 -18 m 547 93 q 735 141 650 93 q 871 274 821 190 q 921 462 921 359 q 871 650 921 565 q 735 783 821 734 q 547 832 650 832 q 360 783 446 832 q 225 650 275 734 q 175 462 175 565 q 225 274 175 359 q 360 141 275 190 q 547 93 446 93 z "},"Ò":{"ha":1096,"x_min":55,"x_max":1041,"o":"m 547 -18 q 300 46 414 -18 q 121 221 187 111 q 55 462 55 331 q 121 704 55 594 q 300 879 187 814 q 547 943 413 943 q 795 879 682 943 q 975 704 908 814 q 1041 462 1041 594 q 975 221 1041 331 q 795 46 908 111 q 547 -18 682 -18 m 547 93 q 735 141 650 93 q 871 274 821 190 q 921 462 921 359 q 871 650 921 565 q 735 783 821 734 q 547 832 650 832 q 360 783 446 832 q 225 650 275 734 q 175 462 175 565 q 225 274 175 359 q 360 141 275 190 q 547 93 446 93 m 372 1167 l 460 1198 l 579 1006 l 492 1006 l 372 1167 z "},"Ő":{"ha":1096,"x_min":55,"x_max":1041,"o":"m 547 -18 q 300 46 414 -18 q 121 221 187 111 q 55 462 55 331 q 121 704 55 594 q 300 879 187 814 q 547 943 413 943 q 795 879 682 943 q 975 704 908 814 q 1041 462 1041 594 q 975 221 1041 331 q 795 46 908 111 q 547 -18 682 -18 m 547 93 q 735 141 650 93 q 871 274 821 190 q 921 462 921 359 q 871 650 921 565 q 735 783 821 734 q 547 832 650 832 q 360 783 446 832 q 225 650 275 734 q 175 462 175 565 q 225 274 175 359 q 360 141 275 190 q 547 93 446 93 z "},"Ō":{"ha":1096,"x_min":55,"x_max":1041,"o":"m 547 -18 q 300 46 414 -18 q 121 221 187 111 q 55 462 55 331 q 121 704 55 594 q 300 879 187 814 q 547 943 413 943 q 795 879 682 943 q 975 704 908 814 q 1041 462 1041 594 q 975 221 1041 331 q 795 46 908 111 q 547 -18 682 -18 m 547 93 q 735 141 650 93 q 871 274 821 190 q 921 462 921 359 q 871 650 921 565 q 735 783 821 734 q 547 832 650 832 q 360 783 446 832 q 225 650 275 734 q 175 462 175 565 q 225 274 175 359 q 360 141 275 190 q 547 93 446 93 m 380 1118 l 706 1118 l 706 1046 l 380 1046 l 380 1118 z "},"Ǫ":{"ha":1096,"x_min":55,"x_max":1041,"o":"m 827 66 q 758 11 783 33 q 712 -38 732 -10 q 692 -95 692 -66 q 706 -125 692 -114 q 742 -136 719 -136 q 817 -116 774 -136 l 835 -173 q 775 -203 808 -191 q 708 -214 743 -214 q 621 -187 650 -214 q 591 -117 591 -159 q 634 -11 591 -63 q 547 -18 591 -18 q 300 46 414 -18 q 121 221 187 111 q 55 462 55 331 q 121 704 55 594 q 300 879 187 814 q 547 943 413 943 q 795 879 682 943 q 975 704 908 814 q 1041 462 1041 594 q 983 236 1041 340 q 827 66 926 132 m 175 462 q 225 274 175 359 q 360 141 275 190 q 547 93 446 93 q 735 141 650 93 q 871 274 821 190 q 921 462 921 359 q 871 650 921 565 q 735 783 821 734 q 547 832 650 832 q 360 783 446 832 q 225 650 275 734 q 175 462 175 565 z "},"Ø":{"ha":1096,"x_min":55,"x_max":1041,"o":"m 867 829 q 995 666 949 762 q 1041 462 1041 571 q 975 221 1041 331 q 795 46 908 111 q 547 -18 682 -18 q 321 35 426 -18 l 239 -84 l 146 -18 l 225 98 q 100 260 145 165 q 55 462 55 354 q 121 704 55 594 q 300 879 187 814 q 547 943 413 943 q 772 891 667 943 l 848 1002 l 941 935 l 867 829 m 175 462 q 205 313 175 382 q 290 193 236 243 l 707 798 q 547 832 632 832 q 360 783 446 832 q 225 650 275 734 q 175 462 175 565 m 547 93 q 735 141 650 93 q 871 274 821 190 q 921 462 921 359 q 890 613 921 543 q 803 734 859 683 l 385 129 q 547 93 461 93 z "},"Ǿ":{"ha":1096,"x_min":55,"x_max":1041,"o":"m 867 829 q 995 666 949 762 q 1041 462 1041 571 q 975 221 1041 331 q 795 46 908 111 q 547 -18 682 -18 q 321 35 426 -18 l 239 -84 l 146 -18 l 225 98 q 100 260 145 165 q 55 462 55 354 q 121 704 55 594 q 300 879 187 814 q 547 943 413 943 q 772 891 667 943 l 848 1002 l 941 935 l 867 829 m 175 462 q 205 313 175 382 q 290 193 236 243 l 707 798 q 547 832 632 832 q 360 783 446 832 q 225 650 275 734 q 175 462 175 565 m 547 93 q 735 141 650 93 q 871 274 821 190 q 921 462 921 359 q 890 613 921 543 q 803 734 859 683 l 385 129 q 547 93 461 93 m 550 1238 l 639 1207 l 527 1046 l 446 1046 l 550 1238 z "},"Õ":{"ha":1096,"x_min":55,"x_max":1041,"o":"m 547 -18 q 300 46 414 -18 q 121 221 187 111 q 55 462 55 331 q 121 704 55 594 q 300 879 187 814 q 547 943 413 943 q 795 879 682 943 q 975 704 908 814 q 1041 462 1041 594 q 975 221 1041 331 q 795 46 908 111 q 547 -18 682 -18 m 547 93 q 735 141 650 93 q 871 274 821 190 q 921 462 921 359 q 871 650 921 565 q 735 783 821 734 q 547 832 650 832 q 360 783 446 832 q 225 650 275 734 q 175 462 175 565 q 225 274 175 359 q 360 141 275 190 q 547 93 446 93 m 724 1116 q 600 1008 677 1008 q 555 1016 576 1008 q 506 1037 533 1023 q 473 1052 485 1047 q 449 1057 460 1057 q 418 1047 432 1057 q 391 1013 404 1037 l 349 1047 q 391 1108 366 1087 q 451 1130 417 1130 q 474 1128 462 1130 q 506 1119 491 1125 q 541 1104 520 1114 q 576 1089 563 1094 q 602 1084 589 1084 q 680 1150 648 1084 l 724 1116 z "},"Ŕ":{"ha":886,"x_min":125,"x_max":844,"o":"m 517 922 q 676 886 606 922 q 784 784 745 850 q 823 633 823 718 q 798 511 823 566 q 728 419 773 456 q 621 365 682 381 l 844 0 l 705 0 l 500 347 q 471 347 490 347 l 245 347 l 245 0 l 125 0 l 125 922 l 517 922 m 515 449 q 611 472 568 449 q 679 537 654 496 q 703 632 703 578 q 678 725 703 684 q 610 791 653 767 q 513 814 566 814 l 245 814 l 245 449 l 515 449 m 528 1183 l 616 1152 l 496 991 l 410 991 l 528 1183 z "},"Ř":{"ha":886,"x_min":125,"x_max":844,"o":"m 517 922 q 676 886 606 922 q 784 784 745 850 q 823 633 823 718 q 798 511 823 566 q 728 419 773 456 q 621 365 682 381 l 844 0 l 705 0 l 500 347 q 471 347 490 347 l 245 347 l 245 0 l 125 0 l 125 922 l 517 922 m 515 449 q 611 472 568 449 q 679 537 654 496 q 703 632 703 578 q 678 725 703 684 q 610 791 653 767 q 513 814 566 814 l 245 814 l 245 449 l 515 449 m 345 1155 l 446 1053 l 547 1155 l 645 1155 l 484 988 l 407 988 l 247 1155 l 345 1155 z "},"Ŗ":{"ha":886,"x_min":125,"x_max":844,"o":"m 517 922 q 676 886 606 922 q 784 784 745 850 q 823 633 823 718 q 798 511 823 566 q 728 419 773 456 q 621 365 682 381 l 844 0 l 705 0 l 500 347 q 471 347 490 347 l 245 347 l 245 0 l 125 0 l 125 922 l 517 922 m 515 449 q 611 472 568 449 q 679 537 654 496 q 703 632 703 578 q 678 725 703 684 q 610 791 653 767 q 513 814 566 814 l 245 814 l 245 449 l 515 449 m 347 -259 l 397 -79 l 504 -91 l 431 -263 l 347 -259 z "},"Ṛ":{"ha":886,"x_min":125,"x_max":844,"o":"m 517 922 q 676 886 606 922 q 784 784 745 850 q 823 633 823 718 q 798 511 823 566 q 728 419 773 456 q 621 365 682 381 l 844 0 l 705 0 l 500 347 q 471 347 490 347 l 245 347 l 245 0 l 125 0 l 125 922 l 517 922 m 515 449 q 611 472 568 449 q 679 537 654 496 q 703 632 703 578 q 678 725 703 684 q 610 791 653 767 q 513 814 566 814 l 245 814 l 245 449 l 515 449 z "},"Ś":{"ha":825,"x_min":51,"x_max":778,"o":"m 413 -20 q 213 21 294 -20 q 91 128 131 62 q 51 267 51 194 l 171 267 q 200 176 171 218 q 284 109 229 134 q 412 83 339 83 q 594 127 531 83 q 656 255 656 170 q 594 368 656 330 q 416 423 532 406 q 248 466 321 439 q 124 546 174 492 q 75 686 75 600 q 110 817 75 759 q 219 908 144 874 q 409 943 294 943 q 590 909 515 943 q 703 817 665 876 q 741 680 741 758 l 621 680 q 596 762 621 726 q 523 817 571 798 q 408 837 475 837 q 243 794 292 837 q 195 686 195 751 q 258 579 195 616 q 453 525 322 543 q 687 442 596 502 q 778 255 778 382 q 734 107 778 170 q 608 13 690 45 q 413 -20 526 -20 m 507 1183 l 596 1152 l 476 991 l 389 991 l 507 1183 z "},"Š":{"ha":825,"x_min":51,"x_max":778,"o":"m 413 -20 q 213 21 294 -20 q 91 128 131 62 q 51 267 51 194 l 171 267 q 200 176 171 218 q 284 109 229 134 q 412 83 339 83 q 594 127 531 83 q 656 255 656 170 q 594 368 656 330 q 416 423 532 406 q 248 466 321 439 q 124 546 174 492 q 75 686 75 600 q 110 817 75 759 q 219 908 144 874 q 409 943 294 943 q 590 909 515 943 q 703 817 665 876 q 741 680 741 758 l 621 680 q 596 762 621 726 q 523 817 571 798 q 408 837 475 837 q 243 794 292 837 q 195 686 195 751 q 258 579 195 616 q 453 525 322 543 q 687 442 596 502 q 778 255 778 382 q 734 107 778 170 q 608 13 690 45 q 413 -20 526 -20 m 325 1155 l 425 1053 l 527 1155 l 625 1155 l 464 988 l 387 988 l 227 1155 l 325 1155 z "},"Ş":{"ha":825,"x_min":51,"x_max":778,"o":"m 412 -20 l 401 -49 q 468 -80 439 -56 q 496 -143 496 -104 q 479 -203 496 -178 q 435 -241 462 -229 q 378 -254 408 -254 q 330 -246 354 -254 q 287 -225 307 -239 l 311 -170 q 343 -185 329 -180 q 375 -190 357 -190 q 411 -178 393 -190 q 429 -140 429 -165 q 402 -100 429 -111 q 340 -88 376 -89 l 361 -18 q 189 34 259 -9 q 85 138 119 76 q 51 267 51 199 l 171 267 q 200 176 171 218 q 284 109 229 134 q 412 83 339 83 q 594 127 531 83 q 656 255 656 170 q 594 368 656 330 q 416 423 532 406 q 248 466 321 439 q 124 546 174 492 q 75 686 75 600 q 110 817 75 759 q 219 908 144 874 q 409 943 294 943 q 590 909 515 943 q 703 817 665 876 q 741 680 741 758 l 621 680 q 596 762 621 726 q 523 817 571 798 q 408 837 475 837 q 243 794 292 837 q 195 686 195 751 q 258 579 195 616 q 453 525 322 543 q 687 442 596 502 q 778 255 778 382 q 734 107 778 170 q 608 13 690 45 q 413 -20 526 -20 l 412 -20 z "},"Ŝ":{"ha":825,"x_min":51,"x_max":778,"o":"m 413 -20 q 213 21 294 -20 q 91 128 131 62 q 51 267 51 194 l 171 267 q 200 176 171 218 q 284 109 229 134 q 412 83 339 83 q 594 127 531 83 q 656 255 656 170 q 594 368 656 330 q 416 423 532 406 q 248 466 321 439 q 124 546 174 492 q 75 686 75 600 q 110 817 75 759 q 219 908 144 874 q 409 943 294 943 q 590 909 515 943 q 703 817 665 876 q 741 680 741 758 l 621 680 q 596 762 621 726 q 523 817 571 798 q 408 837 475 837 q 243 794 292 837 q 195 686 195 751 q 258 579 195 616 q 453 525 322 543 q 687 442 596 502 q 778 255 778 382 q 734 107 778 170 q 608 13 690 45 q 413 -20 526 -20 m 225 1008 l 385 1175 l 462 1175 l 623 1008 l 525 1008 l 423 1110 l 323 1008 l 225 1008 z "},"Ș":{"ha":825,"x_min":51,"x_max":778,"o":"m 413 -20 q 213 21 294 -20 q 91 128 131 62 q 51 267 51 194 l 171 267 q 200 176 171 218 q 284 109 229 134 q 412 83 339 83 q 594 127 531 83 q 656 255 656 170 q 594 368 656 330 q 416 423 532 406 q 248 466 321 439 q 124 546 174 492 q 75 686 75 600 q 110 817 75 759 q 219 908 144 874 q 409 943 294 943 q 590 909 515 943 q 703 817 665 876 q 741 680 741 758 l 621 680 q 596 762 621 726 q 523 817 571 798 q 408 837 475 837 q 243 794 292 837 q 195 686 195 751 q 258 579 195 616 q 453 525 322 543 q 687 442 596 502 q 778 255 778 382 q 734 107 778 170 q 608 13 690 45 q 413 -20 526 -20 m 304 -258 l 359 -65 l 466 -65 l 389 -261 l 304 -258 z "},"Ṣ":{"ha":825,"x_min":51,"x_max":778,"o":"m 413 -20 q 213 21 294 -20 q 91 128 131 62 q 51 267 51 194 l 171 267 q 200 176 171 218 q 284 109 229 134 q 412 83 339 83 q 594 127 531 83 q 656 255 656 170 q 594 368 656 330 q 416 423 532 406 q 248 466 321 439 q 124 546 174 492 q 75 686 75 600 q 110 817 75 759 q 219 908 144 874 q 409 943 294 943 q 590 909 515 943 q 703 817 665 876 q 741 680 741 758 l 621 680 q 596 762 621 726 q 523 817 571 798 q 408 837 475 837 q 243 794 292 837 q 195 686 195 751 q 258 579 195 616 q 453 525 322 543 q 687 442 596 502 q 778 255 778 382 q 734 107 778 170 q 608 13 690 45 q 413 -20 526 -20 z "},"Ə":{"ha":1049,"x_min":67,"x_max":999,"o":"m 528 941 q 765 876 657 941 q 936 701 873 812 q 999 458 999 591 q 936 219 999 328 q 765 45 873 109 q 528 -20 657 -20 q 293 44 399 -20 q 127 216 188 108 q 67 452 67 324 q 68 478 67 469 q 69 492 69 488 l 877 492 q 818 670 868 593 q 691 790 768 748 q 530 832 615 832 q 344 783 426 832 q 226 642 262 734 l 100 642 q 193 798 130 730 q 342 903 256 865 q 528 941 429 941 m 529 93 q 690 133 614 93 q 815 243 765 172 q 876 403 865 313 l 187 403 q 239 250 191 321 q 363 136 286 179 q 529 93 441 93 z "},"Ŧ":{"ha":771,"x_min":33,"x_max":737,"o":"m 737 814 l 445 814 l 445 541 l 600 541 l 600 456 l 445 456 l 445 0 l 325 0 l 325 456 l 166 456 l 166 541 l 325 541 l 325 814 l 33 814 l 33 922 l 737 922 l 737 814 z "},"Ť":{"ha":771,"x_min":33,"x_max":737,"o":"m 325 814 l 33 814 l 33 922 l 737 922 l 737 814 l 445 814 l 445 0 l 325 0 l 325 814 m 283 1155 l 384 1053 l 486 1155 l 583 1155 l 422 988 l 345 988 l 185 1155 l 283 1155 z "},"Ţ":{"ha":771,"x_min":33,"x_max":737,"o":"m 402 0 l 382 -49 q 449 -80 420 -56 q 478 -143 478 -104 q 461 -203 478 -178 q 416 -241 444 -229 q 359 -254 389 -254 q 312 -246 336 -254 q 269 -225 288 -239 l 292 -170 q 325 -185 311 -180 q 357 -190 339 -190 q 393 -178 375 -190 q 411 -140 411 -165 q 384 -100 411 -111 q 322 -88 357 -89 l 348 0 l 325 0 l 325 814 l 33 814 l 33 922 l 737 922 l 737 814 l 445 814 l 445 0 l 402 0 z "},"Ț":{"ha":771,"x_min":33,"x_max":737,"o":"m 325 814 l 33 814 l 33 922 l 737 922 l 737 814 l 445 814 l 445 0 l 325 0 l 325 814 m 290 -258 l 345 -65 l 452 -65 l 374 -261 l 290 -258 z "},"Ṭ":{"ha":771,"x_min":33,"x_max":737,"o":"m 325 814 l 33 814 l 33 922 l 737 922 l 737 814 l 445 814 l 445 0 l 325 0 l 325 814 z "},"Ú":{"ha":979,"x_min":108,"x_max":871,"o":"m 490 -19 q 295 28 382 -19 q 158 160 208 75 q 108 357 108 245 l 108 923 l 227 923 l 227 366 q 258 228 227 290 q 349 129 290 165 q 490 92 408 92 q 629 129 570 92 q 720 227 688 165 q 751 365 751 289 l 751 923 l 871 923 l 871 357 q 823 162 871 248 q 687 29 774 77 q 490 -19 600 -19 m 574 1183 l 663 1152 l 543 991 l 456 991 l 574 1183 z "},"Ŭ":{"ha":979,"x_min":108,"x_max":871,"o":"m 490 -19 q 295 28 382 -19 q 158 160 208 75 q 108 357 108 245 l 108 923 l 227 923 l 227 366 q 258 228 227 290 q 349 129 290 165 q 490 92 408 92 q 629 129 570 92 q 720 227 688 165 q 751 365 751 289 l 751 923 l 871 923 l 871 357 q 823 162 871 248 q 687 29 774 77 q 490 -19 600 -19 z "},"Û":{"ha":979,"x_min":108,"x_max":871,"o":"m 490 -19 q 295 28 382 -19 q 158 160 208 75 q 108 357 108 245 l 108 923 l 227 923 l 227 366 q 258 228 227 290 q 349 129 290 165 q 490 92 408 92 q 629 129 570 92 q 720 227 688 165 q 751 365 751 289 l 751 923 l 871 923 l 871 357 q 823 162 871 248 q 687 29 774 77 q 490 -19 600 -19 m 292 996 l 452 1162 l 529 1162 l 690 996 l 592 996 l 490 1098 l 390 996 l 292 996 z "},"Ü":{"ha":979,"x_min":108,"x_max":871,"o":"m 490 -19 q 295 28 382 -19 q 158 160 208 75 q 108 357 108 245 l 108 923 l 227 923 l 227 366 q 258 228 227 290 q 349 129 290 165 q 490 92 408 92 q 629 129 570 92 q 720 227 688 165 q 751 365 751 289 l 751 923 l 871 923 l 871 357 q 823 162 871 248 q 687 29 774 77 q 490 -19 600 -19 m 378 1017 q 332 1033 350 1017 q 314 1073 314 1049 q 332 1114 314 1097 q 378 1130 350 1130 q 424 1114 406 1130 q 442 1073 442 1097 q 424 1033 442 1049 q 378 1017 406 1017 m 606 1017 q 561 1033 578 1017 q 543 1073 543 1049 q 561 1114 543 1097 q 606 1130 578 1130 q 653 1114 635 1130 q 671 1073 671 1097 q 653 1033 671 1049 q 606 1017 635 1017 z "},"Ụ":{"ha":979,"x_min":108,"x_max":871,"o":"m 490 -19 q 295 28 382 -19 q 158 160 208 75 q 108 357 108 245 l 108 923 l 227 923 l 227 366 q 258 228 227 290 q 349 129 290 165 q 490 92 408 92 q 629 129 570 92 q 720 227 688 165 q 751 365 751 289 l 751 923 l 871 923 l 871 357 q 823 162 871 248 q 687 29 774 77 q 490 -19 600 -19 z "},"Ù":{"ha":979,"x_min":108,"x_max":871,"o":"m 490 -19 q 295 28 382 -19 q 158 160 208 75 q 108 357 108 245 l 108 923 l 227 923 l 227 366 q 258 228 227 290 q 349 129 290 165 q 490 92 408 92 q 629 129 570 92 q 720 227 688 165 q 751 365 751 289 l 751 923 l 871 923 l 871 357 q 823 162 871 248 q 687 29 774 77 q 490 -19 600 -19 m 322 1152 l 410 1183 l 529 991 l 441 991 l 322 1152 z "},"Ű":{"ha":979,"x_min":108,"x_max":871,"o":"m 490 -19 q 295 28 382 -19 q 158 160 208 75 q 108 357 108 245 l 108 923 l 227 923 l 227 366 q 258 228 227 290 q 349 129 290 165 q 490 92 408 92 q 629 129 570 92 q 720 227 688 165 q 751 365 751 289 l 751 923 l 871 923 l 871 357 q 823 162 871 248 q 687 29 774 77 q 490 -19 600 -19 m 373 1012 l 449 1187 l 545 1185 l 445 1008 l 373 1012 m 574 1012 l 650 1187 l 746 1185 l 646 1008 l 574 1012 z "},"Ū":{"ha":979,"x_min":108,"x_max":871,"o":"m 490 -19 q 295 28 382 -19 q 158 160 208 75 q 108 357 108 245 l 108 923 l 227 923 l 227 366 q 258 228 227 290 q 349 129 290 165 q 490 92 408 92 q 629 129 570 92 q 720 227 688 165 q 751 365 751 289 l 751 923 l 871 923 l 871 357 q 823 162 871 248 q 687 29 774 77 q 490 -19 600 -19 m 330 1103 l 656 1103 l 656 1031 l 330 1031 l 330 1103 z "},"Ų":{"ha":979,"x_min":108,"x_max":871,"o":"m 871 923 l 871 357 q 826 169 871 252 q 701 37 781 86 q 634 -28 659 3 q 610 -91 610 -59 q 623 -121 610 -110 q 659 -132 636 -132 q 734 -112 692 -132 l 752 -169 q 692 -199 725 -187 q 625 -210 660 -210 q 538 -183 568 -210 q 508 -113 508 -155 q 545 -16 508 -63 q 490 -19 514 -19 q 295 28 382 -19 q 158 160 208 75 q 108 357 108 245 l 108 923 l 227 923 l 227 366 q 258 228 227 290 q 349 129 290 165 q 490 92 408 92 q 629 129 570 92 q 720 227 688 165 q 751 365 751 289 l 751 923 l 871 923 z "},"Ů":{"ha":979,"x_min":108,"x_max":871,"o":"m 490 -19 q 295 28 382 -19 q 158 160 208 75 q 108 357 108 245 l 108 923 l 227 923 l 227 366 q 258 228 227 290 q 349 129 290 165 q 490 92 408 92 q 629 129 570 92 q 720 227 688 165 q 751 365 751 289 l 751 923 l 871 923 l 871 357 q 823 162 871 248 q 687 29 774 77 q 490 -19 600 -19 m 494 991 q 434 1004 460 991 q 392 1041 407 1018 q 377 1090 377 1063 q 392 1142 377 1119 q 434 1179 407 1166 q 494 1193 460 1193 q 554 1179 528 1193 q 596 1142 581 1166 q 611 1090 611 1119 q 596 1041 611 1063 q 554 1004 581 1018 q 494 991 528 991 m 494 1044 q 531 1058 516 1044 q 545 1090 545 1072 q 531 1126 545 1112 q 494 1140 516 1140 q 458 1126 473 1140 q 444 1090 444 1112 q 458 1058 444 1072 q 494 1044 473 1044 z "},"Ũ":{"ha":979,"x_min":108,"x_max":871,"o":"m 490 -19 q 295 28 382 -19 q 158 160 208 75 q 108 357 108 245 l 108 923 l 227 923 l 227 366 q 258 228 227 290 q 349 129 290 165 q 490 92 408 92 q 629 129 570 92 q 720 227 688 165 q 751 365 751 289 l 751 923 l 871 923 l 871 357 q 823 162 871 248 q 687 29 774 77 q 490 -19 600 -19 z "},"Ṿ":{"ha":924,"x_min":14,"x_max":909,"o":"m 14 922 l 141 922 l 461 155 l 463 157 l 782 922 l 909 922 l 517 0 l 406 0 l 14 922 z "},"Ẃ":{"ha":1377,"x_min":14,"x_max":1362,"o":"m 14 922 l 141 922 l 376 214 l 389 160 l 392 160 l 403 216 l 625 922 l 751 922 l 973 216 l 985 160 l 987 160 l 1002 220 l 1236 922 l 1362 922 l 1049 0 l 931 0 l 688 756 l 445 0 l 328 0 l 14 922 m 759 1183 l 848 1152 l 728 991 l 641 991 l 759 1183 z "},"Ŵ":{"ha":1377,"x_min":14,"x_max":1362,"o":"m 14 922 l 141 922 l 376 214 l 389 160 l 392 160 l 403 216 l 625 922 l 751 922 l 973 216 l 985 160 l 987 160 l 1002 220 l 1236 922 l 1362 922 l 1049 0 l 931 0 l 688 756 l 445 0 l 328 0 l 14 922 m 477 996 l 637 1162 l 714 1162 l 875 996 l 777 996 l 675 1098 l 575 996 l 477 996 z "},"Ẅ":{"ha":1377,"x_min":14,"x_max":1362,"o":"m 14 922 l 141 922 l 376 214 l 389 160 l 392 160 l 403 216 l 625 922 l 751 922 l 973 216 l 985 160 l 987 160 l 1002 220 l 1236 922 l 1362 922 l 1049 0 l 931 0 l 688 756 l 445 0 l 328 0 l 14 922 m 562 1017 q 516 1033 534 1017 q 498 1073 498 1049 q 516 1114 498 1097 q 562 1130 534 1130 q 609 1114 591 1130 q 627 1073 627 1097 q 609 1033 627 1049 q 562 1017 591 1017 m 791 1017 q 745 1033 763 1017 q 728 1073 728 1049 q 745 1114 728 1097 q 791 1130 763 1130 q 837 1114 819 1130 q 855 1073 855 1097 q 837 1033 855 1049 q 791 1017 819 1017 z "},"Ẉ":{"ha":1377,"x_min":14,"x_max":1362,"o":"m 14 922 l 141 922 l 376 214 l 389 160 l 392 160 l 403 216 l 625 922 l 751 922 l 973 216 l 985 160 l 987 160 l 1002 220 l 1236 922 l 1362 922 l 1049 0 l 931 0 l 688 756 l 445 0 l 328 0 l 14 922 z "},"Ẁ":{"ha":1377,"x_min":14,"x_max":1362,"o":"m 14 922 l 141 922 l 376 214 l 389 160 l 392 160 l 403 216 l 625 922 l 751 922 l 973 216 l 985 160 l 987 160 l 1002 220 l 1236 922 l 1362 922 l 1049 0 l 931 0 l 688 756 l 445 0 l 328 0 l 14 922 m 507 1152 l 595 1183 l 713 991 l 626 991 l 507 1152 z "},"Ý":{"ha":893,"x_min":14,"x_max":879,"o":"m 387 353 l 14 922 l 155 922 l 446 461 l 447 461 l 736 922 l 879 922 l 506 354 l 507 0 l 387 0 l 387 353 m 528 1183 l 617 1152 l 497 991 l 410 991 l 528 1183 z "},"Ŷ":{"ha":893,"x_min":14,"x_max":879,"o":"m 387 353 l 14 922 l 155 922 l 446 461 l 447 461 l 736 922 l 879 922 l 506 354 l 507 0 l 387 0 l 387 353 m 246 996 l 406 1162 l 483 1162 l 644 996 l 546 996 l 444 1098 l 344 996 l 246 996 z "},"Ÿ":{"ha":893,"x_min":14,"x_max":879,"o":"m 387 353 l 14 922 l 155 922 l 446 461 l 447 461 l 736 922 l 879 922 l 506 354 l 507 0 l 387 0 l 387 353 m 332 1017 q 286 1033 304 1017 q 268 1073 268 1049 q 286 1114 268 1097 q 332 1130 304 1130 q 378 1114 360 1130 q 396 1073 396 1097 q 378 1033 396 1049 q 332 1017 360 1017 m 560 1017 q 515 1033 532 1017 q 497 1073 497 1049 q 515 1114 497 1097 q 560 1130 532 1130 q 607 1114 589 1130 q 625 1073 625 1097 q 607 1033 625 1049 q 560 1017 589 1017 z "},"Ỵ":{"ha":893,"x_min":14,"x_max":879,"o":"m 387 353 l 14 922 l 155 922 l 446 461 l 447 461 l 736 922 l 879 922 l 506 354 l 507 0 l 387 0 l 387 353 z "},"Ỳ":{"ha":893,"x_min":14,"x_max":879,"o":"m 387 353 l 14 922 l 155 922 l 446 461 l 447 461 l 736 922 l 879 922 l 506 354 l 507 0 l 387 0 l 387 353 m 275 1152 l 363 1183 l 482 991 l 395 991 l 275 1152 z "},"Ȳ":{"ha":893,"x_min":14,"x_max":879,"o":"m 387 353 l 14 922 l 155 922 l 446 461 l 447 461 l 736 922 l 879 922 l 506 354 l 507 0 l 387 0 l 387 353 m 283 1103 l 610 1103 l 610 1031 l 283 1031 l 283 1103 z "},"Ỹ":{"ha":893,"x_min":14,"x_max":879,"o":"m 387 353 l 14 922 l 155 922 l 446 461 l 447 461 l 736 922 l 879 922 l 506 354 l 507 0 l 387 0 l 387 353 m 628 1101 q 504 994 581 994 q 458 1001 480 994 q 410 1022 437 1008 q 376 1037 389 1032 q 353 1042 364 1042 q 321 1032 336 1042 q 295 998 307 1022 l 252 1032 q 295 1094 269 1072 q 355 1115 321 1115 q 378 1113 366 1115 q 409 1104 395 1110 q 445 1089 424 1099 q 479 1074 467 1079 q 505 1069 492 1069 q 584 1135 551 1069 l 628 1101 z "},"Ź":{"ha":846,"x_min":50,"x_max":801,"o":"m 50 92 l 617 820 l 79 820 l 79 922 l 775 922 l 775 832 l 208 102 l 801 102 l 801 0 l 52 0 l 50 92 m 512 1183 l 601 1152 l 481 991 l 394 991 l 512 1183 z "},"Ž":{"ha":846,"x_min":50,"x_max":801,"o":"m 50 92 l 617 820 l 79 820 l 79 922 l 775 922 l 775 832 l 208 102 l 801 102 l 801 0 l 52 0 l 50 92 m 330 1155 l 430 1053 l 532 1155 l 629 1155 l 469 988 l 391 988 l 231 1155 l 330 1155 z "},"Ż":{"ha":846,"x_min":50,"x_max":801,"o":"m 50 92 l 617 820 l 79 820 l 79 922 l 775 922 l 775 832 l 208 102 l 801 102 l 801 0 l 52 0 l 50 92 m 431 1015 q 386 1031 404 1015 q 368 1072 368 1048 q 386 1113 368 1096 q 431 1129 404 1129 q 478 1113 460 1129 q 496 1072 496 1097 q 477 1032 496 1048 q 431 1015 459 1015 z "},"Ẓ":{"ha":846,"x_min":50,"x_max":801,"o":"m 50 92 l 617 820 l 79 820 l 79 922 l 775 922 l 775 832 l 208 102 l 801 102 l 801 0 l 52 0 l 50 92 z "},"á":{"ha":886,"x_min":54,"x_max":774,"o":"m 388 -20 q 218 29 295 -20 q 98 162 142 78 q 54 346 54 245 q 98 529 54 446 q 218 662 142 613 q 387 711 295 711 q 553 666 480 711 q 662 543 627 621 l 662 692 l 774 692 l 774 0 l 662 0 l 662 147 q 553 25 627 70 q 388 -20 480 -20 m 414 90 q 537 123 481 90 q 625 216 593 157 q 658 346 658 275 q 625 475 658 416 q 536 568 592 534 q 414 602 481 602 q 291 569 347 602 q 202 477 235 536 q 170 346 170 419 q 202 213 170 271 q 291 122 235 155 q 414 90 347 90 m 531 971 l 620 941 l 508 779 l 427 779 l 531 971 z "},"ă":{"ha":886,"x_min":54,"x_max":774,"o":"m 388 -20 q 218 29 295 -20 q 98 162 142 78 q 54 346 54 245 q 98 529 54 446 q 218 662 142 613 q 387 711 295 711 q 553 666 480 711 q 662 543 627 621 l 662 692 l 774 692 l 774 0 l 662 0 l 662 147 q 553 25 627 70 q 388 -20 480 -20 m 414 90 q 537 123 481 90 q 625 216 593 157 q 658 346 658 275 q 625 475 658 416 q 536 568 592 534 q 414 602 481 602 q 291 569 347 602 q 202 477 235 536 q 170 346 170 419 q 202 213 170 271 q 291 122 235 155 q 414 90 347 90 z "},"â":{"ha":886,"x_min":54,"x_max":774,"o":"m 388 -20 q 218 29 295 -20 q 98 162 142 78 q 54 346 54 245 q 98 529 54 446 q 218 662 142 613 q 387 711 295 711 q 553 666 480 711 q 662 543 627 621 l 662 692 l 774 692 l 774 0 l 662 0 l 662 147 q 553 25 627 70 q 388 -20 480 -20 m 414 90 q 537 123 481 90 q 625 216 593 157 q 658 346 658 275 q 625 475 658 416 q 536 568 592 534 q 414 602 481 602 q 291 569 347 602 q 202 477 235 536 q 170 346 170 419 q 202 213 170 271 q 291 122 235 155 q 414 90 347 90 m 257 778 l 416 945 l 494 945 l 654 778 l 557 777 l 455 880 l 355 777 l 257 778 z "},"ä":{"ha":886,"x_min":54,"x_max":774,"o":"m 388 -20 q 218 29 295 -20 q 98 162 142 78 q 54 346 54 245 q 98 529 54 446 q 218 662 142 613 q 387 711 295 711 q 553 666 480 711 q 662 543 627 621 l 662 692 l 774 692 l 774 0 l 662 0 l 662 147 q 553 25 627 70 q 388 -20 480 -20 m 414 90 q 537 123 481 90 q 625 216 593 157 q 658 346 658 275 q 625 475 658 416 q 536 568 592 534 q 414 602 481 602 q 291 569 347 602 q 202 477 235 536 q 170 346 170 419 q 202 213 170 271 q 291 122 235 155 q 414 90 347 90 m 338 805 q 293 821 311 805 q 275 861 275 838 q 293 902 275 886 q 338 918 311 918 q 385 902 367 918 q 403 861 403 886 q 385 821 403 838 q 338 805 367 805 m 567 805 q 522 821 539 805 q 504 861 504 838 q 522 902 504 886 q 567 918 539 918 q 613 902 595 918 q 631 861 631 886 q 613 821 631 838 q 567 805 595 805 z "},"ạ":{"ha":886,"x_min":54,"x_max":774,"o":"m 388 -20 q 218 29 295 -20 q 98 162 142 78 q 54 346 54 245 q 98 529 54 446 q 218 662 142 613 q 387 711 295 711 q 553 666 480 711 q 662 543 627 621 l 662 692 l 774 692 l 774 0 l 662 0 l 662 147 q 553 25 627 70 q 388 -20 480 -20 m 414 90 q 537 123 481 90 q 625 216 593 157 q 658 346 658 275 q 625 475 658 416 q 536 568 592 534 q 414 602 481 602 q 291 569 347 602 q 202 477 235 536 q 170 346 170 419 q 202 213 170 271 q 291 122 235 155 q 414 90 347 90 z "},"à":{"ha":886,"x_min":54,"x_max":774,"o":"m 388 -20 q 218 29 295 -20 q 98 162 142 78 q 54 346 54 245 q 98 529 54 446 q 218 662 142 613 q 387 711 295 711 q 553 666 480 711 q 662 543 627 621 l 662 692 l 774 692 l 774 0 l 662 0 l 662 147 q 553 25 627 70 q 388 -20 480 -20 m 414 90 q 537 123 481 90 q 625 216 593 157 q 658 346 658 275 q 625 475 658 416 q 536 568 592 534 q 414 602 481 602 q 291 569 347 602 q 202 477 235 536 q 170 346 170 419 q 202 213 170 271 q 291 122 235 155 q 414 90 347 90 m 288 941 l 376 971 l 481 779 l 400 779 l 288 941 z "},"ā":{"ha":886,"x_min":54,"x_max":774,"o":"m 388 -20 q 218 29 295 -20 q 98 162 142 78 q 54 346 54 245 q 98 529 54 446 q 218 662 142 613 q 387 711 295 711 q 553 666 480 711 q 662 543 627 621 l 662 692 l 774 692 l 774 0 l 662 0 l 662 147 q 553 25 627 70 q 388 -20 480 -20 m 414 90 q 537 123 481 90 q 625 216 593 157 q 658 346 658 275 q 625 475 658 416 q 536 568 592 534 q 414 602 481 602 q 291 569 347 602 q 202 477 235 536 q 170 346 170 419 q 202 213 170 271 q 291 122 235 155 q 414 90 347 90 m 271 888 l 648 888 l 648 815 l 271 815 l 271 888 z "},"ą":{"ha":886,"x_min":54,"x_max":774,"o":"m 759 -12 q 693 -63 720 -41 q 648 -113 667 -86 q 629 -168 629 -140 q 643 -198 629 -187 q 679 -209 656 -209 q 753 -189 711 -209 l 772 -246 q 712 -276 745 -264 q 645 -288 680 -288 q 557 -260 587 -288 q 528 -190 528 -233 q 572 -84 528 -131 q 686 0 617 -37 l 662 0 l 662 147 q 553 25 627 70 q 388 -20 480 -20 q 218 29 295 -20 q 98 162 142 78 q 54 346 54 245 q 98 529 54 446 q 218 662 142 613 q 387 711 295 711 q 553 666 480 711 q 662 543 627 621 l 662 692 l 774 692 l 774 0 l 759 -12 m 414 90 q 537 123 481 90 q 625 216 593 157 q 658 346 658 275 q 625 475 658 416 q 536 568 592 534 q 414 602 481 602 q 291 569 347 602 q 202 477 235 536 q 170 346 170 419 q 202 213 170 271 q 291 122 235 155 q 414 90 347 90 z "},"å":{"ha":886,"x_min":54,"x_max":774,"o":"m 388 -20 q 218 29 295 -20 q 98 162 142 78 q 54 346 54 245 q 98 529 54 446 q 218 662 142 613 q 387 711 295 711 q 553 666 480 711 q 662 543 627 621 l 662 692 l 774 692 l 774 0 l 662 0 l 662 147 q 553 25 627 70 q 388 -20 480 -20 m 414 90 q 537 123 481 90 q 625 216 593 157 q 658 346 658 275 q 625 475 658 416 q 536 568 592 534 q 414 602 481 602 q 291 569 347 602 q 202 477 235 536 q 170 346 170 419 q 202 213 170 271 q 291 122 235 155 q 414 90 347 90 z "},"ǻ":{"ha":886,"x_min":54,"x_max":774,"o":"m 388 -20 q 218 29 295 -20 q 98 162 142 78 q 54 346 54 245 q 98 529 54 446 q 218 662 142 613 q 387 711 295 711 q 553 666 480 711 q 662 543 627 621 l 662 692 l 774 692 l 774 0 l 662 0 l 662 147 q 553 25 627 70 q 388 -20 480 -20 m 414 90 q 537 123 481 90 q 625 216 593 157 q 658 346 658 275 q 625 475 658 416 q 536 568 592 534 q 414 602 481 602 q 291 569 347 602 q 202 477 235 536 q 170 346 170 419 q 202 213 170 271 q 291 122 235 155 q 414 90 347 90 m 533 1208 l 622 1178 l 510 1017 l 429 1017 l 533 1208 z "},"ã":{"ha":886,"x_min":54,"x_max":774,"o":"m 388 -20 q 218 29 295 -20 q 98 162 142 78 q 54 346 54 245 q 98 529 54 446 q 218 662 142 613 q 387 711 295 711 q 553 666 480 711 q 662 543 627 621 l 662 692 l 774 692 l 774 0 l 662 0 l 662 147 q 553 25 627 70 q 388 -20 480 -20 m 414 90 q 537 123 481 90 q 625 216 593 157 q 658 346 658 275 q 625 475 658 416 q 536 568 592 534 q 414 602 481 602 q 291 569 347 602 q 202 477 235 536 q 170 346 170 419 q 202 213 170 271 q 291 122 235 155 q 414 90 347 90 z "},"ǽ":{"ha":1399,"x_min":54,"x_max":1357,"o":"m 1357 363 q 1354 315 1357 349 l 781 315 q 821 196 787 248 q 905 117 854 145 q 1013 90 956 90 q 1132 120 1082 90 q 1204 208 1181 150 l 1335 208 q 1269 93 1315 144 q 1157 11 1223 41 q 1015 -19 1091 -19 q 883 6 945 -19 q 774 78 821 32 l 774 0 l 662 0 l 662 147 q 553 25 627 70 q 388 -20 480 -20 q 218 29 295 -20 q 98 162 142 78 q 54 346 54 245 q 98 529 54 446 q 218 662 142 613 q 387 711 295 711 q 553 666 480 711 q 662 543 627 621 l 662 692 l 774 692 l 774 614 q 883 686 821 661 q 1015 711 945 711 q 1190 664 1112 711 q 1313 536 1268 616 q 1357 363 1357 456 m 414 90 q 537 123 481 90 q 625 216 593 157 q 658 346 658 275 q 625 475 658 416 q 536 568 592 534 q 414 602 481 602 q 291 569 347 602 q 202 477 235 536 q 170 346 170 419 q 202 213 170 271 q 291 122 235 155 q 414 90 347 90 m 1238 418 q 1203 509 1234 467 q 1121 576 1172 551 q 1013 602 1071 602 q 913 580 960 602 q 832 517 866 559 q 786 418 799 476 l 1238 418 m 810 971 l 899 941 l 787 779 l 706 779 l 810 971 z "},"ḅ":{"ha":901,"x_min":112,"x_max":831,"o":"m 492 -20 q 333 25 406 -20 q 224 147 261 70 l 224 0 l 112 0 l 112 955 l 229 955 l 229 641 l 227 546 q 289 631 250 593 q 380 689 328 668 q 490 711 432 711 q 664 662 586 711 q 787 529 742 613 q 831 346 831 446 q 787 162 831 245 q 664 29 742 78 q 492 -20 587 -20 m 471 89 q 594 121 538 89 q 683 213 650 154 q 715 346 715 271 q 683 477 715 419 q 594 569 650 536 q 471 602 538 602 q 349 568 405 602 q 260 475 293 534 q 228 346 228 416 q 261 215 228 274 q 350 122 294 156 q 471 89 406 89 z "},"ć":{"ha":782,"x_min":54,"x_max":739,"o":"m 407 -20 q 228 30 309 -20 q 100 162 147 79 q 54 346 54 246 q 100 529 54 446 q 228 662 147 613 q 407 711 309 711 q 555 680 488 711 q 670 593 623 648 q 739 465 718 537 l 618 465 q 536 566 592 531 q 408 602 479 602 q 292 570 347 602 q 204 480 237 538 q 170 346 170 422 q 204 211 170 269 q 292 121 237 153 q 408 90 347 90 q 536 126 479 90 q 618 232 592 163 l 738 232 q 671 100 718 157 q 556 12 624 43 q 407 -20 488 -20 m 488 971 l 577 941 l 465 779 l 384 779 l 488 971 z "},"č":{"ha":782,"x_min":54,"x_max":739,"o":"m 407 -20 q 228 30 309 -20 q 100 162 147 79 q 54 346 54 246 q 100 529 54 446 q 228 662 147 613 q 407 711 309 711 q 555 680 488 711 q 670 593 623 648 q 739 465 718 537 l 618 465 q 536 566 592 531 q 408 602 479 602 q 292 570 347 602 q 204 480 237 538 q 170 346 170 422 q 204 211 170 269 q 292 121 237 153 q 408 90 347 90 q 536 126 479 90 q 618 232 592 163 l 738 232 q 671 100 718 157 q 556 12 624 43 q 407 -20 488 -20 m 312 948 l 412 846 l 514 948 l 612 948 l 451 781 l 374 781 l 214 948 l 312 948 z "},"ç":{"ha":782,"x_min":54,"x_max":739,"o":"m 408 90 q 536 126 479 90 q 618 232 592 163 l 738 232 q 674 105 719 160 q 566 17 630 50 q 426 -19 503 -16 l 411 -56 q 478 -87 449 -63 q 507 -151 507 -112 q 489 -211 507 -186 q 445 -249 472 -236 q 388 -261 418 -261 q 340 -254 364 -261 q 297 -233 317 -246 l 321 -178 q 353 -193 339 -188 q 385 -197 368 -197 q 421 -185 404 -197 q 439 -147 439 -173 q 413 -107 439 -119 q 351 -96 386 -96 l 374 -18 q 210 40 283 -10 q 95 171 137 91 q 54 346 54 252 q 100 529 54 446 q 228 662 147 613 q 407 711 309 711 q 555 680 488 711 q 670 593 623 648 q 739 465 718 537 l 618 465 q 536 566 592 531 q 408 602 479 602 q 292 570 347 602 q 204 480 237 538 q 170 346 170 422 q 204 211 170 269 q 292 121 237 153 q 408 90 347 90 z "},"ĉ":{"ha":782,"x_min":54,"x_max":739,"o":"m 407 -20 q 228 30 309 -20 q 100 162 147 79 q 54 346 54 246 q 100 529 54 446 q 228 662 147 613 q 407 711 309 711 q 555 680 488 711 q 670 593 623 648 q 739 465 718 537 l 618 465 q 536 566 592 531 q 408 602 479 602 q 292 570 347 602 q 204 480 237 538 q 170 346 170 422 q 204 211 170 269 q 292 121 237 153 q 408 90 347 90 q 536 126 479 90 q 618 232 592 163 l 738 232 q 671 100 718 157 q 556 12 624 43 q 407 -20 488 -20 m 214 778 l 374 945 l 451 945 l 612 778 l 514 777 l 412 880 l 312 777 l 214 778 z "},"ċ":{"ha":782,"x_min":54,"x_max":739,"o":"m 407 -20 q 228 30 309 -20 q 100 162 147 79 q 54 346 54 246 q 100 529 54 446 q 228 662 147 613 q 407 711 309 711 q 555 680 488 711 q 670 593 623 648 q 739 465 718 537 l 618 465 q 536 566 592 531 q 408 602 479 602 q 292 570 347 602 q 204 480 237 538 q 170 346 170 422 q 204 211 170 269 q 292 121 237 153 q 408 90 347 90 q 536 126 479 90 q 618 232 592 163 l 738 232 q 671 100 718 157 q 556 12 624 43 q 407 -20 488 -20 m 415 804 q 369 820 387 804 q 351 860 351 836 q 369 901 351 884 q 415 918 387 918 q 461 901 444 918 q 479 860 479 885 q 461 820 479 837 q 415 804 443 804 z "},"ď":{"ha":979,"x_min":54,"x_max":963,"o":"m 394 -20 q 220 29 298 -20 q 98 162 142 78 q 54 346 54 245 q 98 530 54 446 q 220 663 142 614 q 395 711 298 711 q 509 688 456 711 q 600 628 562 665 q 659 546 638 590 l 656 613 l 656 955 l 773 955 l 773 0 l 661 0 l 661 147 q 600 62 639 100 q 508 2 560 24 q 394 -20 455 -20 m 413 89 q 536 123 480 89 q 625 216 592 157 q 658 346 658 275 q 625 475 658 416 q 536 568 593 534 q 413 602 480 602 q 290 569 346 602 q 202 476 234 535 q 170 346 170 418 q 201 215 170 274 q 289 123 233 157 q 413 89 345 89 m 877 955 l 963 955 l 951 701 l 886 701 l 877 955 z "},"đ":{"ha":904,"x_min":54,"x_max":903,"o":"m 903 788 l 773 788 l 773 0 l 661 0 l 661 147 q 600 62 639 100 q 508 2 560 24 q 394 -20 455 -20 q 220 29 298 -20 q 98 162 142 78 q 54 346 54 245 q 98 530 54 446 q 220 663 142 614 q 395 711 298 711 q 509 688 456 711 q 600 628 562 665 q 659 546 638 590 l 656 613 l 656 788 l 464 788 l 464 869 l 656 869 l 656 955 l 773 955 l 773 869 l 903 869 l 903 788 m 413 89 q 536 123 480 89 q 625 216 592 157 q 658 346 658 275 q 625 475 658 416 q 536 568 593 534 q 413 602 480 602 q 290 569 346 602 q 202 476 234 535 q 170 346 170 418 q 201 215 170 274 q 289 123 233 157 q 413 89 345 89 z "},"ḍ":{"ha":885,"x_min":54,"x_max":773,"o":"m 394 -20 q 220 29 298 -20 q 98 162 142 78 q 54 346 54 245 q 98 530 54 446 q 220 663 142 614 q 395 711 298 711 q 509 688 456 711 q 600 628 562 665 q 659 546 638 590 l 656 613 l 656 955 l 773 955 l 773 0 l 661 0 l 661 147 q 600 62 639 100 q 508 2 560 24 q 394 -20 455 -20 m 413 89 q 536 123 480 89 q 625 216 592 157 q 658 346 658 275 q 625 475 658 416 q 536 568 593 534 q 413 602 480 602 q 290 569 346 602 q 202 476 234 535 q 170 346 170 418 q 201 215 170 274 q 289 123 233 157 q 413 89 345 89 z "},"é":{"ha":790,"x_min":54,"x_max":747,"o":"m 747 363 q 745 315 747 353 l 172 315 q 212 196 178 248 q 295 117 245 145 q 403 90 346 90 q 522 120 473 90 q 595 208 572 150 l 726 208 q 660 93 706 144 q 548 11 614 41 q 406 -19 482 -19 q 227 30 307 -19 q 100 162 146 79 q 54 346 54 245 q 100 530 54 446 q 227 663 146 614 q 406 711 307 711 q 581 664 503 711 q 703 536 659 616 q 747 363 747 456 m 628 418 q 593 509 625 467 q 512 576 562 551 q 404 602 461 602 q 304 580 351 602 q 223 517 257 559 q 177 418 190 476 l 628 418 m 473 971 l 562 941 l 450 779 l 368 779 l 473 971 z "},"ĕ":{"ha":790,"x_min":54,"x_max":747,"o":"m 747 363 q 745 315 747 353 l 172 315 q 212 196 178 248 q 295 117 245 145 q 403 90 346 90 q 522 120 473 90 q 595 208 572 150 l 726 208 q 660 93 706 144 q 548 11 614 41 q 406 -19 482 -19 q 227 30 307 -19 q 100 162 146 79 q 54 346 54 245 q 100 530 54 446 q 227 663 146 614 q 406 711 307 711 q 581 664 503 711 q 703 536 659 616 q 747 363 747 456 m 628 418 q 593 509 625 467 q 512 576 562 551 q 404 602 461 602 q 304 580 351 602 q 223 517 257 559 q 177 418 190 476 l 628 418 z "},"ě":{"ha":790,"x_min":54,"x_max":747,"o":"m 747 363 q 745 315 747 353 l 172 315 q 212 196 178 248 q 295 117 245 145 q 403 90 346 90 q 522 120 473 90 q 595 208 572 150 l 726 208 q 660 93 706 144 q 548 11 614 41 q 406 -19 482 -19 q 227 30 307 -19 q 100 162 146 79 q 54 346 54 245 q 100 530 54 446 q 227 663 146 614 q 406 711 307 711 q 581 664 503 711 q 703 536 659 616 q 747 363 747 456 m 628 418 q 593 509 625 467 q 512 576 562 551 q 404 602 461 602 q 304 580 351 602 q 223 517 257 559 q 177 418 190 476 l 628 418 m 296 948 l 397 846 l 498 948 l 596 948 l 435 781 l 358 781 l 199 948 l 296 948 z "},"ê":{"ha":790,"x_min":54,"x_max":747,"o":"m 747 363 q 745 315 747 353 l 172 315 q 212 196 178 248 q 295 117 245 145 q 403 90 346 90 q 522 120 473 90 q 595 208 572 150 l 726 208 q 660 93 706 144 q 548 11 614 41 q 406 -19 482 -19 q 227 30 307 -19 q 100 162 146 79 q 54 346 54 245 q 100 530 54 446 q 227 663 146 614 q 406 711 307 711 q 581 664 503 711 q 703 536 659 616 q 747 363 747 456 m 628 418 q 593 509 625 467 q 512 576 562 551 q 404 602 461 602 q 304 580 351 602 q 223 517 257 559 q 177 418 190 476 l 628 418 m 199 778 l 358 945 l 435 945 l 596 778 l 498 777 l 397 880 l 296 777 l 199 778 z "},"ë":{"ha":790,"x_min":54,"x_max":747,"o":"m 747 363 q 745 315 747 353 l 172 315 q 212 196 178 248 q 295 117 245 145 q 403 90 346 90 q 522 120 473 90 q 595 208 572 150 l 726 208 q 660 93 706 144 q 548 11 614 41 q 406 -19 482 -19 q 227 30 307 -19 q 100 162 146 79 q 54 346 54 245 q 100 530 54 446 q 227 663 146 614 q 406 711 307 711 q 581 664 503 711 q 703 536 659 616 q 747 363 747 456 m 628 418 q 593 509 625 467 q 512 576 562 551 q 404 602 461 602 q 304 580 351 602 q 223 517 257 559 q 177 418 190 476 l 628 418 m 281 805 q 235 821 253 805 q 217 861 217 838 q 235 902 217 886 q 281 918 253 918 q 327 902 309 918 q 345 861 345 886 q 327 821 345 838 q 281 805 309 805 m 509 805 q 464 821 481 805 q 446 861 446 838 q 464 902 446 886 q 509 918 481 918 q 556 902 538 918 q 574 861 574 886 q 556 821 574 838 q 509 805 538 805 z "},"ė":{"ha":790,"x_min":54,"x_max":747,"o":"m 747 363 q 745 315 747 353 l 172 315 q 212 196 178 248 q 295 117 245 145 q 403 90 346 90 q 522 120 473 90 q 595 208 572 150 l 726 208 q 660 93 706 144 q 548 11 614 41 q 406 -19 482 -19 q 227 30 307 -19 q 100 162 146 79 q 54 346 54 245 q 100 530 54 446 q 227 663 146 614 q 406 711 307 711 q 581 664 503 711 q 703 536 659 616 q 747 363 747 456 m 628 418 q 593 509 625 467 q 512 576 562 551 q 404 602 461 602 q 304 580 351 602 q 223 517 257 559 q 177 418 190 476 l 628 418 m 399 804 q 354 820 372 804 q 336 860 336 836 q 354 901 336 884 q 399 918 372 918 q 446 901 428 918 q 464 860 464 885 q 446 820 464 837 q 399 804 427 804 z "},"ẹ":{"ha":790,"x_min":54,"x_max":747,"o":"m 747 363 q 745 315 747 353 l 172 315 q 212 196 178 248 q 295 117 245 145 q 403 90 346 90 q 522 120 473 90 q 595 208 572 150 l 726 208 q 660 93 706 144 q 548 11 614 41 q 406 -19 482 -19 q 227 30 307 -19 q 100 162 146 79 q 54 346 54 245 q 100 530 54 446 q 227 663 146 614 q 406 711 307 711 q 581 664 503 711 q 703 536 659 616 q 747 363 747 456 m 628 418 q 593 509 625 467 q 512 576 562 551 q 404 602 461 602 q 304 580 351 602 q 223 517 257 559 q 177 418 190 476 l 628 418 z "},"è":{"ha":790,"x_min":54,"x_max":747,"o":"m 747 363 q 745 315 747 353 l 172 315 q 212 196 178 248 q 295 117 245 145 q 403 90 346 90 q 522 120 473 90 q 595 208 572 150 l 726 208 q 660 93 706 144 q 548 11 614 41 q 406 -19 482 -19 q 227 30 307 -19 q 100 162 146 79 q 54 346 54 245 q 100 530 54 446 q 227 663 146 614 q 406 711 307 711 q 581 664 503 711 q 703 536 659 616 q 747 363 747 456 m 628 418 q 593 509 625 467 q 512 576 562 551 q 404 602 461 602 q 304 580 351 602 q 223 517 257 559 q 177 418 190 476 l 628 418 m 230 941 l 318 971 l 422 779 l 342 779 l 230 941 z "},"ē":{"ha":790,"x_min":54,"x_max":747,"o":"m 747 363 q 745 315 747 353 l 172 315 q 212 196 178 248 q 295 117 245 145 q 403 90 346 90 q 522 120 473 90 q 595 208 572 150 l 726 208 q 660 93 706 144 q 548 11 614 41 q 406 -19 482 -19 q 227 30 307 -19 q 100 162 146 79 q 54 346 54 245 q 100 530 54 446 q 227 663 146 614 q 406 711 307 711 q 581 664 503 711 q 703 536 659 616 q 747 363 747 456 m 628 418 q 593 509 625 467 q 512 576 562 551 q 404 602 461 602 q 304 580 351 602 q 223 517 257 559 q 177 418 190 476 l 628 418 m 212 888 l 590 888 l 590 815 l 212 815 l 212 888 z "},"ę":{"ha":790,"x_min":54,"x_max":747,"o":"m 747 363 q 745 315 747 353 l 172 315 q 212 196 178 248 q 295 117 245 145 q 403 90 346 90 q 522 120 473 90 q 595 208 572 150 l 726 208 q 669 104 708 151 q 576 26 631 56 q 500 -45 529 -12 q 472 -113 472 -79 q 485 -142 472 -132 q 522 -153 498 -153 q 596 -134 554 -153 l 614 -191 q 555 -220 587 -209 q 488 -232 522 -232 q 400 -204 430 -232 q 370 -134 370 -177 q 425 -18 370 -74 q 406 -19 418 -19 q 227 30 307 -19 q 100 162 146 79 q 54 346 54 245 q 100 530 54 446 q 227 663 146 614 q 406 711 307 711 q 581 664 503 711 q 703 536 659 616 q 747 363 747 456 m 628 418 q 593 509 625 467 q 512 576 562 551 q 404 602 461 602 q 304 580 351 602 q 223 517 257 559 q 177 418 190 476 l 628 418 z "},"ẽ":{"ha":790,"x_min":54,"x_max":747,"o":"m 747 363 q 745 315 747 353 l 172 315 q 212 196 178 248 q 295 117 245 145 q 403 90 346 90 q 522 120 473 90 q 595 208 572 150 l 726 208 q 660 93 706 144 q 548 11 614 41 q 406 -19 482 -19 q 227 30 307 -19 q 100 162 146 79 q 54 346 54 245 q 100 530 54 446 q 227 663 146 614 q 406 711 307 711 q 581 664 503 711 q 703 536 659 616 q 747 363 747 456 m 628 418 q 593 509 625 467 q 512 576 562 551 q 404 602 461 602 q 304 580 351 602 q 223 517 257 559 q 177 418 190 476 l 628 418 z "},"ə":{"ha":790,"x_min":43,"x_max":736,"o":"m 385 711 q 564 662 483 711 q 690 530 644 613 q 736 346 736 446 q 690 162 736 246 q 563 29 644 78 q 385 -20 483 -20 q 209 28 288 -20 q 87 156 131 76 q 43 329 43 236 q 45 376 43 339 l 618 376 q 578 496 612 444 q 495 575 545 547 q 387 602 445 602 q 268 572 317 602 q 195 484 218 542 l 64 484 q 130 599 84 547 q 242 681 176 651 q 385 711 308 711 m 387 90 q 486 112 439 90 q 567 174 533 133 q 613 273 600 216 l 162 273 q 197 182 165 224 q 278 115 228 140 q 387 90 329 90 z "},"ğ":{"ha":886,"x_min":54,"x_max":774,"o":"m 415 -260 q 231 -224 304 -260 q 122 -130 158 -188 q 83 -4 87 -72 l 193 -4 q 257 -117 205 -74 q 415 -161 310 -161 q 556 -126 500 -161 q 636 -35 611 -92 q 662 90 662 21 l 662 175 q 554 55 626 98 q 393 13 483 13 q 220 59 298 13 q 98 185 142 106 q 54 359 54 264 q 98 533 54 452 q 219 663 142 614 q 390 711 296 711 q 508 688 454 711 q 602 628 562 666 q 662 543 641 590 l 662 692 l 774 692 l 774 93 q 734 -86 774 -6 q 613 -213 694 -166 q 415 -260 532 -260 m 414 116 q 536 149 480 116 q 625 237 592 182 q 658 359 658 293 q 625 479 658 424 q 537 568 593 535 q 414 602 481 602 q 291 570 347 602 q 202 483 235 538 q 170 359 170 427 q 202 235 170 291 q 291 148 235 180 q 414 116 347 116 z "},"ǧ":{"ha":886,"x_min":54,"x_max":774,"o":"m 415 -260 q 231 -224 304 -260 q 122 -130 158 -188 q 83 -4 87 -72 l 193 -4 q 257 -117 205 -74 q 415 -161 310 -161 q 556 -126 500 -161 q 636 -35 611 -92 q 662 90 662 21 l 662 175 q 554 55 626 98 q 393 13 483 13 q 220 59 298 13 q 98 185 142 106 q 54 359 54 264 q 98 533 54 452 q 219 663 142 614 q 390 711 296 711 q 508 688 454 711 q 602 628 562 666 q 662 543 641 590 l 662 692 l 774 692 l 774 93 q 734 -86 774 -6 q 613 -213 694 -166 q 415 -260 532 -260 m 414 116 q 536 149 480 116 q 625 237 592 182 q 658 359 658 293 q 625 479 658 424 q 537 568 593 535 q 414 602 481 602 q 291 570 347 602 q 202 483 235 538 q 170 359 170 427 q 202 235 170 291 q 291 148 235 180 q 414 116 347 116 m 290 947 l 390 845 l 492 947 l 589 947 l 429 781 l 351 781 l 192 947 l 290 947 z "},"ĝ":{"ha":886,"x_min":54,"x_max":774,"o":"m 415 -260 q 231 -224 304 -260 q 122 -130 158 -188 q 83 -4 87 -72 l 193 -4 q 257 -117 205 -74 q 415 -161 310 -161 q 556 -126 500 -161 q 636 -35 611 -92 q 662 90 662 21 l 662 175 q 554 55 626 98 q 393 13 483 13 q 220 59 298 13 q 98 185 142 106 q 54 359 54 264 q 98 533 54 452 q 219 663 142 614 q 390 711 296 711 q 508 688 454 711 q 602 628 562 666 q 662 543 641 590 l 662 692 l 774 692 l 774 93 q 734 -86 774 -6 q 613 -213 694 -166 q 415 -260 532 -260 m 414 116 q 536 149 480 116 q 625 237 592 182 q 658 359 658 293 q 625 479 658 424 q 537 568 593 535 q 414 602 481 602 q 291 570 347 602 q 202 483 235 538 q 170 359 170 427 q 202 235 170 291 q 291 148 235 180 q 414 116 347 116 m 193 777 l 352 944 l 429 944 l 590 777 l 492 777 l 391 879 l 290 777 l 193 777 z "},"ģ":{"ha":886,"x_min":54,"x_max":774,"o":"m 415 -260 q 231 -224 304 -260 q 122 -130 158 -188 q 83 -4 87 -72 l 193 -4 q 257 -117 205 -74 q 415 -161 310 -161 q 556 -126 500 -161 q 636 -35 611 -92 q 662 90 662 21 l 662 175 q 554 55 626 98 q 393 13 483 13 q 220 59 298 13 q 98 185 142 106 q 54 359 54 264 q 98 533 54 452 q 219 663 142 614 q 390 711 296 711 q 508 688 454 711 q 602 628 562 666 q 662 543 641 590 l 662 692 l 774 692 l 774 93 q 734 -86 774 -6 q 613 -213 694 -166 q 415 -260 532 -260 m 414 116 q 536 149 480 116 q 625 237 592 182 q 658 359 658 293 q 625 479 658 424 q 537 568 593 535 q 414 602 481 602 q 291 570 347 602 q 202 483 235 538 q 170 359 170 427 q 202 235 170 291 q 291 148 235 180 q 414 116 347 116 z "},"ġ":{"ha":886,"x_min":54,"x_max":774,"o":"m 415 -260 q 231 -224 304 -260 q 122 -130 158 -188 q 83 -4 87 -72 l 193 -4 q 257 -117 205 -74 q 415 -161 310 -161 q 556 -126 500 -161 q 636 -35 611 -92 q 662 90 662 21 l 662 175 q 554 55 626 98 q 393 13 483 13 q 220 59 298 13 q 98 185 142 106 q 54 359 54 264 q 98 533 54 452 q 219 663 142 614 q 390 711 296 711 q 508 688 454 711 q 602 628 562 666 q 662 543 641 590 l 662 692 l 774 692 l 774 93 q 734 -86 774 -6 q 613 -213 694 -166 q 415 -260 532 -260 m 414 116 q 536 149 480 116 q 625 237 592 182 q 658 359 658 293 q 625 479 658 424 q 537 568 593 535 q 414 602 481 602 q 291 570 347 602 q 202 483 235 538 q 170 359 170 427 q 202 235 170 291 q 291 148 235 180 q 414 116 347 116 m 393 803 q 347 819 365 803 q 329 859 329 836 q 347 900 329 884 q 393 917 365 917 q 439 901 421 917 q 457 859 457 884 q 439 820 457 836 q 393 803 420 803 z "},"ħ":{"ha":863,"x_min":16,"x_max":759,"o":"m 479 711 q 688 626 616 711 q 759 375 759 541 l 759 0 l 642 0 l 642 373 q 592 546 642 490 q 449 602 542 602 q 340 572 391 602 q 259 487 290 541 q 229 363 229 432 l 229 0 l 112 0 l 112 855 l 16 855 l 16 937 l 112 937 l 112 955 l 229 955 l 229 937 l 345 937 l 345 855 l 229 855 l 229 634 l 227 560 q 326 670 258 629 q 479 711 393 711 z "},"ĥ":{"ha":863,"x_min":-24,"x_max":759,"o":"m 229 955 l 229 634 l 227 560 q 326 670 258 629 q 479 711 393 711 q 688 626 616 711 q 759 375 759 541 l 759 0 l 642 0 l 642 373 q 592 546 642 490 q 449 602 542 602 q 340 572 391 602 q 259 487 290 541 q 229 363 229 432 l 229 0 l 112 0 l 112 955 l 229 955 m -24 987 l 135 1154 l 212 1154 l 373 987 l 275 987 l 174 1090 l 73 987 l -24 987 z "},"ḥ":{"ha":863,"x_min":112,"x_max":759,"o":"m 229 955 l 229 634 l 227 560 q 326 670 258 629 q 479 711 393 711 q 688 626 616 711 q 759 375 759 541 l 759 0 l 642 0 l 642 373 q 592 546 642 490 q 449 602 542 602 q 340 572 391 602 q 259 487 290 541 q 229 363 229 432 l 229 0 l 112 0 l 112 955 l 229 955 z "},"í":{"ha":340,"x_min":112,"x_max":333,"o":"m 112 692 l 229 692 l 229 0 l 112 0 l 112 692 m 244 971 l 333 941 l 221 779 l 140 779 l 244 971 z "},"ĭ":{"ha":340,"x_min":-19,"x_max":359,"o":"m 112 692 l 229 692 l 229 0 l 112 0 l 112 692 z "},"î":{"ha":340,"x_min":-30,"x_max":368,"o":"m 112 692 l 229 692 l 229 0 l 112 0 l 112 692 m -30 778 l 130 945 l 207 945 l 368 778 l 270 777 l 168 880 l 68 777 l -30 778 z "},"ï":{"ha":340,"x_min":-12,"x_max":345,"o":"m 112 692 l 229 692 l 229 0 l 112 0 l 112 692 m 52 805 q 6 821 24 805 q -12 861 -12 838 q 6 902 -12 886 q 52 918 24 918 q 98 902 80 918 q 116 861 116 886 q 98 821 116 838 q 52 805 80 805 m 280 805 q 235 821 252 805 q 217 861 217 838 q 235 902 217 886 q 280 918 252 918 q 327 902 309 918 q 345 861 345 886 q 327 821 345 838 q 280 805 309 805 z "},"ị":{"ha":340,"x_min":91,"x_max":250,"o":"m 170 827 q 113 848 134 827 q 91 901 91 869 q 113 954 91 932 q 170 975 134 975 q 228 954 206 975 q 250 901 250 932 q 228 848 250 869 q 170 827 206 827 m 112 692 l 229 692 l 229 0 l 112 0 l 112 692 z "},"ì":{"ha":340,"x_min":1,"x_max":229,"o":"m 112 692 l 229 692 l 229 0 l 112 0 l 112 692 m 1 941 l 90 971 l 194 779 l 113 779 l 1 941 z "},"ĳ":{"ha":688,"x_min":91,"x_max":599,"o":"m 170 827 q 113 848 134 827 q 91 901 91 869 q 113 954 91 932 q 170 975 134 975 q 228 954 206 975 q 250 901 250 932 q 228 848 250 869 q 170 827 206 827 m 112 692 l 229 692 l 229 0 l 112 0 l 112 692 m 518 827 q 461 848 483 827 q 439 901 439 869 q 461 954 439 932 q 519 975 483 975 q 577 954 555 975 q 599 901 599 932 q 577 848 599 869 q 518 827 555 827 m 341 -140 q 428 -102 397 -140 q 459 -5 459 -65 l 459 692 l 576 692 l 576 3 q 520 -175 576 -113 q 353 -237 464 -237 l 270 -237 l 270 -140 l 341 -140 z "},"ī":{"ha":340,"x_min":-16,"x_max":361,"o":"m 112 692 l 229 692 l 229 0 l 112 0 l 112 692 m -16 888 l 361 888 l 361 815 l -16 815 l -16 888 z "},"į":{"ha":340,"x_min":-18,"x_max":250,"o":"m 170 975 q 228 954 206 975 q 250 901 250 932 q 228 848 250 869 q 170 827 206 827 q 113 848 134 827 q 91 901 91 869 q 113 954 91 932 q 170 975 134 975 m 112 692 l 229 692 l 229 0 l 214 -12 q 148 -63 174 -41 q 103 -113 122 -86 q 84 -168 84 -140 q 97 -198 84 -187 q 134 -209 111 -209 q 208 -189 166 -209 l 227 -246 q 167 -276 199 -264 q 100 -288 134 -288 q 12 -260 42 -288 q -18 -190 -18 -233 q 27 -84 -18 -131 q 140 0 72 -37 l 112 0 l 112 692 z "},"ĩ":{"ha":340,"x_min":-18,"x_max":357,"o":"m 112 692 l 229 692 l 229 0 l 112 0 l 112 692 z "},"ĵ":{"ha":348,"x_min":-71,"x_max":374,"o":"m 1 -140 q 88 -102 57 -140 q 119 -5 119 -65 l 119 692 l 236 692 l 236 3 q 180 -175 236 -113 q 13 -237 123 -237 l -71 -237 l -71 -140 l 1 -140 m -23 778 l 136 945 l 214 945 l 374 778 l 277 777 l 175 880 l 75 777 l -23 778 z "},"ķ":{"ha":715,"x_min":112,"x_max":704,"o":"m 572 0 l 358 338 l 229 195 l 229 0 l 112 0 l 112 955 l 229 955 l 229 323 l 526 692 l 669 692 l 444 414 l 704 0 l 572 0 m 264 -258 l 319 -65 l 426 -65 l 349 -261 l 264 -258 z "},"ḳ":{"ha":715,"x_min":112,"x_max":704,"o":"m 572 0 l 358 338 l 229 195 l 229 0 l 112 0 l 112 955 l 229 955 l 229 323 l 526 692 l 669 692 l 444 414 l 704 0 l 572 0 z "},"ĸ":{"ha":715,"x_min":112,"x_max":704,"o":"m 568 0 l 358 338 l 229 195 l 229 0 l 112 0 l 112 692 l 229 692 l 229 323 l 528 692 l 669 692 l 444 414 l 704 0 l 568 0 z "},"ĺ":{"ha":340,"x_min":112,"x_max":340,"o":"m 112 956 l 229 956 l 229 0 l 112 0 l 112 956 m 251 1202 l 340 1171 l 220 1010 l 133 1010 l 251 1202 z "},"ľ":{"ha":416,"x_min":112,"x_max":404,"o":"m 112 956 l 229 956 l 229 0 l 112 0 l 112 956 m 317 955 l 404 955 l 392 701 l 327 701 l 317 955 z "},"ļ":{"ha":340,"x_min":71,"x_max":233,"o":"m 112 956 l 229 956 l 229 0 l 112 0 l 112 956 m 71 -258 l 127 -65 l 233 -65 l 156 -261 l 71 -258 z "},"ŀ":{"ha":427,"x_min":112,"x_max":462,"o":"m 112 956 l 229 956 l 229 0 l 112 0 l 112 956 z "},"ḷ":{"ha":340,"x_min":106,"x_max":234,"o":"m 112 956 l 229 956 l 229 0 l 112 0 l 112 956 z "},"ł":{"ha":340,"x_min":-12,"x_max":349,"o":"m 349 619 l 349 522 l 229 469 l 229 0 l 112 0 l 112 419 l -12 366 l -12 461 l 112 515 l 112 956 l 229 956 l 229 566 l 349 619 z "},"ṃ":{"ha":1323,"x_min":112,"x_max":1219,"o":"m 957 711 q 1153 626 1086 711 q 1219 375 1219 541 l 1219 0 l 1103 0 l 1103 373 q 1057 546 1103 489 q 925 602 1010 602 q 826 572 872 602 q 751 487 779 541 q 723 363 723 432 l 723 0 l 608 0 l 608 373 q 562 546 608 490 q 430 602 515 602 q 330 572 377 602 q 255 487 283 541 q 227 363 227 432 l 227 0 l 112 0 l 112 692 l 222 692 l 223 558 q 276 636 241 602 q 359 691 311 671 q 461 711 407 711 q 615 667 554 711 q 703 534 675 622 q 808 666 742 621 q 957 711 875 711 z "},"ń":{"ha":863,"x_min":112,"x_max":759,"o":"m 224 692 l 224 558 q 281 637 243 603 q 370 692 319 672 q 479 711 421 711 q 688 626 616 711 q 759 375 759 541 l 759 0 l 642 0 l 642 373 q 592 546 642 490 q 449 602 542 602 q 340 573 391 602 q 259 489 290 544 q 229 363 229 435 l 229 0 l 112 0 l 112 692 l 224 692 m 524 971 l 612 941 l 500 779 l 419 779 l 524 971 z "},"ň":{"ha":863,"x_min":112,"x_max":759,"o":"m 224 692 l 224 558 q 281 637 243 603 q 370 692 319 672 q 479 711 421 711 q 688 626 616 711 q 759 375 759 541 l 759 0 l 642 0 l 642 373 q 592 546 642 490 q 449 602 542 602 q 340 573 391 602 q 259 489 290 544 q 229 363 229 435 l 229 0 l 112 0 l 112 692 l 224 692 m 347 948 l 448 846 l 549 948 l 647 948 l 486 781 l 409 781 l 250 948 l 347 948 z "},"ņ":{"ha":863,"x_min":112,"x_max":759,"o":"m 224 692 l 224 558 q 281 637 243 603 q 370 692 319 672 q 479 711 421 711 q 688 626 616 711 q 759 375 759 541 l 759 0 l 642 0 l 642 373 q 592 546 642 490 q 449 602 542 602 q 340 573 391 602 q 259 489 290 544 q 229 363 229 435 l 229 0 l 112 0 l 112 692 l 224 692 m 329 -258 l 385 -65 l 491 -65 l 414 -261 l 329 -258 z "},"ṇ":{"ha":863,"x_min":112,"x_max":759,"o":"m 224 692 l 224 558 q 281 637 243 603 q 370 692 319 672 q 479 711 421 711 q 688 626 616 711 q 759 375 759 541 l 759 0 l 642 0 l 642 373 q 592 546 642 490 q 449 602 542 602 q 340 573 391 602 q 259 489 290 544 q 229 363 229 435 l 229 0 l 112 0 l 112 692 l 224 692 z "},"ŋ":{"ha":863,"x_min":112,"x_max":761,"o":"m 761 111 l 761 -10 q 702 -187 761 -124 q 535 -250 642 -250 l 472 -250 l 472 -150 l 530 -150 q 614 -112 586 -150 q 642 -9 642 -75 l 642 373 q 592 546 642 490 q 449 602 542 602 q 340 573 391 602 q 259 489 290 544 q 229 363 229 435 l 229 0 l 112 0 l 112 692 l 224 692 l 224 558 q 281 637 243 603 q 370 692 319 672 q 479 711 421 711 q 688 626 616 711 q 759 375 759 541 l 759 111 l 761 111 z "},"ɲ":{"ha":885,"x_min":-58,"x_max":759,"o":"m 479 711 q 688 626 616 711 q 759 375 759 541 l 759 0 l 642 0 l 642 373 q 592 546 642 490 q 449 602 542 602 q 340 573 391 602 q 259 489 290 544 q 229 363 229 435 l 229 111 l 229 111 l 229 -10 q 170 -187 229 -124 q 5 -250 111 -250 l -58 -250 l -58 -149 l 0 -149 q 84 -112 56 -149 q 112 -9 112 -74 l 112 692 l 224 692 l 224 558 q 281 637 243 603 q 370 692 319 672 q 479 711 421 711 z "},"ñ":{"ha":863,"x_min":112,"x_max":759,"o":"m 224 692 l 224 558 q 281 637 243 603 q 370 692 319 672 q 479 711 421 711 q 688 626 616 711 q 759 375 759 541 l 759 0 l 642 0 l 642 373 q 592 546 642 490 q 449 602 542 602 q 340 573 391 602 q 259 489 290 544 q 229 363 229 435 l 229 0 l 112 0 l 112 692 l 224 692 z "},"ó":{"ha":827,"x_min":54,"x_max":774,"o":"m 413 -20 q 230 29 313 -20 q 101 162 148 78 q 54 346 54 245 q 101 530 54 446 q 230 663 148 614 q 413 711 312 711 q 597 663 514 711 q 727 530 680 614 q 774 346 774 446 q 727 162 774 245 q 597 29 680 78 q 413 -20 515 -20 m 414 90 q 538 123 482 90 q 625 215 593 157 q 657 346 657 273 q 625 476 657 418 q 538 568 593 534 q 414 602 482 602 q 291 568 347 602 q 202 476 235 534 q 170 346 170 418 q 202 215 170 273 q 291 123 235 157 q 414 90 347 90 m 487 965 l 576 935 l 464 773 l 382 773 l 487 965 z "},"ŏ":{"ha":827,"x_min":54,"x_max":774,"o":"m 413 -20 q 230 29 313 -20 q 101 162 148 78 q 54 346 54 245 q 101 530 54 446 q 230 663 148 614 q 413 711 312 711 q 597 663 514 711 q 727 530 680 614 q 774 346 774 446 q 727 162 774 245 q 597 29 680 78 q 413 -20 515 -20 m 414 90 q 538 123 482 90 q 625 215 593 157 q 657 346 657 273 q 625 476 657 418 q 538 568 593 534 q 414 602 482 602 q 291 568 347 602 q 202 476 235 534 q 170 346 170 418 q 202 215 170 273 q 291 123 235 157 q 414 90 347 90 z "},"ô":{"ha":827,"x_min":54,"x_max":774,"o":"m 413 -20 q 230 29 313 -20 q 101 162 148 78 q 54 346 54 245 q 101 530 54 446 q 230 663 148 614 q 413 711 312 711 q 597 663 514 711 q 727 530 680 614 q 774 346 774 446 q 727 162 774 245 q 597 29 680 78 q 413 -20 515 -20 m 414 90 q 538 123 482 90 q 625 215 593 157 q 657 346 657 273 q 625 476 657 418 q 538 568 593 534 q 414 602 482 602 q 291 568 347 602 q 202 476 235 534 q 170 346 170 418 q 202 215 170 273 q 291 123 235 157 q 414 90 347 90 m 213 772 l 372 939 l 450 939 l 610 772 l 513 771 l 411 873 l 311 771 l 213 772 z "},"ö":{"ha":827,"x_min":54,"x_max":774,"o":"m 413 -20 q 230 29 313 -20 q 101 162 148 78 q 54 346 54 245 q 101 530 54 446 q 230 663 148 614 q 413 711 312 711 q 597 663 514 711 q 727 530 680 614 q 774 346 774 446 q 727 162 774 245 q 597 29 680 78 q 413 -20 515 -20 m 414 90 q 538 123 482 90 q 625 215 593 157 q 657 346 657 273 q 625 476 657 418 q 538 568 593 534 q 414 602 482 602 q 291 568 347 602 q 202 476 235 534 q 170 346 170 418 q 202 215 170 273 q 291 123 235 157 q 414 90 347 90 m 294 799 q 249 815 267 799 q 231 855 231 831 q 249 896 231 880 q 294 912 267 912 q 341 896 323 912 q 359 855 359 880 q 341 815 359 831 q 294 799 323 799 m 523 799 q 477 815 495 799 q 460 855 460 831 q 477 896 460 880 q 523 912 495 912 q 569 896 551 912 q 587 855 587 880 q 569 815 587 831 q 523 799 551 799 z "},"ọ":{"ha":827,"x_min":54,"x_max":774,"o":"m 413 -20 q 230 29 313 -20 q 101 162 148 78 q 54 346 54 245 q 101 530 54 446 q 230 663 148 614 q 413 711 312 711 q 597 663 514 711 q 727 530 680 614 q 774 346 774 446 q 727 162 774 245 q 597 29 680 78 q 413 -20 515 -20 m 414 90 q 538 123 482 90 q 625 215 593 157 q 657 346 657 273 q 625 476 657 418 q 538 568 593 534 q 414 602 482 602 q 291 568 347 602 q 202 476 235 534 q 170 346 170 418 q 202 215 170 273 q 291 123 235 157 q 414 90 347 90 z "},"ò":{"ha":827,"x_min":54,"x_max":774,"o":"m 413 -20 q 230 29 313 -20 q 101 162 148 78 q 54 346 54 245 q 101 530 54 446 q 230 663 148 614 q 413 711 312 711 q 597 663 514 711 q 727 530 680 614 q 774 346 774 446 q 727 162 774 245 q 597 29 680 78 q 413 -20 515 -20 m 414 90 q 538 123 482 90 q 625 215 593 157 q 657 346 657 273 q 625 476 657 418 q 538 568 593 534 q 414 602 482 602 q 291 568 347 602 q 202 476 235 534 q 170 346 170 418 q 202 215 170 273 q 291 123 235 157 q 414 90 347 90 m 244 935 l 332 965 l 437 773 l 356 773 l 244 935 z "},"ő":{"ha":827,"x_min":54,"x_max":774,"o":"m 413 -20 q 230 29 313 -20 q 101 162 148 78 q 54 346 54 245 q 101 530 54 446 q 230 663 148 614 q 413 711 312 711 q 597 663 514 711 q 727 530 680 614 q 774 346 774 446 q 727 162 774 245 q 597 29 680 78 q 413 -20 515 -20 m 414 90 q 538 123 482 90 q 625 215 593 157 q 657 346 657 273 q 625 476 657 418 q 538 568 593 534 q 414 602 482 602 q 291 568 347 602 q 202 476 235 534 q 170 346 170 418 q 202 215 170 273 q 291 123 235 157 q 414 90 347 90 m 294 775 l 370 951 l 466 948 l 366 772 l 294 775 m 494 775 l 571 951 l 667 948 l 566 772 l 494 775 z "},"ō":{"ha":827,"x_min":54,"x_max":774,"o":"m 413 -20 q 230 29 313 -20 q 101 162 148 78 q 54 346 54 245 q 101 530 54 446 q 230 663 148 614 q 413 711 312 711 q 597 663 514 711 q 727 530 680 614 q 774 346 774 446 q 727 162 774 245 q 597 29 680 78 q 413 -20 515 -20 m 414 90 q 538 123 482 90 q 625 215 593 157 q 657 346 657 273 q 625 476 657 418 q 538 568 593 534 q 414 602 482 602 q 291 568 347 602 q 202 476 235 534 q 170 346 170 418 q 202 215 170 273 q 291 123 235 157 q 414 90 347 90 m 227 882 l 604 882 l 604 809 l 227 809 l 227 882 z "},"ǫ":{"ha":827,"x_min":54,"x_max":774,"o":"m 621 45 q 556 -7 582 15 q 511 -57 530 -30 q 492 -112 492 -84 q 506 -142 492 -131 q 542 -153 519 -153 q 616 -133 574 -153 l 635 -190 q 575 -220 608 -208 q 508 -231 543 -231 q 420 -204 450 -231 q 391 -134 391 -176 q 444 -18 391 -74 q 413 -20 424 -20 q 230 29 313 -20 q 101 162 148 78 q 54 346 54 245 q 101 530 54 446 q 230 663 148 614 q 413 711 312 711 q 597 663 514 711 q 727 530 680 614 q 774 346 774 446 q 733 174 774 253 q 621 45 692 95 m 170 346 q 202 215 170 273 q 291 123 235 157 q 414 90 347 90 q 538 123 482 90 q 625 215 593 157 q 657 346 657 273 q 625 476 657 418 q 538 568 593 534 q 414 602 482 602 q 291 568 347 602 q 202 476 235 534 q 170 346 170 418 z "},"ø":{"ha":827,"x_min":54,"x_max":774,"o":"m 665 610 q 745 491 717 559 q 774 346 774 423 q 727 162 774 245 q 597 29 680 78 q 413 -20 515 -20 q 245 21 321 -20 l 198 -45 l 115 5 l 166 77 q 83 197 113 128 q 54 346 54 267 q 101 530 54 446 q 230 663 148 614 q 413 711 312 711 q 587 668 508 711 l 629 726 l 712 675 l 665 610 m 170 346 q 187 250 170 295 q 233 171 203 205 l 522 576 q 414 602 473 602 q 291 568 347 602 q 202 476 235 534 q 170 346 170 418 m 414 90 q 538 123 482 90 q 625 215 593 157 q 657 346 657 273 q 642 439 657 395 q 598 516 627 482 l 311 113 q 414 90 359 90 z "},"ǿ":{"ha":827,"x_min":54,"x_max":774,"o":"m 665 610 q 745 491 717 559 q 774 346 774 423 q 727 162 774 245 q 597 29 680 78 q 413 -20 515 -20 q 245 21 321 -20 l 198 -45 l 115 5 l 166 77 q 83 197 113 128 q 54 346 54 267 q 101 530 54 446 q 230 663 148 614 q 413 711 312 711 q 587 668 508 711 l 629 726 l 712 675 l 665 610 m 170 346 q 187 250 170 295 q 233 171 203 205 l 522 576 q 414 602 473 602 q 291 568 347 602 q 202 476 235 534 q 170 346 170 418 m 414 90 q 538 123 482 90 q 625 215 593 157 q 657 346 657 273 q 642 439 657 395 q 598 516 627 482 l 311 113 q 414 90 359 90 m 524 998 l 612 968 l 500 806 l 419 806 l 524 998 z "},"õ":{"ha":827,"x_min":54,"x_max":774,"o":"m 413 -20 q 230 29 313 -20 q 101 162 148 78 q 54 346 54 245 q 101 530 54 446 q 230 663 148 614 q 413 711 312 711 q 597 663 514 711 q 727 530 680 614 q 774 346 774 446 q 727 162 774 245 q 597 29 680 78 q 413 -20 515 -20 m 414 90 q 538 123 482 90 q 625 215 593 157 q 657 346 657 273 q 625 476 657 418 q 538 568 593 534 q 414 602 482 602 q 291 568 347 602 q 202 476 235 534 q 170 346 170 418 q 202 215 170 273 q 291 123 235 157 q 414 90 347 90 z "},"ŕ":{"ha":526,"x_min":112,"x_max":502,"o":"m 224 692 l 224 537 q 305 651 250 610 q 435 692 360 692 l 502 692 l 502 589 l 441 589 q 332 558 380 589 q 256 467 283 526 q 229 326 229 407 l 229 0 l 112 0 l 112 692 l 224 692 m 363 971 l 452 941 l 340 779 l 259 779 l 363 971 z "},"ř":{"ha":526,"x_min":90,"x_max":502,"o":"m 224 692 l 224 537 q 305 651 250 610 q 435 692 360 692 l 502 692 l 502 589 l 441 589 q 332 558 380 589 q 256 467 283 526 q 229 326 229 407 l 229 0 l 112 0 l 112 692 l 224 692 m 187 948 l 288 846 l 389 948 l 487 948 l 326 781 l 249 781 l 90 948 l 187 948 z "},"ŗ":{"ha":526,"x_min":79,"x_max":502,"o":"m 224 692 l 224 537 q 305 651 250 610 q 435 692 360 692 l 502 692 l 502 589 l 441 589 q 332 558 380 589 q 256 467 283 526 q 229 326 229 407 l 229 0 l 112 0 l 112 692 l 224 692 m 79 -258 l 135 -65 l 241 -65 l 164 -261 l 79 -258 z "},"ṛ":{"ha":526,"x_min":112,"x_max":502,"o":"m 224 692 l 224 537 q 305 651 250 610 q 435 692 360 692 l 502 692 l 502 589 l 441 589 q 332 558 380 589 q 256 467 283 526 q 229 326 229 407 l 229 0 l 112 0 l 112 692 l 224 692 z "},"ś":{"ha":669,"x_min":54,"x_max":621,"o":"m 342 -20 q 185 13 250 -20 q 86 98 119 45 q 54 212 54 151 l 166 212 q 188 142 167 174 q 249 93 209 111 q 344 75 289 75 q 462 105 421 75 q 503 189 503 136 q 483 249 503 227 q 426 282 463 271 q 328 304 389 294 q 151 367 216 321 q 86 509 86 412 q 114 612 86 566 q 198 685 142 659 q 334 711 254 711 q 473 685 412 711 q 566 611 533 659 q 600 504 600 564 l 485 504 q 442 584 482 554 q 334 614 402 614 q 235 585 269 614 q 201 511 201 555 q 216 458 201 478 q 267 424 231 437 q 368 399 302 410 q 498 368 444 387 q 586 308 551 349 q 621 195 621 266 q 586 78 621 126 q 489 5 551 29 q 342 -20 426 -20 m 406 971 l 494 941 l 382 779 l 301 779 l 406 971 z "},"š":{"ha":669,"x_min":54,"x_max":621,"o":"m 342 -20 q 185 13 250 -20 q 86 98 119 45 q 54 212 54 151 l 166 212 q 188 142 167 174 q 249 93 209 111 q 344 75 289 75 q 462 105 421 75 q 503 189 503 136 q 483 249 503 227 q 426 282 463 271 q 328 304 389 294 q 151 367 216 321 q 86 509 86 412 q 114 612 86 566 q 198 685 142 659 q 334 711 254 711 q 473 685 412 711 q 566 611 533 659 q 600 504 600 564 l 485 504 q 442 584 482 554 q 334 614 402 614 q 235 585 269 614 q 201 511 201 555 q 216 458 201 478 q 267 424 231 437 q 368 399 302 410 q 498 368 444 387 q 586 308 551 349 q 621 195 621 266 q 586 78 621 126 q 489 5 551 29 q 342 -20 426 -20 m 229 948 l 330 846 l 431 948 l 529 948 l 368 781 l 291 781 l 132 948 l 229 948 z "},"ş":{"ha":669,"x_min":54,"x_max":621,"o":"m 330 -20 l 315 -56 q 382 -87 353 -63 q 411 -151 411 -112 q 394 -211 411 -186 q 349 -249 376 -236 q 292 -261 322 -261 q 245 -254 269 -261 q 201 -233 221 -246 l 225 -178 q 258 -193 243 -188 q 290 -197 272 -197 q 326 -185 308 -197 q 344 -147 344 -173 q 317 -107 344 -119 q 255 -96 290 -96 l 279 -15 q 155 29 206 -5 q 79 111 104 62 q 54 212 54 159 l 166 212 q 188 142 167 174 q 249 93 209 111 q 344 75 289 75 q 462 105 421 75 q 503 189 503 136 q 483 249 503 227 q 426 282 463 271 q 328 304 389 294 q 151 367 216 321 q 86 509 86 412 q 114 612 86 566 q 198 685 142 659 q 334 711 254 711 q 473 685 412 711 q 566 611 533 659 q 600 504 600 564 l 485 504 q 442 584 482 554 q 334 614 402 614 q 235 585 269 614 q 201 511 201 555 q 216 458 201 478 q 267 424 231 437 q 368 399 302 410 q 498 368 444 387 q 586 308 551 349 q 621 195 621 266 q 586 78 621 126 q 489 5 551 29 q 342 -20 426 -20 l 330 -20 z "},"ŝ":{"ha":669,"x_min":54,"x_max":621,"o":"m 342 -20 q 185 13 250 -20 q 86 98 119 45 q 54 212 54 151 l 166 212 q 188 142 167 174 q 249 93 209 111 q 344 75 289 75 q 462 105 421 75 q 503 189 503 136 q 483 249 503 227 q 426 282 463 271 q 328 304 389 294 q 151 367 216 321 q 86 509 86 412 q 114 612 86 566 q 198 685 142 659 q 334 711 254 711 q 473 685 412 711 q 566 611 533 659 q 600 504 600 564 l 485 504 q 442 584 482 554 q 334 614 402 614 q 235 585 269 614 q 201 511 201 555 q 216 458 201 478 q 267 424 231 437 q 368 399 302 410 q 498 368 444 387 q 586 308 551 349 q 621 195 621 266 q 586 78 621 126 q 489 5 551 29 q 342 -20 426 -20 m 132 778 l 291 945 l 368 945 l 529 778 l 431 777 l 330 880 l 229 777 l 132 778 z "},"ș":{"ha":669,"x_min":54,"x_max":621,"o":"m 342 -20 q 185 13 250 -20 q 86 98 119 45 q 54 212 54 151 l 166 212 q 188 142 167 174 q 249 93 209 111 q 344 75 289 75 q 462 105 421 75 q 503 189 503 136 q 483 249 503 227 q 426 282 463 271 q 328 304 389 294 q 151 367 216 321 q 86 509 86 412 q 114 612 86 566 q 198 685 142 659 q 334 711 254 711 q 473 685 412 711 q 566 611 533 659 q 600 504 600 564 l 485 504 q 442 584 482 554 q 334 614 402 614 q 235 585 269 614 q 201 511 201 555 q 216 458 201 478 q 267 424 231 437 q 368 399 302 410 q 498 368 444 387 q 586 308 551 349 q 621 195 621 266 q 586 78 621 126 q 489 5 551 29 q 342 -20 426 -20 m 222 -258 l 278 -65 l 385 -65 l 307 -261 l 222 -258 z "},"ṣ":{"ha":669,"x_min":54,"x_max":621,"o":"m 342 -20 q 185 13 250 -20 q 86 98 119 45 q 54 212 54 151 l 166 212 q 188 142 167 174 q 249 93 209 111 q 344 75 289 75 q 462 105 421 75 q 503 189 503 136 q 483 249 503 227 q 426 282 463 271 q 328 304 389 294 q 151 367 216 321 q 86 509 86 412 q 114 612 86 566 q 198 685 142 659 q 334 711 254 711 q 473 685 412 711 q 566 611 533 659 q 600 504 600 564 l 485 504 q 442 584 482 554 q 334 614 402 614 q 235 585 269 614 q 201 511 201 555 q 216 458 201 478 q 267 424 231 437 q 368 399 302 410 q 498 368 444 387 q 586 308 551 349 q 621 195 621 266 q 586 78 621 126 q 489 5 551 29 q 342 -20 426 -20 z "},"ſ":{"ha":472,"x_min":7,"x_max":497,"o":"m 7 591 l 7 692 l 149 692 l 149 741 q 172 851 149 801 q 240 932 194 902 q 353 963 286 963 l 497 963 l 497 865 l 380 865 q 319 847 345 865 q 279 799 293 829 q 266 731 266 768 l 266 0 l 149 0 l 149 591 l 7 591 z "},"ŧ":{"ha":545,"x_min":7,"x_max":507,"o":"m 278 589 l 278 485 l 448 485 l 448 404 l 278 404 l 278 251 q 312 131 278 163 q 402 99 347 99 l 507 99 l 507 0 l 379 0 q 222 55 283 0 q 161 256 161 110 l 161 404 l 9 404 l 9 485 l 161 485 l 161 589 l 7 589 l 7 692 l 161 692 l 161 897 l 278 898 l 278 692 l 507 692 l 507 589 l 278 589 z "},"ť":{"ha":545,"x_min":7,"x_max":534,"o":"m 379 0 q 222 55 283 0 q 161 256 161 110 l 161 589 l 7 589 l 7 692 l 161 692 l 161 897 l 278 898 l 278 692 l 507 692 l 507 589 l 278 589 l 278 251 q 312 131 278 163 q 402 99 347 99 l 507 99 l 507 0 l 379 0 m 448 1067 l 534 1067 l 523 813 l 458 813 l 448 1067 z "},"ț":{"ha":545,"x_min":7,"x_max":507,"o":"m 379 0 q 222 55 283 0 q 161 256 161 110 l 161 589 l 7 589 l 7 692 l 161 692 l 161 897 l 278 898 l 278 692 l 507 692 l 507 589 l 278 589 l 278 251 q 312 131 278 163 q 402 99 347 99 l 507 99 l 507 0 l 379 0 m 323 -258 l 379 -65 l 486 -65 l 408 -261 l 323 -258 z "},"ṭ":{"ha":545,"x_min":7,"x_max":507,"o":"m 379 0 q 222 55 283 0 q 161 256 161 110 l 161 589 l 7 589 l 7 692 l 161 692 l 161 897 l 278 898 l 278 692 l 507 692 l 507 589 l 278 589 l 278 251 q 312 131 278 163 q 402 99 347 99 l 507 99 l 507 0 l 379 0 z "},"ú":{"ha":816,"x_min":93,"x_max":723,"o":"m 409 -20 q 243 17 314 -20 q 133 129 172 53 q 93 322 93 205 l 93 692 l 209 692 l 209 326 q 260 150 209 210 q 408 90 312 90 q 555 150 504 90 q 606 326 606 210 l 606 692 l 723 692 l 723 322 q 683 130 723 206 q 572 17 643 53 q 409 -20 502 -20 m 484 971 l 573 941 l 461 779 l 380 779 l 484 971 z "},"ŭ":{"ha":816,"x_min":93,"x_max":723,"o":"m 409 -20 q 243 17 314 -20 q 133 129 172 53 q 93 322 93 205 l 93 692 l 209 692 l 209 326 q 260 150 209 210 q 408 90 312 90 q 555 150 504 90 q 606 326 606 210 l 606 692 l 723 692 l 723 322 q 683 130 723 206 q 572 17 643 53 q 409 -20 502 -20 z "},"û":{"ha":816,"x_min":93,"x_max":723,"o":"m 409 -20 q 243 17 314 -20 q 133 129 172 53 q 93 322 93 205 l 93 692 l 209 692 l 209 326 q 260 150 209 210 q 408 90 312 90 q 555 150 504 90 q 606 326 606 210 l 606 692 l 723 692 l 723 322 q 683 130 723 206 q 572 17 643 53 q 409 -20 502 -20 m 210 778 l 370 945 l 447 945 l 608 778 l 510 777 l 408 880 l 308 777 l 210 778 z "},"ü":{"ha":816,"x_min":93,"x_max":723,"o":"m 409 -20 q 243 17 314 -20 q 133 129 172 53 q 93 322 93 205 l 93 692 l 209 692 l 209 326 q 260 150 209 210 q 408 90 312 90 q 555 150 504 90 q 606 326 606 210 l 606 692 l 723 692 l 723 322 q 683 130 723 206 q 572 17 643 53 q 409 -20 502 -20 m 292 805 q 246 821 264 805 q 228 861 228 838 q 246 902 228 886 q 292 918 264 918 q 338 902 320 918 q 356 861 356 886 q 338 821 356 838 q 292 805 320 805 m 520 805 q 475 821 492 805 q 457 861 457 838 q 475 902 457 886 q 520 918 492 918 q 567 902 549 918 q 585 861 585 886 q 567 821 585 838 q 520 805 549 805 z "},"ụ":{"ha":816,"x_min":93,"x_max":723,"o":"m 409 -20 q 243 17 314 -20 q 133 129 172 53 q 93 322 93 205 l 93 692 l 209 692 l 209 326 q 260 150 209 210 q 408 90 312 90 q 555 150 504 90 q 606 326 606 210 l 606 692 l 723 692 l 723 322 q 683 130 723 206 q 572 17 643 53 q 409 -20 502 -20 z "},"ù":{"ha":816,"x_min":93,"x_max":723,"o":"m 409 -20 q 243 17 314 -20 q 133 129 172 53 q 93 322 93 205 l 93 692 l 209 692 l 209 326 q 260 150 209 210 q 408 90 312 90 q 555 150 504 90 q 606 326 606 210 l 606 692 l 723 692 l 723 322 q 683 130 723 206 q 572 17 643 53 q 409 -20 502 -20 m 241 941 l 330 971 l 434 779 l 353 779 l 241 941 z "},"ű":{"ha":816,"x_min":93,"x_max":723,"o":"m 409 -20 q 243 17 314 -20 q 133 129 172 53 q 93 322 93 205 l 93 692 l 209 692 l 209 326 q 260 150 209 210 q 408 90 312 90 q 555 150 504 90 q 606 326 606 210 l 606 692 l 723 692 l 723 322 q 683 130 723 206 q 572 17 643 53 q 409 -20 502 -20 m 291 781 l 367 957 l 463 954 l 363 778 l 291 781 m 492 781 l 568 957 l 664 954 l 564 778 l 492 781 z "},"ū":{"ha":816,"x_min":93,"x_max":723,"o":"m 409 -20 q 243 17 314 -20 q 133 129 172 53 q 93 322 93 205 l 93 692 l 209 692 l 209 326 q 260 150 209 210 q 408 90 312 90 q 555 150 504 90 q 606 326 606 210 l 606 692 l 723 692 l 723 322 q 683 130 723 206 q 572 17 643 53 q 409 -20 502 -20 m 224 888 l 602 888 l 602 815 l 224 815 l 224 888 z "},"ų":{"ha":816,"x_min":93,"x_max":723,"o":"m 723 692 l 723 322 q 686 136 723 211 q 583 22 650 62 q 510 -46 537 -14 q 482 -113 482 -79 q 495 -142 482 -132 q 532 -153 509 -153 q 606 -134 564 -153 l 625 -191 q 565 -220 597 -209 q 498 -232 532 -232 q 410 -204 440 -232 q 380 -134 380 -177 q 435 -19 380 -75 q 409 -20 426 -20 q 243 17 314 -20 q 133 129 172 53 q 93 322 93 205 l 93 692 l 209 692 l 209 326 q 260 150 209 210 q 408 90 312 90 q 555 150 504 90 q 606 326 606 210 l 606 692 l 723 692 z "},"ů":{"ha":816,"x_min":93,"x_max":723,"o":"m 409 -20 q 243 17 314 -20 q 133 129 172 53 q 93 322 93 205 l 93 692 l 209 692 l 209 326 q 260 150 209 210 q 408 90 312 90 q 555 150 504 90 q 606 326 606 210 l 606 692 l 723 692 l 723 322 q 683 130 723 206 q 572 17 643 53 q 409 -20 502 -20 z "},"ũ":{"ha":816,"x_min":93,"x_max":723,"o":"m 409 -20 q 243 17 314 -20 q 133 129 172 53 q 93 322 93 205 l 93 692 l 209 692 l 209 326 q 260 150 209 210 q 408 90 312 90 q 555 150 504 90 q 606 326 606 210 l 606 692 l 723 692 l 723 322 q 683 130 723 206 q 572 17 643 53 q 409 -20 502 -20 z "},"ṿ":{"ha":690,"x_min":9,"x_max":682,"o":"m 9 692 l 133 692 l 328 203 l 345 142 l 361 203 l 557 692 l 682 692 l 400 0 l 290 0 l 9 692 z "},"ẃ":{"ha":1055,"x_min":9,"x_max":1046,"o":"m 9 692 l 134 692 l 298 192 l 311 151 l 313 151 l 326 191 l 484 692 l 573 692 l 726 200 l 741 151 l 743 151 l 762 202 l 922 692 l 1046 692 l 808 0 l 698 0 l 527 518 l 526 518 l 354 0 l 247 0 l 9 692 m 609 971 l 698 941 l 586 779 l 505 779 l 609 971 z "},"ŵ":{"ha":1055,"x_min":9,"x_max":1046,"o":"m 9 692 l 134 692 l 298 192 l 311 151 l 313 151 l 326 191 l 484 692 l 573 692 l 726 200 l 741 151 l 743 151 l 762 202 l 922 692 l 1046 692 l 808 0 l 698 0 l 527 518 l 526 518 l 354 0 l 247 0 l 9 692 m 335 778 l 494 945 l 572 945 l 732 778 l 635 777 l 533 880 l 433 777 l 335 778 z "},"ẅ":{"ha":1055,"x_min":9,"x_max":1046,"o":"m 9 692 l 134 692 l 298 192 l 311 151 l 313 151 l 326 191 l 484 692 l 573 692 l 726 200 l 741 151 l 743 151 l 762 202 l 922 692 l 1046 692 l 808 0 l 698 0 l 527 518 l 526 518 l 354 0 l 247 0 l 9 692 m 417 805 q 371 821 389 805 q 353 861 353 838 q 371 902 353 886 q 417 918 389 918 q 464 902 446 918 q 481 861 481 886 q 464 821 481 838 q 417 805 446 805 m 646 805 q 600 821 618 805 q 583 861 583 838 q 600 902 583 886 q 646 918 618 918 q 692 902 674 918 q 710 861 710 886 q 692 821 710 838 q 646 805 674 805 z "},"ẉ":{"ha":1055,"x_min":9,"x_max":1046,"o":"m 9 692 l 134 692 l 298 192 l 311 151 l 313 151 l 326 191 l 484 692 l 573 692 l 726 200 l 741 151 l 743 151 l 762 202 l 922 692 l 1046 692 l 808 0 l 698 0 l 527 518 l 526 518 l 354 0 l 247 0 l 9 692 z "},"ẁ":{"ha":1055,"x_min":9,"x_max":1046,"o":"m 9 692 l 134 692 l 298 192 l 311 151 l 313 151 l 326 191 l 484 692 l 573 692 l 726 200 l 741 151 l 743 151 l 762 202 l 922 692 l 1046 692 l 808 0 l 698 0 l 527 518 l 526 518 l 354 0 l 247 0 l 9 692 m 367 941 l 455 971 l 559 779 l 479 779 l 367 941 z "},"ý":{"ha":711,"x_min":29,"x_max":702,"o":"m 149 -138 q 216 -123 190 -138 q 259 -80 241 -109 q 296 1 277 -52 l 304 20 l 29 692 l 153 692 l 349 203 l 366 142 l 383 202 l 578 691 l 702 692 l 429 19 q 353 -137 388 -83 q 271 -213 318 -190 q 149 -236 224 -236 l 35 -236 l 35 -138 l 149 -138 m 422 971 l 511 941 l 399 779 l 318 779 l 422 971 z "},"ŷ":{"ha":711,"x_min":29,"x_max":702,"o":"m 149 -138 q 216 -123 190 -138 q 259 -80 241 -109 q 296 1 277 -52 l 304 20 l 29 692 l 153 692 l 349 203 l 366 142 l 383 202 l 578 691 l 702 692 l 429 19 q 353 -137 388 -83 q 271 -213 318 -190 q 149 -236 224 -236 l 35 -236 l 35 -138 l 149 -138 m 149 778 l 308 945 l 385 945 l 546 778 l 448 777 l 347 880 l 246 777 l 149 778 z "},"ÿ":{"ha":711,"x_min":29,"x_max":702,"o":"m 149 -138 q 216 -123 190 -138 q 259 -80 241 -109 q 296 1 277 -52 l 304 20 l 29 692 l 153 692 l 349 203 l 366 142 l 383 202 l 578 691 l 702 692 l 429 19 q 353 -137 388 -83 q 271 -213 318 -190 q 149 -236 224 -236 l 35 -236 l 35 -138 l 149 -138 m 231 805 q 185 821 203 805 q 167 861 167 838 q 185 902 167 886 q 231 918 203 918 q 277 902 259 918 q 295 861 295 886 q 277 821 295 838 q 231 805 259 805 m 459 805 q 414 821 431 805 q 396 861 396 838 q 414 902 396 886 q 459 918 431 918 q 506 902 488 918 q 524 861 524 886 q 506 821 524 838 q 459 805 488 805 z "},"ỵ":{"ha":711,"x_min":29,"x_max":702,"o":"m 429 19 q 383 -85 405 -43 q 339 -156 361 -127 q 366 -177 356 -163 q 376 -209 376 -191 q 358 -249 376 -233 q 312 -265 340 -265 q 271 -253 288 -265 q 250 -222 254 -241 q 149 -236 210 -236 l 35 -236 l 35 -138 l 149 -138 q 216 -123 190 -138 q 259 -80 241 -109 q 296 1 277 -52 l 304 20 l 29 692 l 153 692 l 349 203 l 366 142 l 383 202 l 578 691 l 702 692 l 429 19 z "},"ỳ":{"ha":711,"x_min":29,"x_max":702,"o":"m 149 -138 q 216 -123 190 -138 q 259 -80 241 -109 q 296 1 277 -52 l 304 20 l 29 692 l 153 692 l 349 203 l 366 142 l 383 202 l 578 691 l 702 692 l 429 19 q 353 -137 388 -83 q 271 -213 318 -190 q 149 -236 224 -236 l 35 -236 l 35 -138 l 149 -138 m 180 941 l 269 971 l 373 779 l 292 779 l 180 941 z "},"ȳ":{"ha":711,"x_min":29,"x_max":702,"o":"m 149 -138 q 216 -123 190 -138 q 259 -80 241 -109 q 296 1 277 -52 l 304 20 l 29 692 l 153 692 l 349 203 l 366 142 l 383 202 l 578 691 l 702 692 l 429 19 q 353 -137 388 -83 q 271 -213 318 -190 q 149 -236 224 -236 l 35 -236 l 35 -138 l 149 -138 m 162 888 l 540 888 l 540 815 l 162 815 l 162 888 z "},"ỹ":{"ha":711,"x_min":29,"x_max":702,"o":"m 149 -138 q 216 -123 190 -138 q 259 -80 241 -109 q 296 1 277 -52 l 304 20 l 29 692 l 153 692 l 349 203 l 366 142 l 383 202 l 578 691 l 702 692 l 429 19 q 353 -137 388 -83 q 271 -213 318 -190 q 149 -236 224 -236 l 35 -236 l 35 -138 l 149 -138 z "},"ź":{"ha":656,"x_min":47,"x_max":623,"o":"m 47 75 l 448 592 l 67 592 l 67 692 l 606 692 l 606 615 l 208 100 l 623 100 l 623 0 l 47 0 l 47 75 m 398 971 l 487 941 l 375 779 l 294 779 l 398 971 z "},"ž":{"ha":656,"x_min":47,"x_max":623,"o":"m 47 75 l 448 592 l 67 592 l 67 692 l 606 692 l 606 615 l 208 100 l 623 100 l 623 0 l 47 0 l 47 75 m 221 948 l 321 846 l 423 948 l 521 948 l 360 781 l 283 781 l 123 948 l 221 948 z "},"ż":{"ha":656,"x_min":47,"x_max":623,"o":"m 47 75 l 448 592 l 67 592 l 67 692 l 606 692 l 606 615 l 208 100 l 623 100 l 623 0 l 47 0 l 47 75 m 324 804 q 278 820 296 804 q 260 860 260 836 q 278 901 260 884 q 324 918 296 918 q 371 901 353 918 q 389 860 389 885 q 370 820 389 837 q 324 804 352 804 z "},"ẓ":{"ha":656,"x_min":47,"x_max":623,"o":"m 47 75 l 448 592 l 67 592 l 67 692 l 606 692 l 606 615 l 208 100 l 623 100 l 623 0 l 47 0 l 47 75 z "},"ª":{"ha":641,"x_min":55,"x_max":567,"o":"m 301 465 q 173 495 229 465 q 86 578 117 525 q 55 701 55 632 q 86 823 55 769 q 173 906 117 876 q 302 937 229 937 q 402 911 356 937 q 475 844 448 885 l 484 921 l 567 921 l 567 479 l 484 479 l 475 557 q 401 490 447 515 q 301 465 355 465 m 313 552 q 391 571 356 552 q 447 625 427 591 q 468 701 468 659 q 447 777 468 743 q 391 830 427 810 q 313 849 355 849 q 234 831 269 849 q 179 780 199 814 q 159 701 159 747 q 179 621 159 655 q 235 570 199 587 q 313 552 270 552 z "},"º":{"ha":627,"x_min":59,"x_max":571,"o":"m 314 467 q 183 496 241 467 q 92 579 125 526 q 59 701 59 633 q 92 822 59 768 q 183 905 125 875 q 314 935 241 935 q 446 905 387 935 q 538 822 505 875 q 571 701 571 768 q 538 579 571 632 q 446 496 505 526 q 314 467 388 467 m 315 555 q 393 572 358 555 q 447 622 427 589 q 467 701 467 655 q 447 779 467 747 q 392 829 427 812 q 315 846 357 846 q 237 829 272 846 q 183 780 203 812 q 163 701 163 747 q 183 622 163 655 q 237 572 203 589 q 315 555 272 555 z "},"ʰ":{"ha":583,"x_min":80,"x_max":524,"o":"m 184 1085 l 184 865 q 242 916 205 897 q 325 935 279 935 q 475 880 425 935 q 524 720 524 825 l 524 479 l 422 479 l 422 718 q 394 815 422 784 q 304 846 366 846 q 241 830 269 846 q 197 785 213 814 q 180 718 180 756 l 180 479 l 80 479 l 80 1085 l 184 1085 z "},"ˡ":{"ha":255,"x_min":85,"x_max":189,"o":"m 85 479 l 85 670 l 85 1085 l 189 1085 l 189 704 l 189 644 l 189 479 l 85 479 z "},"ⁿ":{"ha":612,"x_min":85,"x_max":550,"o":"m 169 921 l 176 854 q 246 912 202 890 q 339 935 290 935 q 498 879 446 935 q 550 718 550 824 l 550 479 l 446 479 l 446 715 q 414 815 446 784 q 325 846 383 846 q 255 829 286 846 q 206 780 224 811 q 189 708 189 749 l 189 479 l 85 479 l 85 921 l 169 921 z "},"ˢ":{"ha":477,"x_min":37,"x_max":453,"o":"m 233 466 q 126 485 170 466 q 60 536 82 505 q 37 604 37 568 l 124 604 q 141 570 126 586 q 180 543 156 553 q 234 533 205 533 q 325 552 294 533 q 356 604 356 572 q 323 651 356 636 q 227 673 291 667 q 103 707 156 681 q 50 795 50 732 q 99 897 50 859 q 244 935 147 935 q 345 919 302 935 q 410 873 387 903 q 433 806 433 844 l 341 806 q 311 854 338 836 q 242 872 284 872 q 163 852 189 872 q 137 804 137 833 q 168 761 137 776 q 267 739 199 747 q 453 607 453 713 q 394 503 453 539 q 233 466 335 466 z "},"А":{"ha":913,"x_min":9,"x_max":905,"o":"m 777 0 l 690 209 l 224 209 l 136 0 l 9 0 l 399 922 l 515 922 l 905 0 l 777 0 m 267 311 l 647 311 l 461 753 l 458 769 l 456 769 l 452 753 l 267 311 z "},"Б":{"ha":835,"x_min":125,"x_max":781,"o":"m 705 922 l 705 814 l 246 814 l 246 560 l 484 560 q 638 524 570 560 q 743 423 705 487 q 781 282 781 359 q 741 137 781 202 q 632 36 701 73 q 481 0 564 0 l 125 0 l 125 922 l 705 922 m 479 104 q 570 128 528 104 q 636 192 612 151 q 661 283 661 233 q 636 373 661 333 q 570 436 612 414 q 481 459 529 459 l 246 459 l 246 104 l 479 104 z "},"В":{"ha":890,"x_min":125,"x_max":836,"o":"m 519 922 q 655 892 595 922 q 749 806 715 861 q 783 680 783 751 q 767 600 783 638 q 723 532 751 561 q 661 488 695 503 q 749 440 709 473 q 813 360 789 406 q 836 260 836 313 q 798 121 836 180 q 695 31 759 62 q 558 0 631 0 l 125 0 l 125 922 l 519 922 m 514 522 q 588 542 555 522 q 642 596 622 562 q 661 671 661 630 q 642 745 661 711 q 588 798 622 779 q 515 818 555 818 l 247 818 l 247 522 l 514 522 m 549 106 q 632 127 594 106 q 691 186 669 149 q 713 269 713 223 q 691 349 713 313 q 632 408 669 386 q 550 429 595 429 l 247 429 l 247 106 l 549 106 z "},"Г":{"ha":671,"x_min":125,"x_max":637,"o":"m 637 922 l 637 814 l 245 814 l 245 0 l 125 0 l 125 922 l 637 922 z "},"Ѓ":{"ha":671,"x_min":125,"x_max":637,"o":"m 492 1183 l 581 1152 l 461 991 l 374 991 l 492 1183 z "},"Ґ":{"ha":670,"x_min":125,"x_max":637,"o":"m 125 922 l 526 922 l 526 1054 l 637 1054 l 637 814 l 246 814 l 246 0 l 125 0 l 125 922 z "},"Д":{"ha":1033,"x_min":52,"x_max":970,"o":"m 121 108 q 237 333 190 182 q 293 703 283 484 l 303 922 l 873 922 l 873 108 l 970 108 l 970 -158 l 850 -158 l 850 0 l 171 0 l 171 -158 l 52 -158 l 52 108 l 121 108 m 753 814 l 415 814 l 407 663 q 244 108 387 267 l 753 108 l 753 814 z "},"Е":{"ha":793,"x_min":125,"x_max":745,"o":"m 125 922 l 739 922 l 739 813 l 245 813 l 245 521 l 674 521 l 674 418 l 245 418 l 245 109 l 745 109 l 745 0 l 125 0 l 125 922 z "},"Ё":{"ha":785,"x_min":125,"x_max":745,"o":"m 314 1053 q 268 1069 286 1053 q 250 1109 250 1086 q 268 1150 250 1134 q 314 1166 286 1166 q 360 1150 342 1166 q 378 1109 378 1134 q 360 1069 378 1086 q 314 1053 342 1053 m 543 1053 q 497 1069 515 1053 q 479 1109 479 1086 q 497 1150 479 1134 q 543 1166 515 1166 q 589 1150 571 1166 q 607 1109 607 1134 q 589 1069 607 1086 q 543 1053 571 1053 m 125 922 l 739 922 l 739 813 l 245 813 l 245 521 l 674 521 l 674 418 l 245 418 l 245 109 l 745 109 l 745 0 l 125 0 l 125 922 z "},"Ж":{"ha":1162,"x_min":15,"x_max":1147,"o":"m 375 475 l 28 922 l 173 922 l 471 532 l 521 532 l 521 922 l 642 922 l 642 532 l 691 532 l 989 922 l 1135 922 l 787 475 l 1147 0 l 998 0 l 691 404 l 642 404 l 642 0 l 521 0 l 521 404 l 471 404 l 164 0 l 15 0 l 375 475 z "},"З":{"ha":875,"x_min":49,"x_max":827,"o":"m 457 93 q 578 113 522 93 q 669 173 635 134 q 703 266 703 212 q 674 357 703 318 q 592 417 646 395 q 464 438 538 438 l 292 438 l 292 530 l 469 530 q 615 569 562 531 q 668 681 668 608 q 605 794 668 757 q 439 832 542 832 q 256 782 326 832 q 177 626 185 732 l 57 626 q 119 804 65 732 q 257 909 173 875 q 443 943 341 943 q 626 915 547 943 q 747 831 704 886 q 791 695 791 775 q 767 595 791 638 q 707 526 743 552 q 629 487 670 499 q 725 444 680 475 q 799 364 770 413 q 827 255 827 315 q 775 107 827 169 q 639 13 724 45 q 458 -18 555 -18 q 256 15 345 -18 q 112 120 167 49 q 49 299 57 191 l 169 299 q 251 142 178 191 q 457 93 324 93 z "},"И":{"ha":1040,"x_min":125,"x_max":915,"o":"m 814 922 l 915 922 l 915 0 l 795 0 l 795 721 l 227 0 l 125 0 l 125 922 l 245 922 l 245 199 l 245 199 l 814 922 z "},"Й":{"ha":1040,"x_min":125,"x_max":915,"o":"m 814 922 l 915 922 l 915 0 l 795 0 l 795 721 l 227 0 l 125 0 l 125 922 l 245 922 l 245 199 l 245 199 l 814 922 z "},"К":{"ha":829,"x_min":125,"x_max":814,"o":"m 246 922 l 246 532 l 358 532 l 656 922 l 802 922 l 454 475 l 814 0 l 665 0 l 357 404 l 246 404 l 246 0 l 125 0 l 125 922 l 246 922 z "},"Ќ":{"ha":829,"x_min":125,"x_max":814,"o":"m 246 922 l 246 532 l 358 532 l 656 922 l 802 922 l 454 475 l 814 0 l 665 0 l 357 404 l 246 404 l 246 0 l 125 0 l 125 922 l 246 922 m 492 1183 l 581 1152 l 460 991 l 374 991 l 492 1183 z "},"Л":{"ha":1010,"x_min":25,"x_max":884,"o":"m 61 90 q 152 127 125 90 q 179 244 179 164 l 179 922 l 884 922 l 884 0 l 764 0 l 764 813 l 299 813 l 299 234 q 237 44 299 108 q 64 -19 175 -19 l 25 -19 l 25 90 l 61 90 z "},"М":{"ha":1161,"x_min":125,"x_max":1036,"o":"m 125 922 l 229 922 l 580 457 l 581 457 l 930 922 l 1036 922 l 1036 0 l 916 0 l 916 728 l 597 303 l 562 303 l 245 729 l 245 0 l 125 0 l 125 922 z "},"Н":{"ha":1025,"x_min":125,"x_max":899,"o":"m 125 922 l 245 922 l 245 516 l 779 516 l 779 922 l 899 922 l 899 0 l 779 0 l 779 408 l 245 408 l 245 0 l 125 0 l 125 922 z "},"О":{"ha":1096,"x_min":55,"x_max":1041,"o":"m 547 -18 q 300 46 414 -18 q 121 221 187 111 q 55 462 55 331 q 121 704 55 594 q 300 879 187 814 q 547 943 413 943 q 795 879 682 943 q 975 704 908 814 q 1041 462 1041 594 q 975 221 1041 331 q 795 46 908 111 q 547 -18 682 -18 m 547 93 q 735 141 650 93 q 871 274 821 190 q 921 462 921 359 q 871 650 921 565 q 735 783 821 734 q 547 832 650 832 q 360 783 446 832 q 225 650 275 734 q 175 462 175 565 q 225 274 175 359 q 360 141 275 190 q 547 93 446 93 z "},"П":{"ha":1012,"x_min":122,"x_max":896,"o":"m 122 922 l 896 922 l 896 0 l 776 0 l 776 814 l 243 814 l 243 0 l 122 0 l 122 922 z "},"Р":{"ha":838,"x_min":125,"x_max":810,"o":"m 504 922 q 662 883 592 922 q 771 776 732 844 q 810 621 810 707 q 771 463 810 532 q 663 354 732 393 q 507 315 594 315 l 245 315 l 245 0 l 125 0 l 125 922 l 504 922 m 501 424 q 597 450 554 424 q 666 520 641 475 q 690 621 690 566 q 665 718 690 673 q 596 788 640 762 q 500 814 553 814 l 245 814 l 245 424 l 501 424 z "},"С":{"ha":1023,"x_min":55,"x_max":968,"o":"m 536 -18 q 293 46 403 -18 q 119 220 182 110 q 55 462 55 330 q 119 704 55 594 q 293 879 182 814 q 536 943 403 943 q 726 905 636 943 q 881 791 817 867 q 968 609 945 716 l 846 609 q 731 775 815 718 q 532 832 648 832 q 351 785 433 832 q 222 652 269 737 q 175 462 175 568 q 222 271 175 355 q 351 140 269 187 q 532 93 433 93 q 731 150 647 93 q 845 315 814 207 l 968 315 q 881 132 945 208 q 727 19 817 57 q 536 -18 637 -18 z "},"Т":{"ha":771,"x_min":33,"x_max":737,"o":"m 325 814 l 33 814 l 33 922 l 737 922 l 737 814 l 445 814 l 445 0 l 325 0 l 325 814 z "},"У":{"ha":777,"x_min":14,"x_max":762,"o":"m 163 89 q 242 109 210 89 q 296 178 274 129 l 333 261 l 14 922 l 146 922 l 395 381 l 631 922 l 762 922 l 410 150 q 311 19 366 58 q 183 -19 256 -19 l 127 -19 l 127 89 l 163 89 z "},"Ў":{"ha":777,"x_min":14,"x_max":762,"o":"m 163 89 q 242 109 210 89 q 296 178 274 129 l 333 261 l 14 922 l 146 922 l 395 381 l 631 922 l 762 922 l 410 150 q 311 19 366 58 q 183 -19 256 -19 l 127 -19 l 127 89 l 163 89 z "},"Ф":{"ha":1078,"x_min":55,"x_max":1023,"o":"m 479 69 q 259 123 355 77 q 109 255 163 170 q 55 462 55 340 q 110 669 55 583 q 260 801 164 755 q 479 855 355 848 l 479 922 l 599 922 l 599 855 q 818 801 722 848 q 968 669 913 755 q 1023 462 1023 583 q 968 256 1023 341 q 818 124 913 170 q 599 69 722 77 l 599 0 l 479 0 l 479 69 m 479 743 q 327 707 396 739 q 217 614 258 675 q 176 462 176 552 q 217 311 176 372 q 327 217 258 249 q 479 182 396 186 l 479 743 m 599 182 q 751 217 682 186 q 861 311 820 249 q 903 462 903 372 q 861 614 903 552 q 751 707 820 675 q 599 743 682 739 l 599 182 z "},"Х":{"ha":896,"x_min":20,"x_max":876,"o":"m 373 479 l 43 922 l 186 922 l 448 564 l 710 922 l 852 922 l 523 479 l 876 0 l 733 0 l 448 395 l 163 0 l 20 0 l 373 479 z "},"Ч":{"ha":929,"x_min":108,"x_max":804,"o":"m 686 399 q 636 327 671 361 q 548 271 602 292 q 424 250 494 250 q 248 289 319 250 q 143 399 178 328 q 108 569 108 471 l 108 922 l 228 922 l 228 569 q 281 405 228 458 q 444 352 335 352 q 569 384 515 352 q 654 469 624 415 q 684 589 684 523 l 684 922 l 804 922 l 804 0 l 686 0 l 686 399 z "},"Ц":{"ha":1087,"x_min":125,"x_max":1024,"o":"m 904 0 l 125 0 l 125 922 l 245 922 l 245 108 l 755 108 l 755 922 l 875 922 l 875 108 l 1024 108 l 1024 -158 l 904 -158 l 904 0 z "},"Ш":{"ha":1422,"x_min":125,"x_max":1297,"o":"m 125 922 l 245 922 l 245 108 l 651 108 l 651 922 l 771 922 l 771 108 l 1177 108 l 1177 922 l 1297 922 l 1297 0 l 125 0 l 125 922 z "},"Щ":{"ha":1509,"x_min":125,"x_max":1445,"o":"m 1326 0 l 125 0 l 125 922 l 245 922 l 245 108 l 651 108 l 651 922 l 771 922 l 771 108 l 1177 108 l 1177 922 l 1297 922 l 1297 108 l 1445 108 l 1445 -158 l 1326 -158 l 1326 0 z "},"Џ":{"ha":1008,"x_min":125,"x_max":883,"o":"m 444 0 l 125 0 l 125 922 l 245 922 l 245 108 l 763 108 l 763 922 l 883 922 l 883 0 l 564 0 l 564 -157 l 444 -157 l 444 0 z "},"Ь":{"ha":861,"x_min":125,"x_max":806,"o":"m 245 922 l 245 577 l 503 577 q 659 539 589 577 q 767 435 728 501 q 806 289 806 370 q 767 143 806 209 q 658 38 728 77 q 500 0 588 0 l 125 0 l 125 922 l 245 922 m 496 108 q 594 132 551 108 q 662 198 637 157 q 686 290 686 239 q 662 380 686 339 q 595 445 638 421 q 497 469 551 469 l 245 469 l 245 108 l 496 108 z "},"Ъ":{"ha":977,"x_min":33,"x_max":924,"o":"m 33 819 l 33 922 l 362 922 l 362 577 l 623 577 q 779 538 710 577 q 885 434 847 500 q 924 289 924 368 q 883 141 924 207 q 772 38 843 75 q 613 0 701 0 l 242 0 l 242 819 l 33 819 m 608 108 q 708 132 663 108 q 778 197 753 155 q 804 290 804 238 q 780 379 804 338 q 714 445 757 420 q 618 469 672 469 l 362 469 l 362 108 l 608 108 z "},"Ы":{"ha":1209,"x_min":125,"x_max":1084,"o":"m 245 922 l 245 607 l 507 607 q 663 568 594 607 q 771 459 732 529 q 810 301 810 390 q 771 146 810 215 q 662 39 732 78 q 504 0 592 0 l 125 0 l 125 922 l 245 922 m 1084 922 l 1084 0 l 964 0 l 964 922 l 1084 922 m 245 108 l 500 108 q 596 134 553 108 q 665 205 640 160 q 690 302 690 250 q 666 402 690 357 q 597 473 641 447 q 501 498 554 498 l 245 498 l 245 108 z "},"Љ":{"ha":1500,"x_min":25,"x_max":1446,"o":"m 1142 577 q 1298 539 1229 577 q 1407 435 1368 501 q 1446 289 1446 370 q 1407 142 1446 208 q 1297 38 1367 77 q 1139 0 1227 0 l 765 0 l 765 813 l 299 813 l 299 234 q 237 44 299 108 q 64 -19 175 -19 l 25 -19 l 25 90 l 61 90 q 152 127 125 90 q 179 244 179 164 l 179 922 l 885 922 l 885 577 l 1142 577 m 1135 108 q 1234 132 1190 108 q 1301 198 1277 157 q 1326 290 1326 239 q 1302 380 1326 339 q 1234 445 1278 421 q 1137 469 1191 469 l 885 469 l 885 108 l 1135 108 z "},"Њ":{"ha":1472,"x_min":125,"x_max":1419,"o":"m 246 922 l 246 555 l 740 555 l 740 922 l 860 922 l 860 558 l 1110 558 q 1271 523 1200 558 q 1380 426 1341 488 q 1419 286 1419 364 q 1379 136 1419 201 q 1270 36 1340 71 q 1108 0 1199 0 l 740 0 l 740 452 l 246 452 l 246 0 l 125 0 l 125 922 l 246 922 m 1114 108 q 1208 131 1166 108 q 1275 193 1251 153 q 1299 281 1299 232 q 1275 367 1299 328 q 1208 428 1251 406 q 1116 450 1166 450 l 860 450 l 860 108 l 1114 108 z "},"Ѕ":{"ha":825,"x_min":51,"x_max":778,"o":"m 413 -20 q 213 21 294 -20 q 91 128 131 62 q 51 267 51 194 l 171 267 q 200 176 171 218 q 284 109 229 134 q 412 83 339 83 q 594 127 531 83 q 656 255 656 170 q 594 368 656 330 q 416 423 532 406 q 248 466 321 439 q 124 546 174 492 q 75 686 75 600 q 110 817 75 759 q 219 908 144 874 q 409 943 294 943 q 590 909 515 943 q 703 817 665 876 q 741 680 741 758 l 621 680 q 596 762 621 726 q 523 817 571 798 q 408 837 475 837 q 243 794 292 837 q 195 686 195 751 q 258 579 195 616 q 453 525 322 543 q 687 442 596 502 q 778 255 778 382 q 734 107 778 170 q 608 13 690 45 q 413 -20 526 -20 z "},"Є":{"ha":1036,"x_min":55,"x_max":980,"o":"m 532 93 q 737 150 650 93 q 857 315 824 207 l 980 315 q 889 132 956 208 q 731 19 823 57 q 536 -18 639 -18 q 293 46 403 -18 q 119 220 182 110 q 55 462 55 330 q 119 704 55 594 q 293 879 182 814 q 536 943 403 943 q 730 905 638 943 q 889 791 823 867 q 980 609 956 716 l 857 609 q 738 775 824 718 q 532 832 651 832 q 363 791 440 832 q 237 676 286 750 q 178 508 188 603 l 707 508 l 707 416 l 178 416 q 237 248 188 321 q 363 134 286 174 q 532 93 440 93 z "},"Э":{"ha":1036,"x_min":56,"x_max":981,"o":"m 500 943 q 743 879 633 943 q 917 704 853 814 q 981 462 981 594 q 917 220 981 330 q 743 46 853 110 q 500 -18 633 -18 q 304 19 397 -18 q 146 132 212 57 q 56 315 80 208 l 179 315 q 298 150 212 207 q 503 93 385 93 q 673 134 595 93 q 799 248 750 174 q 858 416 848 321 l 328 416 l 328 508 l 858 508 q 799 676 848 603 q 673 791 750 750 q 503 832 595 832 q 298 775 385 832 q 178 609 212 718 l 56 609 q 146 791 80 716 q 305 905 213 867 q 500 943 397 943 z "},"І":{"ha":371,"x_min":125,"x_max":245,"o":"m 125 922 l 245 922 l 245 0 l 125 0 l 125 922 z "},"Ї":{"ha":371,"x_min":3,"x_max":359,"o":"m 125 922 l 245 922 l 245 0 l 125 0 l 125 922 m 66 1036 q 21 1052 39 1036 q 3 1092 3 1068 q 21 1133 3 1116 q 66 1149 39 1149 q 113 1133 95 1149 q 131 1092 131 1116 q 113 1052 131 1068 q 66 1036 95 1036 m 295 1036 q 250 1052 267 1036 q 232 1092 232 1068 q 250 1133 232 1116 q 295 1149 267 1149 q 341 1133 323 1149 q 359 1092 359 1116 q 341 1052 359 1068 q 295 1036 323 1036 z "},"Ј":{"ha":588,"x_min":25,"x_max":480,"o":"m 156 109 q 264 135 217 109 q 336 209 311 161 q 361 322 361 258 l 361 922 l 480 922 l 480 316 q 439 148 480 220 q 324 38 397 77 q 155 0 250 0 l 25 0 l 25 109 l 156 109 z "},"Ћ":{"ha":1077,"x_min":33,"x_max":973,"o":"m 33 814 l 33 922 l 737 922 l 737 814 l 445 814 l 445 526 q 536 628 473 589 q 682 667 600 667 q 899 582 824 667 q 973 336 973 496 l 973 0 l 853 0 l 853 336 q 804 510 853 454 q 661 565 755 565 q 553 534 602 565 q 475 451 504 504 q 446 334 446 398 l 445 0 l 325 0 l 325 814 l 33 814 z "},"Ю":{"ha":1472,"x_min":125,"x_max":1412,"o":"m 919 943 q 1166 879 1053 943 q 1345 704 1279 814 q 1412 462 1412 594 q 1345 221 1412 331 q 1166 46 1279 111 q 919 -18 1053 -18 q 688 37 795 -18 q 513 190 581 93 q 430 405 444 286 l 245 406 l 245 0 l 125 0 l 125 922 l 245 922 l 245 501 l 428 501 q 506 725 438 625 q 683 884 574 826 q 919 943 791 943 m 919 93 q 1106 141 1021 93 q 1242 274 1192 190 q 1292 462 1292 359 q 1242 650 1292 565 q 1106 783 1192 734 q 919 832 1021 832 q 731 783 817 832 q 596 650 646 734 q 546 462 546 565 q 596 274 546 359 q 732 141 646 190 q 919 93 817 93 z "},"Я":{"ha":886,"x_min":42,"x_max":760,"o":"m 640 0 l 640 347 l 415 347 q 385 347 395 347 l 181 0 l 42 0 l 264 365 q 158 419 203 381 q 87 511 113 456 q 62 633 62 566 q 101 784 62 718 q 210 886 140 850 q 369 922 280 922 l 760 922 l 760 0 l 640 0 m 640 814 l 373 814 q 276 791 319 814 q 208 725 233 767 q 182 632 182 684 q 207 537 182 578 q 274 472 231 496 q 372 449 317 449 l 640 449 l 640 814 z "},"Ђ":{"ha":1077,"x_min":33,"x_max":973,"o":"m 682 667 q 899 582 824 667 q 973 336 973 496 l 973 3 q 917 -175 973 -113 q 750 -237 861 -237 l 666 -237 l 666 -140 l 734 -140 q 822 -102 791 -140 q 853 -5 853 -65 l 853 336 q 804 510 853 454 q 661 565 755 565 q 553 534 602 565 q 475 451 504 504 q 446 334 446 398 l 445 0 l 325 0 l 325 814 l 33 814 l 33 922 l 737 922 l 737 814 l 445 814 l 445 526 q 536 628 473 589 q 682 667 600 667 z "},"а":{"ha":886,"x_min":54,"x_max":774,"o":"m 388 -20 q 218 29 295 -20 q 98 162 142 78 q 54 346 54 245 q 98 529 54 446 q 218 662 142 613 q 387 711 295 711 q 553 666 480 711 q 662 543 627 621 l 662 692 l 774 692 l 774 0 l 662 0 l 662 147 q 553 25 627 70 q 388 -20 480 -20 m 414 90 q 537 123 481 90 q 625 216 593 157 q 658 346 658 275 q 625 475 658 416 q 536 568 592 534 q 414 602 481 602 q 291 569 347 602 q 202 477 235 536 q 170 346 170 419 q 202 213 170 271 q 291 122 235 155 q 414 90 347 90 z "},"б":{"ha":822,"x_min":54,"x_max":768,"o":"m 423 689 q 601 642 522 689 q 724 514 680 595 q 768 334 768 433 q 721 159 768 241 q 591 29 673 78 q 410 -20 509 -20 q 230 30 311 -20 q 101 164 148 80 q 54 348 54 249 l 54 422 q 144 732 54 619 q 382 886 235 844 l 427 899 q 511 924 480 913 q 564 950 543 935 q 585 987 585 966 l 697 987 q 659 892 697 929 q 571 837 621 855 q 453 801 522 818 q 433 796 443 798 q 414 791 423 793 q 244 695 311 760 q 172 534 177 629 q 275 647 208 606 q 423 689 341 689 m 412 90 q 533 124 477 90 q 620 214 588 157 q 652 335 652 270 q 620 456 652 399 q 533 546 588 513 q 412 580 477 580 q 290 547 345 580 q 202 458 235 514 q 170 335 170 401 q 202 214 170 270 q 290 124 235 157 q 412 90 346 90 z "},"в":{"ha":716,"x_min":112,"x_max":662,"o":"m 404 692 q 518 669 469 692 q 594 604 568 646 q 621 506 621 562 q 595 421 621 460 q 532 367 569 382 q 625 303 587 349 q 662 199 662 257 q 631 91 662 136 q 549 23 600 45 q 438 0 498 0 l 112 0 l 112 692 l 404 692 m 406 403 q 481 429 454 403 q 508 500 508 454 q 479 568 508 543 q 399 592 450 592 l 229 592 l 229 403 l 406 403 m 428 100 q 515 127 484 100 q 546 203 546 155 q 516 281 546 254 q 432 309 486 309 l 229 309 l 229 100 l 428 100 z "},"г":{"ha":574,"x_min":112,"x_max":551,"o":"m 112 692 l 551 692 l 551 591 l 229 591 l 229 0 l 112 0 l 112 692 z "},"ѓ":{"ha":574,"x_min":112,"x_max":551,"o":"m 112 692 l 551 692 l 551 591 l 229 591 l 229 0 l 112 0 l 112 692 m 387 1003 l 476 972 l 364 811 l 283 811 l 387 1003 z "},"ґ":{"ha":574,"x_min":112,"x_max":551,"o":"m 437 840 l 551 840 l 551 591 l 229 591 l 229 0 l 112 0 l 112 692 l 437 692 l 437 840 z "},"д":{"ha":840,"x_min":38,"x_max":789,"o":"m 96 99 q 176 257 146 165 q 214 476 206 349 l 229 692 l 718 692 l 718 99 l 789 99 l 789 -158 l 673 -158 l 673 0 l 155 0 l 155 -158 l 38 -158 l 38 99 l 96 99 m 602 592 l 332 592 l 323 439 q 289 244 316 323 q 215 99 262 164 l 602 99 l 602 592 z "},"е":{"ha":790,"x_min":54,"x_max":747,"o":"m 747 363 q 745 315 747 353 l 172 315 q 212 196 178 248 q 295 117 245 145 q 403 90 346 90 q 522 120 473 90 q 595 208 572 150 l 726 208 q 660 93 706 144 q 548 11 614 41 q 406 -19 482 -19 q 227 30 307 -19 q 100 162 146 79 q 54 346 54 245 q 100 530 54 446 q 227 663 146 614 q 406 711 307 711 q 581 664 503 711 q 703 536 659 616 q 747 363 747 456 m 628 418 q 593 509 625 467 q 512 576 562 551 q 404 602 461 602 q 304 580 351 602 q 223 517 257 559 q 177 418 190 476 l 628 418 z "},"ё":{"ha":790,"x_min":54,"x_max":747,"o":"m 747 363 q 745 315 747 353 l 172 315 q 212 196 178 248 q 295 117 245 145 q 403 90 346 90 q 522 120 473 90 q 595 208 572 150 l 726 208 q 660 93 706 144 q 548 11 614 41 q 406 -19 482 -19 q 227 30 307 -19 q 100 162 146 79 q 54 346 54 245 q 100 530 54 446 q 227 663 146 614 q 406 711 307 711 q 581 664 503 711 q 703 536 659 616 q 747 363 747 456 m 628 418 q 593 509 625 467 q 512 576 562 551 q 404 602 461 602 q 304 580 351 602 q 223 517 257 559 q 177 418 190 476 l 628 418 m 281 805 q 235 821 253 805 q 217 861 217 838 q 235 902 217 886 q 281 918 253 918 q 327 902 309 918 q 345 861 345 886 q 327 821 345 838 q 281 805 309 805 m 509 805 q 464 821 481 805 q 446 861 446 838 q 464 902 446 886 q 509 918 481 918 q 556 902 538 918 q 574 861 574 886 q 556 821 574 838 q 509 805 538 805 z "},"ж":{"ha":962,"x_min":10,"x_max":951,"o":"m 720 363 l 951 0 l 811 0 l 633 296 l 539 296 l 539 0 l 422 0 l 422 296 l 328 296 l 151 0 l 10 0 l 241 363 l 30 692 l 168 692 l 337 412 l 422 412 l 422 691 l 539 691 l 539 412 l 625 412 l 793 692 l 932 692 l 720 363 z "},"з":{"ha":695,"x_min":54,"x_max":642,"o":"m 349 -20 q 199 12 264 -20 q 96 98 134 43 q 54 222 58 153 l 168 222 q 195 149 171 180 q 258 102 219 118 q 345 86 297 86 q 474 115 426 86 q 522 194 522 144 q 473 276 522 247 q 344 305 424 305 l 246 305 l 246 408 l 344 408 q 427 421 389 408 q 487 460 465 435 q 510 517 510 486 q 472 581 510 557 q 353 604 433 604 q 229 571 275 604 q 179 466 182 537 l 67 466 q 104 596 69 541 q 204 682 140 652 q 356 711 269 711 q 496 689 435 711 q 591 622 557 666 q 625 517 625 578 q 604 447 625 479 q 548 392 583 414 q 473 363 513 370 q 556 333 518 355 q 618 276 595 311 q 642 195 642 240 q 564 33 642 86 q 349 -20 486 -20 z "},"и":{"ha":845,"x_min":112,"x_max":733,"o":"m 112 692 l 229 692 l 229 191 l 230 191 l 628 692 l 733 692 l 733 0 l 616 0 l 616 500 l 615 500 l 218 0 l 112 0 l 112 692 z "},"й":{"ha":845,"x_min":112,"x_max":733,"o":"m 112 692 l 229 692 l 229 191 l 230 191 l 628 692 l 733 692 l 733 0 l 616 0 l 616 500 l 615 500 l 218 0 l 112 0 l 112 692 z "},"к":{"ha":707,"x_min":112,"x_max":696,"o":"m 112 691 l 229 691 l 229 412 l 348 412 l 538 692 l 677 692 l 444 363 l 696 0 l 556 0 l 356 296 l 229 296 l 229 0 l 112 0 l 112 691 z "},"ќ":{"ha":707,"x_min":112,"x_max":696,"o":"m 112 691 l 229 691 l 229 412 l 348 412 l 538 692 l 677 692 l 444 363 l 696 0 l 556 0 l 356 296 l 229 296 l 229 0 l 112 0 l 112 691 m 425 971 l 513 941 l 401 779 l 320 779 l 425 971 z "},"л":{"ha":884,"x_min":38,"x_max":772,"o":"m 38 100 l 64 100 q 138 135 113 100 q 163 232 163 170 l 163 692 l 772 692 l 772 0 l 655 0 l 655 592 l 280 592 l 280 227 q 254 103 280 155 q 180 26 227 52 q 71 0 133 0 l 38 0 l 38 100 z "},"м":{"ha":951,"x_min":112,"x_max":840,"o":"m 112 692 l 218 692 l 475 370 l 734 692 l 840 692 l 840 0 l 724 0 l 724 505 l 723 505 l 503 222 l 447 222 l 229 507 l 229 507 l 229 0 l 112 0 l 112 692 z "},"н":{"ha":837,"x_min":112,"x_max":725,"o":"m 112 692 l 228 692 l 228 406 l 609 406 l 609 692 l 725 692 l 725 0 l 609 0 l 609 298 l 228 298 l 228 0 l 112 0 l 112 692 z "},"о":{"ha":827,"x_min":54,"x_max":774,"o":"m 413 -20 q 230 29 313 -20 q 101 162 148 78 q 54 346 54 245 q 101 530 54 446 q 230 663 148 614 q 413 711 312 711 q 597 663 514 711 q 727 530 680 614 q 774 346 774 446 q 727 162 774 245 q 597 29 680 78 q 413 -20 515 -20 m 414 90 q 538 123 482 90 q 625 215 593 157 q 657 346 657 273 q 625 476 657 418 q 538 568 593 534 q 414 602 482 602 q 291 568 347 602 q 202 476 235 534 q 170 346 170 418 q 202 215 170 273 q 291 123 235 157 q 414 90 347 90 z "},"п":{"ha":837,"x_min":112,"x_max":726,"o":"m 112 692 l 726 692 l 726 0 l 610 0 l 610 591 l 228 591 l 228 0 l 112 0 l 112 692 z "},"р":{"ha":886,"x_min":112,"x_max":831,"o":"m 224 692 l 224 544 q 332 665 261 618 q 490 711 403 711 q 664 662 586 711 q 787 529 742 613 q 831 346 831 446 q 787 162 831 245 q 664 29 742 78 q 492 -20 587 -20 q 335 25 406 -20 q 227 144 263 69 l 229 66 l 229 -236 l 112 -236 l 112 692 l 224 692 m 471 89 q 594 121 538 89 q 683 213 650 154 q 715 346 715 271 q 683 477 715 419 q 594 569 650 536 q 471 602 538 602 q 349 568 405 602 q 260 475 293 534 q 228 346 228 416 q 261 215 228 274 q 350 122 294 156 q 471 89 406 89 z "},"с":{"ha":782,"x_min":54,"x_max":739,"o":"m 407 -20 q 228 30 309 -20 q 100 162 147 79 q 54 346 54 246 q 100 529 54 446 q 228 662 147 613 q 407 711 309 711 q 555 680 488 711 q 670 593 623 648 q 739 465 718 537 l 618 465 q 536 566 592 531 q 408 602 479 602 q 292 570 347 602 q 204 480 237 538 q 170 346 170 422 q 204 211 170 269 q 292 121 237 153 q 408 90 347 90 q 536 126 479 90 q 618 232 592 163 l 738 232 q 671 100 718 157 q 556 12 624 43 q 407 -20 488 -20 z "},"т":{"ha":581,"x_min":7,"x_max":543,"o":"m 337 593 l 337 236 q 361 131 337 163 q 444 98 386 98 l 469 98 l 469 0 l 423 0 q 271 58 321 0 q 220 235 220 116 l 220 593 l 7 593 l 7 692 l 543 692 l 543 593 l 337 593 z "},"у":{"ha":711,"x_min":29,"x_max":702,"o":"m 149 -138 q 216 -123 190 -138 q 259 -80 241 -109 q 296 1 277 -52 l 304 20 l 29 692 l 153 692 l 349 203 l 366 142 l 383 202 l 578 691 l 702 692 l 429 19 q 353 -137 388 -83 q 271 -213 318 -190 q 149 -236 224 -236 l 35 -236 l 35 -138 l 149 -138 z "},"ў":{"ha":711,"x_min":29,"x_max":702,"o":"m 149 -138 q 216 -123 190 -138 q 259 -80 241 -109 q 296 1 277 -52 l 304 20 l 29 692 l 153 692 l 349 203 l 366 142 l 383 202 l 578 691 l 702 692 l 429 19 q 353 -137 388 -83 q 271 -213 318 -190 q 149 -236 224 -236 l 35 -236 l 35 -138 l 149 -138 z "},"ф":{"ha":925,"x_min":54,"x_max":871,"o":"m 406 -11 q 241 30 322 -11 q 107 151 160 70 q 54 346 54 232 q 97 524 54 444 q 220 651 140 604 q 406 702 300 699 l 406 961 l 520 961 l 520 701 q 683 661 602 701 q 817 541 764 621 q 871 346 871 460 q 818 151 871 231 q 683 30 764 71 q 520 -10 602 -10 l 520 -236 l 406 -236 l 406 -11 m 406 601 q 283 567 336 600 q 200 477 229 535 q 170 346 170 420 q 200 214 170 272 q 283 124 229 157 q 406 91 336 92 l 406 601 m 520 91 q 643 124 589 92 q 725 214 696 157 q 755 346 755 272 q 725 477 755 420 q 643 567 696 534 q 520 600 589 599 l 520 91 z "},"х":{"ha":696,"x_min":26,"x_max":669,"o":"m 267 353 l 33 692 l 171 692 l 347 431 l 348 431 l 525 692 l 663 692 l 429 353 l 669 0 l 529 0 l 347 270 l 163 0 l 26 0 l 267 353 z "},"ч":{"ha":817,"x_min":77,"x_max":705,"o":"m 593 0 l 593 256 q 349 170 492 170 q 147 256 217 170 q 77 507 77 341 l 77 692 l 194 692 l 194 509 q 243 336 194 393 q 379 279 292 279 q 468 291 429 279 q 530 318 507 303 q 589 359 554 333 l 589 692 l 705 692 l 705 0 l 593 0 z "},"ц":{"ha":871,"x_min":112,"x_max":820,"o":"m 705 0 l 112 0 l 112 692 l 229 692 l 229 100 l 621 100 l 621 692 l 738 692 l 738 100 l 820 100 l 820 -154 l 705 -154 l 705 0 z "},"ш":{"ha":1230,"x_min":112,"x_max":1118,"o":"m 112 692 l 229 692 l 229 101 l 556 101 l 556 692 l 673 692 l 673 101 l 1001 101 l 1001 692 l 1118 692 l 1118 0 l 112 0 l 112 692 z "},"щ":{"ha":1251,"x_min":112,"x_max":1200,"o":"m 1084 0 l 112 0 l 112 692 l 229 692 l 229 101 l 557 101 l 557 692 l 673 692 l 673 101 l 1001 101 l 1001 692 l 1118 692 l 1118 101 l 1200 101 l 1200 -154 l 1084 -154 l 1084 0 z "},"џ":{"ha":836,"x_min":112,"x_max":724,"o":"m 359 0 l 112 0 l 112 692 l 228 692 l 228 104 l 608 104 l 608 692 l 724 692 l 724 0 l 477 0 l 477 -154 l 359 -154 l 359 0 z "},"ь":{"ha":771,"x_min":112,"x_max":717,"o":"m 229 692 l 229 441 l 493 441 q 605 414 553 441 q 686 337 656 387 q 717 221 717 287 q 686 105 717 156 q 603 27 655 55 q 491 0 551 0 l 112 0 l 112 692 l 229 692 m 488 102 q 545 118 519 102 q 587 162 572 134 q 602 221 602 189 q 587 280 602 253 q 546 324 572 308 q 489 340 520 340 l 229 340 l 229 102 l 488 102 z "},"ъ":{"ha":797,"x_min":7,"x_max":743,"o":"m 7 591 l 7 692 l 254 692 l 254 441 l 519 441 q 631 414 579 441 q 713 337 682 387 q 743 221 743 287 q 712 105 743 156 q 629 27 681 55 q 517 0 577 0 l 138 0 l 138 591 l 7 591 m 513 102 q 571 118 545 102 q 612 162 597 134 q 628 221 628 189 q 613 280 628 253 q 572 324 597 308 q 515 340 546 340 l 254 340 l 254 102 l 513 102 z "},"ы":{"ha":1074,"x_min":112,"x_max":962,"o":"m 845 696 l 962 696 l 962 7 l 845 7 l 845 696 m 229 692 l 229 441 l 493 441 q 605 414 553 441 q 686 337 656 387 q 717 221 717 287 q 686 105 717 156 q 603 27 655 55 q 491 0 551 0 l 112 0 l 112 692 l 229 692 m 488 102 q 545 118 519 102 q 587 162 572 134 q 602 221 602 189 q 587 280 602 253 q 546 324 572 308 q 489 340 520 340 l 229 340 l 229 102 l 488 102 z "},"љ":{"ha":1274,"x_min":38,"x_max":1220,"o":"m 38 102 l 66 102 q 144 136 119 102 q 170 233 170 170 l 170 692 l 758 692 l 758 441 l 996 441 q 1107 414 1056 441 q 1189 336 1158 387 q 1220 221 1220 286 q 1189 105 1220 156 q 1106 27 1158 55 q 994 0 1054 0 l 642 0 l 642 590 l 287 590 l 287 221 q 260 99 287 149 q 184 25 233 50 q 72 0 136 0 l 38 0 l 38 102 m 990 102 q 1048 118 1021 102 q 1089 162 1074 134 q 1105 221 1105 189 q 1089 280 1105 253 q 1048 324 1074 308 q 991 340 1023 340 l 758 340 l 758 102 l 990 102 z "},"њ":{"ha":1227,"x_min":112,"x_max":1173,"o":"m 228 692 l 228 439 l 592 439 l 592 692 l 707 692 l 707 441 l 949 441 q 1061 414 1009 441 q 1143 337 1112 387 q 1173 221 1173 287 q 1142 105 1173 156 q 1059 27 1111 55 q 947 0 1008 0 l 592 0 l 592 337 l 228 337 l 228 0 l 112 0 l 112 692 l 228 692 m 944 102 q 1001 118 975 102 q 1043 162 1027 134 q 1059 221 1059 189 q 1043 280 1059 253 q 1002 324 1028 308 q 945 340 977 340 l 707 340 l 707 102 l 944 102 z "},"ѕ":{"ha":669,"x_min":54,"x_max":621,"o":"m 342 -20 q 185 13 250 -20 q 86 98 119 45 q 54 212 54 151 l 166 212 q 188 142 167 174 q 249 93 209 111 q 344 75 289 75 q 462 105 421 75 q 503 189 503 136 q 483 249 503 227 q 426 282 463 271 q 328 304 389 294 q 151 367 216 321 q 86 509 86 412 q 114 612 86 566 q 198 685 142 659 q 334 711 254 711 q 473 685 412 711 q 566 611 533 659 q 600 504 600 564 l 485 504 q 442 584 482 554 q 334 614 402 614 q 235 585 269 614 q 201 511 201 555 q 216 458 201 478 q 267 424 231 437 q 368 399 302 410 q 498 368 444 387 q 586 308 551 349 q 621 195 621 266 q 586 78 621 126 q 489 5 551 29 q 342 -20 426 -20 z "},"є":{"ha":792,"x_min":54,"x_max":739,"o":"m 416 82 q 543 121 486 82 q 627 223 600 159 l 738 223 q 672 98 718 153 q 558 12 625 43 q 414 -20 492 -20 q 230 29 313 -20 q 101 162 148 78 q 54 346 54 246 q 101 530 54 446 q 230 663 148 614 q 414 711 313 711 q 559 680 492 711 q 672 594 626 649 q 739 469 718 538 l 627 469 q 543 571 601 532 q 416 610 486 610 q 302 583 356 610 q 211 503 248 555 q 168 383 175 452 l 451 383 l 451 309 l 169 309 q 214 188 178 239 q 303 110 250 137 q 416 82 357 82 z "},"э":{"ha":793,"x_min":54,"x_max":739,"o":"m 379 711 q 562 663 480 711 q 691 530 644 614 q 739 346 739 446 q 691 162 739 246 q 562 29 644 78 q 379 -20 480 -20 q 234 12 301 -20 q 120 98 167 43 q 54 223 74 153 l 165 223 q 250 120 193 159 q 377 82 307 82 q 489 110 436 82 q 578 188 543 137 q 623 309 614 239 l 342 309 l 342 383 l 625 383 q 581 503 617 452 q 491 583 545 555 q 377 610 437 610 q 249 572 307 610 q 165 469 192 533 l 54 469 q 120 594 74 538 q 234 680 167 649 q 379 711 300 711 z "},"і":{"ha":340,"x_min":91,"x_max":250,"o":"m 170 827 q 113 848 134 827 q 91 901 91 869 q 113 954 91 932 q 170 975 134 975 q 228 954 206 975 q 250 901 250 932 q 228 848 250 869 q 170 827 206 827 m 112 692 l 229 692 l 229 0 l 112 0 l 112 692 z "},"ї":{"ha":340,"x_min":-12,"x_max":345,"o":"m 112 692 l 229 692 l 229 0 l 112 0 l 112 692 m 52 805 q 6 821 24 805 q -12 861 -12 838 q 6 902 -12 886 q 52 918 24 918 q 98 902 80 918 q 116 861 116 886 q 98 821 116 838 q 52 805 80 805 m 280 805 q 235 821 252 805 q 217 861 217 838 q 235 902 217 886 q 280 918 252 918 q 327 902 309 918 q 345 861 345 886 q 327 821 345 838 q 280 805 309 805 z "},"ј":{"ha":348,"x_min":-71,"x_max":236,"o":"m 1 -140 q 88 -102 57 -140 q 119 -5 119 -65 l 119 692 l 236 692 l 236 3 q 180 -175 236 -113 q 13 -237 123 -237 l -71 -237 l -71 -140 l 1 -140 z "},"ћ":{"ha":863,"x_min":-33,"x_max":759,"o":"m 479 711 q 688 626 616 711 q 759 375 759 541 l 759 0 l 642 0 l 642 373 q 592 546 642 490 q 449 602 542 602 q 340 572 391 602 q 259 487 290 541 q 229 363 229 432 l 229 0 l 112 0 l 112 839 l -33 839 l -33 930 l 112 930 l 112 955 l 229 955 l 229 930 l 406 930 l 406 839 l 229 839 l 229 634 l 227 560 q 326 670 258 629 q 479 711 393 711 z "},"ю":{"ha":1168,"x_min":112,"x_max":1114,"o":"m 753 711 q 937 663 854 711 q 1067 530 1020 614 q 1114 346 1114 446 q 1067 162 1114 245 q 938 29 1020 78 q 753 -20 855 -20 q 573 28 654 -20 q 444 157 492 75 q 394 336 396 238 l 229 336 l 229 0 l 112 0 l 112 692 l 229 692 l 229 434 l 404 434 q 472 576 422 513 q 595 675 522 640 q 753 711 668 711 m 755 90 q 878 123 823 90 q 966 215 934 157 q 998 346 998 273 q 966 476 998 418 q 878 568 934 534 q 755 602 823 602 q 631 568 687 602 q 543 476 575 534 q 511 346 511 418 q 543 215 511 273 q 631 123 575 157 q 755 90 687 90 z "},"я":{"ha":733,"x_min":58,"x_max":617,"o":"m 235 250 q 127 328 168 271 q 87 461 87 385 q 118 580 87 527 q 204 663 149 633 q 329 692 259 692 l 617 692 l 617 0 l 501 0 l 501 231 l 349 231 l 189 0 l 58 0 l 235 250 m 501 593 l 333 593 q 267 575 296 593 q 220 527 237 557 q 203 461 203 497 q 220 395 203 425 q 266 348 237 365 q 332 330 296 330 l 501 330 l 501 593 z "},"ђ":{"ha":884,"x_min":7,"x_max":781,"o":"m 500 711 q 709 626 637 711 q 781 375 781 541 l 781 3 q 724 -175 781 -113 q 557 -237 668 -237 l 473 -237 l 473 -140 l 545 -140 q 632 -102 602 -140 q 663 -5 663 -65 l 663 373 q 613 546 663 490 q 470 602 563 602 q 362 572 412 602 q 281 487 311 541 q 250 363 250 432 l 250 0 l 133 0 l 133 823 l 7 823 l 7 897 l 133 897 l 133 955 l 250 955 l 250 897 l 365 897 l 365 823 l 250 823 l 250 634 l 248 560 q 347 670 279 629 q 500 711 414 711 z "},"ѵ":{"ha":690,"x_min":9,"x_max":682,"o":"m 9 692 l 133 692 l 328 203 l 345 142 l 361 203 l 557 692 l 682 692 l 400 0 l 290 0 l 9 692 z "},"ә":{"ha":790,"x_min":43,"x_max":736,"o":"m 385 711 q 564 662 483 711 q 690 530 644 613 q 736 346 736 446 q 690 162 736 246 q 563 29 644 78 q 385 -20 483 -20 q 209 28 288 -20 q 87 156 131 76 q 43 329 43 236 q 45 376 43 339 l 618 376 q 578 496 612 444 q 495 575 545 547 q 387 602 445 602 q 268 572 317 602 q 195 484 218 542 l 64 484 q 130 599 84 547 q 242 681 176 651 q 385 711 308 711 m 387 90 q 486 112 439 90 q 567 174 533 133 q 613 273 600 216 l 162 273 q 197 182 165 224 q 278 115 228 140 q 387 90 329 90 z "},"Α":{"ha":913,"x_min":9,"x_max":905,"o":"m 777 0 l 690 209 l 224 209 l 136 0 l 9 0 l 399 922 l 515 922 l 905 0 l 777 0 m 267 311 l 647 311 l 461 753 l 458 769 l 456 769 l 452 753 l 267 311 z "},"Β":{"ha":890,"x_min":125,"x_max":836,"o":"m 519 922 q 655 892 595 922 q 749 806 715 861 q 783 680 783 751 q 767 600 783 638 q 723 532 751 561 q 661 488 695 503 q 749 440 709 473 q 813 360 789 406 q 836 260 836 313 q 798 121 836 180 q 695 31 759 62 q 558 0 631 0 l 125 0 l 125 922 l 519 922 m 514 522 q 588 542 555 522 q 642 596 622 562 q 661 671 661 630 q 642 745 661 711 q 588 798 622 779 q 515 818 555 818 l 247 818 l 247 522 l 514 522 m 549 106 q 632 127 594 106 q 691 186 669 149 q 713 269 713 223 q 691 349 713 313 q 632 408 669 386 q 550 429 595 429 l 247 429 l 247 106 l 549 106 z "},"Γ":{"ha":671,"x_min":125,"x_max":637,"o":"m 637 922 l 637 814 l 245 814 l 245 0 l 125 0 l 125 922 l 637 922 z "},"Δ":{"ha":901,"x_min":37,"x_max":867,"o":"m 37 83 l 393 922 l 509 922 l 867 83 l 867 0 l 37 0 l 37 83 m 733 102 l 460 739 l 452 766 l 443 739 l 170 102 l 733 102 z "},"Ε":{"ha":793,"x_min":125,"x_max":745,"o":"m 125 922 l 739 922 l 739 813 l 245 813 l 245 521 l 674 521 l 674 418 l 245 418 l 245 109 l 745 109 l 745 0 l 125 0 l 125 922 z "},"Ζ":{"ha":846,"x_min":50,"x_max":801,"o":"m 50 92 l 617 820 l 79 820 l 79 922 l 775 922 l 775 832 l 208 102 l 801 102 l 801 0 l 52 0 l 50 92 z "},"Η":{"ha":1025,"x_min":125,"x_max":899,"o":"m 125 922 l 245 922 l 245 516 l 779 516 l 779 922 l 899 922 l 899 0 l 779 0 l 779 408 l 245 408 l 245 0 l 125 0 l 125 922 z "},"Θ":{"ha":1113,"x_min":64,"x_max":1049,"o":"m 556 -18 q 309 46 422 -18 q 130 221 196 111 q 64 462 64 331 q 130 704 64 594 q 309 879 196 814 q 556 943 422 943 q 803 879 690 943 q 983 704 916 814 q 1049 462 1049 594 q 983 221 1049 331 q 803 46 916 111 q 556 -18 690 -18 m 556 93 q 744 141 658 93 q 879 274 829 190 q 929 462 929 359 q 879 650 929 565 q 744 783 829 734 q 556 832 658 832 q 369 783 454 832 q 233 650 283 734 q 183 462 183 565 q 233 274 183 359 q 369 141 283 190 q 556 93 454 93 m 279 505 l 836 505 l 836 412 l 279 412 l 279 505 z "},"Ι":{"ha":371,"x_min":125,"x_max":245,"o":"m 125 922 l 245 922 l 245 0 l 125 0 l 125 922 z "},"Κ":{"ha":898,"x_min":125,"x_max":883,"o":"m 496 515 l 883 0 l 739 0 l 418 427 l 245 216 l 245 0 l 125 0 l 125 922 l 245 922 l 245 376 l 690 922 l 831 922 l 496 515 z "},"Λ":{"ha":913,"x_min":9,"x_max":905,"o":"m 399 922 l 515 922 l 905 0 l 777 0 l 461 753 l 458 769 l 456 769 l 452 753 l 136 0 l 9 0 l 399 922 z "},"Μ":{"ha":1161,"x_min":125,"x_max":1036,"o":"m 125 922 l 229 922 l 580 457 l 581 457 l 930 922 l 1036 922 l 1036 0 l 916 0 l 916 728 l 597 303 l 562 303 l 245 729 l 245 0 l 125 0 l 125 922 z "},"Ν":{"ha":1040,"x_min":125,"x_max":915,"o":"m 795 922 l 915 922 l 915 0 l 813 0 l 245 721 l 245 0 l 125 0 l 125 922 l 227 922 l 795 199 l 795 199 l 795 922 z "},"Ξ":{"ha":704,"x_min":49,"x_max":654,"o":"m 56 922 l 648 922 l 648 814 l 56 814 l 56 922 m 112 520 l 584 520 l 584 418 l 112 418 l 112 520 m 49 109 l 654 109 l 654 0 l 49 0 l 49 109 z "},"Ο":{"ha":1096,"x_min":55,"x_max":1041,"o":"m 547 -18 q 300 46 414 -18 q 121 221 187 111 q 55 462 55 331 q 121 704 55 594 q 300 879 187 814 q 547 943 413 943 q 795 879 682 943 q 975 704 908 814 q 1041 462 1041 594 q 975 221 1041 331 q 795 46 908 111 q 547 -18 682 -18 m 547 93 q 735 141 650 93 q 871 274 821 190 q 921 462 921 359 q 871 650 921 565 q 735 783 821 734 q 547 832 650 832 q 360 783 446 832 q 225 650 275 734 q 175 462 175 565 q 225 274 175 359 q 360 141 275 190 q 547 93 446 93 z "},"Π":{"ha":1012,"x_min":122,"x_max":896,"o":"m 122 922 l 896 922 l 896 0 l 776 0 l 776 814 l 243 814 l 243 0 l 122 0 l 122 922 z "},"Ρ":{"ha":838,"x_min":125,"x_max":810,"o":"m 504 922 q 662 883 592 922 q 771 776 732 844 q 810 621 810 707 q 771 463 810 532 q 663 354 732 393 q 507 315 594 315 l 245 315 l 245 0 l 125 0 l 125 922 l 504 922 m 501 424 q 597 450 554 424 q 666 520 641 475 q 690 621 690 566 q 665 718 690 673 q 596 788 640 762 q 500 814 553 814 l 245 814 l 245 424 l 501 424 z "},"Σ":{"ha":696,"x_min":49,"x_max":646,"o":"m 49 71 l 335 465 l 49 851 l 49 922 l 646 922 l 646 814 l 217 814 l 472 465 l 217 108 l 646 108 l 646 0 l 49 0 l 49 71 z "},"Τ":{"ha":771,"x_min":33,"x_max":737,"o":"m 325 814 l 33 814 l 33 922 l 737 922 l 737 814 l 445 814 l 445 0 l 325 0 l 325 814 z "},"Υ":{"ha":893,"x_min":14,"x_max":879,"o":"m 387 353 l 14 922 l 155 922 l 446 461 l 447 461 l 736 922 l 879 922 l 506 354 l 507 0 l 387 0 l 387 353 z "},"Φ":{"ha":1078,"x_min":55,"x_max":1023,"o":"m 479 69 q 259 123 355 77 q 109 255 163 170 q 55 462 55 340 q 110 669 55 583 q 260 801 164 755 q 479 855 355 848 l 479 922 l 599 922 l 599 855 q 818 801 722 848 q 968 669 913 755 q 1023 462 1023 583 q 968 256 1023 341 q 818 124 913 170 q 599 69 722 77 l 599 0 l 479 0 l 479 69 m 479 743 q 327 707 396 739 q 217 614 258 675 q 176 462 176 552 q 217 311 176 372 q 327 217 258 249 q 479 182 396 186 l 479 743 m 599 182 q 751 217 682 186 q 861 311 820 249 q 903 462 903 372 q 861 614 903 552 q 751 707 820 675 q 599 743 682 739 l 599 182 z "},"Χ":{"ha":896,"x_min":20,"x_max":876,"o":"m 373 479 l 43 922 l 186 922 l 448 564 l 710 922 l 852 922 l 523 479 l 876 0 l 733 0 l 448 395 l 163 0 l 20 0 l 373 479 z "},"Ψ":{"ha":1050,"x_min":108,"x_max":943,"o":"m 465 222 q 277 276 358 229 q 152 401 197 323 q 108 580 108 480 l 108 922 l 228 922 l 228 585 q 257 457 228 514 q 340 365 287 399 q 465 326 394 330 l 465 922 l 585 922 l 585 326 q 715 363 661 329 q 796 454 768 397 q 823 586 823 512 l 823 922 l 943 922 l 943 580 q 897 394 943 473 q 770 272 851 315 q 585 222 690 229 l 585 0 l 465 0 l 465 222 z "},"Ω":{"ha":994,"x_min":55,"x_max":939,"o":"m 306 85 q 273 169 298 131 q 197 259 247 207 q 123 346 151 308 q 75 435 95 383 q 55 552 55 487 q 111 762 55 674 q 266 897 166 850 q 497 943 366 943 q 728 897 628 943 q 883 762 827 850 q 939 552 939 674 q 919 435 939 487 q 870 345 899 382 q 796 258 842 307 q 743 199 763 222 q 708 146 724 175 q 688 85 693 117 l 924 103 l 924 0 l 586 0 l 586 66 q 602 157 586 115 q 641 230 618 198 q 702 309 663 262 q 764 387 741 354 q 803 460 787 419 q 819 551 819 502 q 779 707 819 642 q 667 806 740 772 q 497 840 595 840 q 327 806 399 840 q 215 707 254 772 q 175 551 175 642 q 191 462 175 503 q 229 390 206 421 q 290 313 252 359 q 353 235 330 268 q 392 160 376 203 q 408 66 408 118 l 408 0 l 70 0 l 70 103 l 306 85 z "},"Ά":{"ha":913,"x_min":9,"x_max":905,"o":"m 777 0 l 690 209 l 224 209 l 136 0 l 9 0 l 399 922 l 515 922 l 905 0 l 777 0 m 267 311 l 647 311 l 461 753 l 458 769 l 456 769 l 452 753 l 267 311 m 71 922 l 172 922 l 160 706 l 81 706 l 71 922 z "},"Έ":{"ha":793,"x_min":-87,"x_max":745,"o":"m 125 922 l 739 922 l 739 813 l 245 813 l 245 521 l 674 521 l 674 418 l 245 418 l 245 109 l 745 109 l 745 0 l 125 0 l 125 922 m -87 922 l 14 922 l 2 706 l -77 706 l -87 922 z "},"Ή":{"ha":1025,"x_min":-87,"x_max":899,"o":"m 125 922 l 245 922 l 245 516 l 779 516 l 779 922 l 899 922 l 899 0 l 779 0 l 779 408 l 245 408 l 245 0 l 125 0 l 125 922 m -87 922 l 14 922 l 2 706 l -77 706 l -87 922 z "},"Ί":{"ha":371,"x_min":-87,"x_max":245,"o":"m 125 922 l 245 922 l 245 0 l 125 0 l 125 922 m -87 922 l 14 922 l 2 706 l -77 706 l -87 922 z "},"Ό":{"ha":1096,"x_min":-87,"x_max":1041,"o":"m 547 -18 q 300 46 414 -18 q 121 221 187 111 q 55 462 55 331 q 121 704 55 594 q 300 879 187 814 q 547 943 413 943 q 795 879 682 943 q 975 704 908 814 q 1041 462 1041 594 q 975 221 1041 331 q 795 46 908 111 q 547 -18 682 -18 m 547 93 q 735 141 650 93 q 871 274 821 190 q 921 462 921 359 q 871 650 921 565 q 735 783 821 734 q 547 832 650 832 q 360 783 446 832 q 225 650 275 734 q 175 462 175 565 q 225 274 175 359 q 360 141 275 190 q 547 93 446 93 m -87 922 l 14 922 l 2 706 l -77 706 l -87 922 z "},"Ύ":{"ha":893,"x_min":-87,"x_max":879,"o":"m 387 353 l 14 922 l 155 922 l 446 461 l 447 461 l 736 922 l 879 922 l 506 354 l 507 0 l 387 0 l 387 353 m -87 922 l 14 922 l 2 706 l -77 706 l -87 922 z "},"Ώ":{"ha":994,"x_min":-95,"x_max":939,"o":"m 306 85 q 273 169 298 131 q 197 259 247 207 q 123 346 151 308 q 75 435 95 383 q 55 552 55 487 q 111 762 55 674 q 266 897 166 850 q 497 943 366 943 q 728 897 628 943 q 883 762 827 850 q 939 552 939 674 q 919 435 939 487 q 870 345 899 382 q 796 258 842 307 q 743 199 763 222 q 708 146 724 175 q 688 85 693 117 l 924 103 l 924 0 l 586 0 l 586 66 q 602 157 586 115 q 641 230 618 198 q 702 309 663 262 q 764 387 741 354 q 803 460 787 419 q 819 551 819 502 q 779 707 819 642 q 667 806 740 772 q 497 840 595 840 q 327 806 399 840 q 215 707 254 772 q 175 551 175 642 q 191 462 175 503 q 229 390 206 421 q 290 313 252 359 q 353 235 330 268 q 392 160 376 203 q 408 66 408 118 l 408 0 l 70 0 l 70 103 l 306 85 m -95 922 l 5 922 l -6 706 l -85 706 l -95 922 z "},"Ϊ":{"ha":371,"x_min":6,"x_max":363,"o":"m 125 922 l 245 922 l 245 0 l 125 0 l 125 922 m 70 1017 q 24 1033 42 1017 q 6 1073 6 1049 q 24 1114 6 1097 q 70 1130 42 1130 q 116 1114 98 1130 q 134 1073 134 1097 q 116 1033 134 1049 q 70 1017 98 1017 m 298 1017 q 253 1033 271 1017 q 235 1073 235 1049 q 253 1114 235 1097 q 298 1130 271 1130 q 345 1114 327 1130 q 363 1073 363 1097 q 345 1033 363 1049 q 298 1017 327 1017 z "},"Ϋ":{"ha":893,"x_min":14,"x_max":879,"o":"m 387 353 l 14 922 l 155 922 l 446 461 l 447 461 l 736 922 l 879 922 l 506 354 l 507 0 l 387 0 l 387 353 m 332 1017 q 286 1033 304 1017 q 268 1073 268 1049 q 286 1114 268 1097 q 332 1130 304 1130 q 378 1114 360 1130 q 396 1073 396 1097 q 378 1033 396 1049 q 332 1017 360 1017 m 560 1017 q 515 1033 532 1017 q 497 1073 497 1049 q 515 1114 497 1097 q 560 1130 532 1130 q 607 1114 589 1130 q 625 1073 625 1097 q 607 1033 625 1049 q 560 1017 589 1017 z "},"α":{"ha":924,"x_min":54,"x_max":812,"o":"m 397 -20 q 220 29 298 -20 q 97 161 141 77 q 54 346 54 245 q 98 530 54 446 q 221 663 142 614 q 399 711 300 711 q 524 684 468 711 q 618 612 581 656 q 677 517 656 568 l 696 692 l 812 692 l 773 347 l 812 0 l 693 0 l 673 176 q 560 32 630 83 q 397 -20 490 -20 m 414 90 q 531 125 480 90 q 614 219 583 161 q 657 346 646 277 q 617 477 649 419 q 534 568 586 535 q 414 602 481 602 q 291 568 347 602 q 202 475 235 534 q 170 346 170 416 q 202 216 170 275 q 291 123 235 157 q 414 90 347 90 z "},"β":{"ha":786,"x_min":112,"x_max":732,"o":"m 112 697 q 148 820 112 764 q 244 908 183 876 q 380 941 306 941 q 514 908 453 941 q 611 821 576 875 q 646 706 646 766 q 614 588 646 638 q 525 511 583 538 q 676 432 621 494 q 732 267 732 370 q 694 120 732 185 q 589 17 656 54 q 438 -20 522 -20 q 324 -4 378 -20 q 231 35 270 12 l 231 -237 l 112 -237 l 112 697 m 425 90 q 522 113 479 90 q 591 177 566 136 q 616 273 616 218 q 590 368 616 327 q 518 432 564 410 q 415 455 473 455 l 325 455 l 325 544 l 380 544 q 455 564 420 544 q 510 618 490 584 q 531 696 531 653 q 510 762 531 730 q 455 812 490 793 q 380 831 420 831 q 305 813 339 831 q 251 765 271 795 q 231 697 231 734 l 231 139 q 270 123 235 137 q 346 99 304 109 q 425 90 387 90 z "},"γ":{"ha":690,"x_min":9,"x_max":682,"o":"m 286 16 l 9 692 l 133 692 l 332 189 l 345 137 l 359 189 l 557 692 l 682 692 l 404 18 l 404 -236 l 286 -236 l 286 16 z "},"δ":{"ha":854,"x_min":79,"x_max":775,"o":"m 521 673 q 648 581 594 627 q 738 470 701 535 q 775 323 775 405 q 731 154 775 233 q 607 28 686 75 q 427 -20 527 -20 q 248 27 328 -20 q 124 152 169 75 q 79 317 79 229 q 156 524 79 437 q 354 656 232 610 q 287 728 310 692 q 264 809 264 764 q 295 899 264 862 q 379 954 326 935 q 503 972 433 972 q 613 960 562 972 q 713 924 663 947 l 711 832 q 624 865 677 852 q 515 879 571 879 q 421 861 460 879 q 383 807 383 844 q 417 747 383 777 q 521 673 450 717 m 428 90 q 547 122 494 90 q 630 208 600 154 q 660 323 660 261 q 632 423 660 378 q 563 503 604 469 q 459 581 522 538 l 436 596 q 319 536 374 574 q 231 443 265 498 q 196 323 196 389 q 225 207 196 260 q 308 122 255 154 q 428 90 361 90 z "},"ε":{"ha":695,"x_min":54,"x_max":642,"o":"m 347 -20 q 131 33 209 -20 q 54 195 54 86 q 77 276 54 240 q 139 333 100 311 q 222 363 177 355 q 147 392 182 370 q 91 447 112 414 q 70 517 70 479 q 104 622 70 578 q 199 689 138 666 q 339 711 260 711 q 491 682 427 711 q 591 596 555 652 q 628 466 626 541 l 516 466 q 467 571 513 537 q 342 604 420 604 q 223 581 262 604 q 185 517 185 557 q 208 460 185 486 q 269 421 231 435 q 351 408 307 408 l 449 408 l 449 305 l 351 305 q 222 276 271 305 q 174 194 174 247 q 221 115 174 144 q 351 86 269 86 q 437 102 398 86 q 500 149 476 118 q 527 222 524 180 l 642 222 q 599 98 637 153 q 496 12 562 43 q 347 -20 431 -20 z "},"ζ":{"ha":641,"x_min":76,"x_max":609,"o":"m 456 -210 q 490 -143 479 -172 q 500 -87 500 -115 q 467 -23 500 -51 q 351 24 435 4 q 152 114 227 52 q 76 298 76 176 q 114 451 76 371 q 235 630 152 532 q 458 854 319 728 l 95 854 l 95 954 l 609 954 l 609 879 q 350 601 440 709 q 226 424 260 493 q 192 295 192 355 q 247 180 192 222 q 406 113 302 138 q 557 48 505 87 q 609 -60 609 8 q 542 -249 609 -141 l 456 -210 z "},"η":{"ha":863,"x_min":112,"x_max":759,"o":"m 224 692 l 224 558 q 281 637 243 603 q 370 692 319 672 q 479 711 421 711 q 688 626 616 711 q 759 375 759 541 l 759 -236 l 642 -236 l 642 373 q 592 546 642 490 q 449 602 542 602 q 340 572 391 602 q 259 487 290 541 q 229 363 229 432 l 229 0 l 112 0 l 112 692 l 224 692 z "},"θ":{"ha":811,"x_min":54,"x_max":757,"o":"m 406 946 q 596 887 517 946 q 716 720 675 829 q 757 461 757 611 q 716 202 757 311 q 596 37 675 94 q 406 -20 517 -20 q 215 37 294 -20 q 95 201 136 94 q 54 457 54 308 q 95 718 54 608 q 215 887 136 828 q 406 946 294 946 m 405 836 q 287 798 337 836 q 208 688 237 760 q 172 520 179 617 l 640 520 q 569 752 629 668 q 405 836 508 836 m 406 90 q 575 180 514 90 q 641 431 635 269 l 171 431 q 237 180 176 269 q 406 90 298 90 z "},"ι":{"ha":412,"x_min":104,"x_max":353,"o":"m 307 0 q 155 58 205 0 q 104 235 104 116 l 104 692 l 221 692 l 221 236 q 245 131 221 163 q 328 98 270 98 l 353 98 l 353 0 l 307 0 z "},"κ":{"ha":707,"x_min":112,"x_max":696,"o":"m 112 691 l 229 691 l 229 412 l 348 412 l 538 692 l 677 692 l 444 363 l 696 0 l 556 0 l 356 296 l 229 296 l 229 0 l 112 0 l 112 691 z "},"λ":{"ha":749,"x_min":47,"x_max":760,"o":"m 682 -20 q 611 -4 639 -20 q 565 40 583 12 q 530 115 547 68 l 388 492 l 373 534 l 361 495 l 170 0 l 47 0 l 318 671 l 281 774 q 260 822 271 803 q 232 852 250 840 q 186 864 214 864 l 133 864 l 133 954 q 225 963 179 963 q 299 948 270 963 q 350 901 329 932 q 392 816 370 870 l 639 156 q 670 100 653 120 q 720 79 688 79 l 760 79 l 760 -12 q 727 -18 744 -16 q 682 -20 711 -20 z "},"μ":{"ha":871,"x_min":112,"x_max":760,"o":"m 229 692 l 229 326 q 282 150 229 210 q 435 90 335 90 q 589 149 535 90 q 643 326 643 208 l 643 692 l 760 692 l 760 0 l 642 0 l 646 117 q 563 14 618 47 q 437 -20 509 -20 q 221 111 273 -20 l 229 -236 l 112 -236 l 112 692 l 229 692 z "},"ν":{"ha":690,"x_min":9,"x_max":682,"o":"m 9 692 l 133 692 l 328 203 l 345 142 l 361 203 l 557 692 l 682 692 l 400 0 l 290 0 l 9 692 z "},"ξ":{"ha":619,"x_min":54,"x_max":587,"o":"m 434 -210 q 467 -144 457 -173 q 477 -87 477 -115 q 445 -23 477 -51 q 328 24 412 4 q 129 113 205 52 q 54 290 54 174 q 77 394 54 345 q 144 478 101 444 q 244 528 188 513 q 148 605 182 551 q 114 732 114 660 q 149 852 114 801 q 242 930 184 903 q 370 958 300 958 q 457 949 410 958 q 541 924 505 940 l 541 825 q 387 854 473 854 q 273 816 316 854 q 230 713 230 779 q 250 637 230 669 q 306 588 271 605 q 385 571 341 571 l 510 571 l 510 470 l 373 470 q 270 447 316 470 q 196 385 223 425 q 170 297 170 346 q 224 180 170 222 q 384 113 278 137 q 534 48 482 88 q 587 -60 587 8 q 519 -249 587 -141 l 434 -210 z "},"ο":{"ha":827,"x_min":54,"x_max":774,"o":"m 413 -20 q 230 29 313 -20 q 101 162 148 78 q 54 346 54 245 q 101 530 54 446 q 230 663 148 614 q 413 711 312 711 q 597 663 514 711 q 727 530 680 614 q 774 346 774 446 q 727 162 774 245 q 597 29 680 78 q 413 -20 515 -20 m 414 90 q 538 123 482 90 q 625 215 593 157 q 657 346 657 273 q 625 476 657 418 q 538 568 593 534 q 414 602 482 602 q 291 568 347 602 q 202 476 235 534 q 170 346 170 418 q 202 215 170 273 q 291 123 235 157 q 414 90 347 90 z "},"π":{"ha":893,"x_min":31,"x_max":831,"o":"m 831 98 l 831 0 l 785 0 q 633 58 684 0 q 582 235 582 116 l 582 590 l 269 590 l 269 0 l 152 0 l 152 590 l 31 590 l 31 692 l 819 692 l 819 590 l 699 590 l 699 236 q 724 131 699 163 q 806 98 748 98 l 831 98 z "},"ρ":{"ha":856,"x_min":112,"x_max":802,"o":"m 456 711 q 631 663 552 711 q 756 530 711 614 q 802 346 802 446 q 757 162 802 245 q 634 29 711 78 q 464 -20 556 -20 q 345 5 406 -20 q 229 76 283 30 l 229 -236 l 112 -236 l 112 354 q 158 540 112 458 q 282 666 203 621 q 456 711 361 711 m 457 90 q 572 123 519 90 q 655 215 625 157 q 686 346 686 274 q 655 476 686 417 q 572 568 625 534 q 457 602 519 602 q 343 572 395 602 q 260 486 291 542 q 229 353 229 429 l 229 177 q 337 112 279 134 q 457 90 395 90 z "},"ς":{"ha":782,"x_min":54,"x_max":739,"o":"m 170 356 q 230 195 170 254 q 394 113 290 136 q 551 48 498 88 q 604 -60 604 8 q 586 -153 604 -104 q 537 -249 568 -201 l 452 -210 q 485 -144 475 -173 q 495 -87 495 -115 q 461 -23 495 -51 q 338 24 427 4 q 135 129 216 51 q 54 354 54 208 q 100 532 54 450 q 228 663 147 614 q 407 711 309 711 q 555 680 488 711 q 670 593 623 649 q 739 465 718 537 l 618 465 q 536 566 592 531 q 408 602 479 602 q 292 571 347 602 q 204 484 237 540 q 170 356 170 428 z "},"σ":{"ha":821,"x_min":54,"x_max":782,"o":"m 782 583 l 616 583 q 732 461 700 526 q 765 321 765 397 q 720 153 765 232 q 593 27 674 75 q 410 -20 511 -20 q 229 29 311 -20 q 101 160 148 77 q 54 341 54 243 q 104 516 54 436 q 251 644 155 597 q 476 692 347 692 l 782 692 l 782 583 m 650 338 q 617 461 650 404 q 498 583 585 519 l 476 583 q 311 550 380 583 q 206 463 241 518 q 170 341 170 408 q 202 214 170 271 q 290 123 235 156 q 411 90 345 90 q 533 123 479 90 q 619 213 588 156 q 650 338 650 269 z "},"τ":{"ha":581,"x_min":7,"x_max":543,"o":"m 337 593 l 337 236 q 361 131 337 163 q 444 98 386 98 l 469 98 l 469 0 l 423 0 q 271 58 321 0 q 220 235 220 116 l 220 593 l 7 593 l 7 692 l 543 692 l 543 593 l 337 593 z "},"υ":{"ha":821,"x_min":93,"x_max":728,"o":"m 410 -20 q 244 17 315 -20 q 133 129 173 53 q 93 322 93 205 l 93 692 l 210 692 l 210 326 q 262 149 210 208 q 409 90 314 90 q 559 155 507 90 q 612 365 612 220 q 598 541 612 458 q 551 692 585 624 l 662 692 q 728 356 728 566 q 642 71 728 161 q 410 -20 556 -20 z "},"φ":{"ha":925,"x_min":54,"x_max":871,"o":"m 406 -11 q 241 30 322 -11 q 107 151 160 70 q 54 346 54 232 q 97 524 54 444 q 220 651 140 604 q 406 702 300 699 l 406 961 l 520 961 l 520 701 q 683 661 602 701 q 817 541 764 621 q 871 346 871 460 q 818 151 871 231 q 683 30 764 71 q 520 -10 602 -10 l 520 -236 l 406 -236 l 406 -11 m 406 601 q 283 567 336 600 q 200 477 229 535 q 170 346 170 420 q 200 214 170 272 q 283 124 229 157 q 406 91 336 92 l 406 601 m 520 91 q 643 124 589 92 q 725 214 696 157 q 755 346 755 272 q 725 477 755 420 q 643 567 696 534 q 520 600 589 599 l 520 91 z "},"χ":{"ha":674,"x_min":7,"x_max":680,"o":"m 680 -249 q 647 -256 665 -254 q 595 -258 629 -258 q 529 -242 556 -258 q 483 -198 503 -227 q 441 -122 463 -170 l 328 126 l 136 -235 l 7 -235 l 270 252 l 147 520 q 122 568 133 550 q 94 598 111 587 q 54 610 77 610 l 13 610 l 7 701 q 28 704 12 701 q 57 708 44 707 q 85 709 70 709 q 156 694 127 709 q 208 647 185 679 q 255 562 231 616 l 350 353 l 530 692 l 659 692 l 407 228 l 548 -81 q 581 -138 564 -117 q 627 -159 599 -159 l 674 -159 l 680 -249 z "},"ψ":{"ha":920,"x_min":104,"x_max":866,"o":"m 866 356 q 780 73 866 163 q 543 -20 694 -18 l 543 -236 l 427 -236 l 427 -20 q 190 66 275 -18 q 104 322 104 151 l 104 692 l 220 692 l 220 326 q 273 150 220 209 q 427 90 326 92 l 427 692 l 543 692 l 543 90 q 697 157 645 92 q 750 365 750 222 q 737 541 750 458 q 689 692 724 624 l 800 692 q 866 356 866 566 z "},"ω":{"ha":1132,"x_min":54,"x_max":1078,"o":"m 334 -20 q 194 19 258 -20 q 92 141 131 57 q 54 356 54 226 q 121 692 54 566 l 231 692 q 183 541 197 624 q 170 365 170 458 q 193 208 170 269 q 254 118 216 146 q 341 90 293 90 q 426 116 388 90 q 486 194 464 142 q 508 326 508 247 l 508 692 l 625 692 l 625 326 q 647 194 625 247 q 706 116 669 141 q 791 90 744 90 q 878 118 839 90 q 939 208 916 146 q 962 365 962 269 q 948 541 962 458 q 901 692 935 624 l 1012 692 q 1078 356 1078 566 q 1040 141 1078 226 q 938 19 1001 57 q 798 -20 874 -20 q 659 26 720 -20 q 566 163 598 73 q 473 26 534 73 q 334 -20 412 -20 z "},"ί":{"ha":412,"x_min":104,"x_max":353,"o":"m 307 0 q 155 58 205 0 q 104 235 104 116 l 104 692 l 221 692 l 221 236 q 245 131 221 163 q 328 98 270 98 l 353 98 l 353 0 l 307 0 m 135 961 l 235 961 l 224 773 l 144 773 l 135 961 z "},"ϊ":{"ha":412,"x_min":3,"x_max":360,"o":"m 307 0 q 155 58 205 0 q 104 235 104 116 l 104 692 l 221 692 l 221 236 q 245 131 221 163 q 328 98 270 98 l 353 98 l 353 0 l 307 0 m 67 805 q 21 821 39 805 q 3 861 3 838 q 21 902 3 886 q 67 918 39 918 q 114 902 96 918 q 132 861 132 886 q 114 821 132 838 q 67 805 96 805 m 296 805 q 250 821 268 805 q 233 861 233 838 q 250 902 233 886 q 296 918 268 918 q 342 902 324 918 q 360 861 360 886 q 342 821 360 838 q 296 805 324 805 z "},"ΐ":{"ha":412,"x_min":-9,"x_max":381,"o":"m 307 0 q 155 58 205 0 q 104 235 104 116 l 104 692 l 221 692 l 221 236 q 245 131 221 163 q 328 98 270 98 l 353 98 l 353 0 l 307 0 m 157 867 l 139 1039 l 228 1039 l 211 867 l 157 867 m 54 805 q 8 821 26 805 q -9 861 -9 838 q 8 902 -9 886 q 54 918 26 918 q 101 902 83 918 q 119 861 119 886 q 101 821 119 838 q 54 805 83 805 m 317 805 q 271 821 289 805 q 253 861 253 838 q 271 902 253 886 q 317 918 289 918 q 363 902 345 918 q 381 861 381 886 q 363 821 381 838 q 317 805 345 805 z "},"ύ":{"ha":821,"x_min":93,"x_max":728,"o":"m 410 -20 q 244 17 315 -20 q 133 129 173 53 q 93 322 93 205 l 93 692 l 210 692 l 210 326 q 262 149 210 208 q 409 90 314 90 q 559 155 507 90 q 612 365 612 220 q 598 541 612 458 q 551 692 585 624 l 662 692 q 728 356 728 566 q 642 71 728 161 q 410 -20 556 -20 m 360 961 l 460 961 l 449 773 l 370 773 l 360 961 z "},"ϋ":{"ha":821,"x_min":93,"x_max":728,"o":"m 410 -20 q 244 17 315 -20 q 133 129 173 53 q 93 322 93 205 l 93 692 l 210 692 l 210 326 q 262 149 210 208 q 409 90 314 90 q 559 155 507 90 q 612 365 612 220 q 598 541 612 458 q 551 692 585 624 l 662 692 q 728 356 728 566 q 642 71 728 161 q 410 -20 556 -20 m 292 805 q 247 821 264 805 q 229 861 229 838 q 247 902 229 886 q 292 918 264 918 q 339 902 321 918 q 357 861 357 886 q 339 821 357 838 q 292 805 321 805 m 521 805 q 475 821 493 805 q 458 861 458 838 q 475 902 458 886 q 521 918 493 918 q 567 902 549 918 q 585 861 585 886 q 567 821 585 838 q 521 805 549 805 z "},"ΰ":{"ha":821,"x_min":93,"x_max":728,"o":"m 410 -20 q 244 17 315 -20 q 133 129 173 53 q 93 322 93 205 l 93 692 l 210 692 l 210 326 q 262 149 210 208 q 409 90 314 90 q 559 155 507 90 q 612 365 612 220 q 598 541 612 458 q 551 692 585 624 l 662 692 q 728 356 728 566 q 642 71 728 161 q 410 -20 556 -20 m 382 867 l 364 1039 l 453 1039 l 436 867 l 382 867 m 279 805 q 234 821 252 805 q 216 861 216 838 q 234 902 216 886 q 279 918 252 918 q 326 902 308 918 q 344 861 344 886 q 326 821 344 838 q 279 805 308 805 m 542 805 q 496 821 514 805 q 478 861 478 838 q 496 902 478 886 q 542 918 514 918 q 588 902 570 918 q 606 861 606 886 q 588 821 606 838 q 542 805 570 805 z "},"ό":{"ha":827,"x_min":54,"x_max":774,"o":"m 413 -20 q 230 29 313 -20 q 101 162 148 78 q 54 346 54 245 q 101 530 54 446 q 230 663 148 614 q 413 711 312 711 q 597 663 514 711 q 727 530 680 614 q 774 346 774 446 q 727 162 774 245 q 597 29 680 78 q 413 -20 515 -20 m 414 90 q 538 123 482 90 q 625 215 593 157 q 657 346 657 273 q 625 476 657 418 q 538 568 593 534 q 414 602 482 602 q 291 568 347 602 q 202 476 235 534 q 170 346 170 418 q 202 215 170 273 q 291 123 235 157 q 414 90 347 90 m 377 961 l 477 961 l 466 773 l 387 773 l 377 961 z "},"ώ":{"ha":1132,"x_min":54,"x_max":1078,"o":"m 334 -20 q 194 19 258 -20 q 92 141 131 57 q 54 356 54 226 q 121 692 54 566 l 231 692 q 183 541 197 624 q 170 365 170 458 q 193 208 170 269 q 254 118 216 146 q 341 90 293 90 q 426 116 388 90 q 486 194 464 142 q 508 326 508 247 l 508 692 l 625 692 l 625 326 q 647 194 625 247 q 706 116 669 141 q 791 90 744 90 q 878 118 839 90 q 939 208 916 146 q 962 365 962 269 q 948 541 962 458 q 901 692 935 624 l 1012 692 q 1078 356 1078 566 q 1040 141 1078 226 q 938 19 1001 57 q 798 -20 874 -20 q 659 26 720 -20 q 566 163 598 73 q 473 26 534 73 q 334 -20 412 -20 m 515 961 l 616 961 l 604 773 l 525 773 l 515 961 z "},"ά":{"ha":924,"x_min":54,"x_max":812,"o":"m 397 -20 q 220 29 298 -20 q 97 161 141 77 q 54 346 54 245 q 98 530 54 446 q 221 663 142 614 q 399 711 300 711 q 524 684 468 711 q 618 612 581 656 q 677 517 656 568 l 696 692 l 812 692 l 773 347 l 812 0 l 693 0 l 673 176 q 560 32 630 83 q 397 -20 490 -20 m 414 90 q 531 125 480 90 q 614 219 583 161 q 657 346 646 277 q 617 477 649 419 q 534 568 586 535 q 414 602 481 602 q 291 568 347 602 q 202 475 235 534 q 170 346 170 416 q 202 216 170 275 q 291 123 235 157 q 414 90 347 90 m 408 961 l 508 961 l 496 773 l 417 773 l 408 961 z "},"έ":{"ha":695,"x_min":54,"x_max":642,"o":"m 347 -20 q 131 33 209 -20 q 54 195 54 86 q 77 276 54 240 q 139 333 100 311 q 222 363 177 355 q 147 392 182 370 q 91 447 112 414 q 70 517 70 479 q 104 622 70 578 q 199 689 138 666 q 339 711 260 711 q 491 682 427 711 q 591 596 555 652 q 628 466 626 541 l 516 466 q 467 571 513 537 q 342 604 420 604 q 223 581 262 604 q 185 517 185 557 q 208 460 185 486 q 269 421 231 435 q 351 408 307 408 l 449 408 l 449 305 l 351 305 q 222 276 271 305 q 174 194 174 247 q 221 115 174 144 q 351 86 269 86 q 437 102 398 86 q 500 149 476 118 q 527 222 524 180 l 642 222 q 599 98 637 153 q 496 12 562 43 q 347 -20 431 -20 m 311 961 l 411 961 l 399 773 l 320 773 l 311 961 z "},"ή":{"ha":863,"x_min":112,"x_max":759,"o":"m 224 692 l 224 558 q 281 637 243 603 q 370 692 319 672 q 479 711 421 711 q 688 626 616 711 q 759 375 759 541 l 759 -236 l 642 -236 l 642 373 q 592 546 642 490 q 449 602 542 602 q 340 572 391 602 q 259 487 290 541 q 229 363 229 432 l 229 0 l 112 0 l 112 692 l 224 692 m 380 961 l 480 961 l 469 773 l 389 773 l 380 961 z "},"ϰ":{"ha":696,"x_min":26,"x_max":669,"o":"m 267 353 l 33 692 l 171 692 l 347 431 l 348 431 l 525 692 l 663 692 l 429 353 l 669 0 l 529 0 l 347 270 l 163 0 l 26 0 l 267 353 z "},"ء":{"ha":812,"x_min":54,"x_max":758,"o":"m 758 -3 q 412 -5 551 -3 q 54 -16 273 -8 l 54 87 l 313 98 q 233 180 264 126 q 202 304 202 234 q 276 496 202 429 q 481 564 349 564 l 660 564 l 640 459 l 484 459 q 339 413 387 459 q 292 285 292 368 q 317 191 292 233 q 387 125 342 149 q 484 101 431 101 l 758 101 l 758 -3 z "},"ا":{"ha":344,"x_min":112,"x_max":232,"o":"m 112 922 l 232 922 l 232 0 l 112 0 l 112 922 z "},"ﺎ":{"ha":368,"x_min":112,"x_max":374,"o":"m 232 109 l 374 109 l 374 0 l 112 0 l 112 922 l 232 922 l 232 109 z "},"أ":{"ha":344,"x_min":5,"x_max":343,"o":"m 112 922 l 232 922 l 232 0 l 112 0 l 112 922 m 343 1038 q 160 1036 214 1038 q 5 1025 105 1034 l 5 1084 l 122 1098 q 80 1142 96 1113 q 64 1206 64 1171 q 104 1300 64 1267 q 219 1333 145 1333 l 292 1333 l 273 1271 l 225 1271 q 146 1253 170 1271 q 123 1191 123 1236 q 151 1124 123 1150 q 223 1098 179 1098 l 343 1098 l 343 1038 z "},"ﺄ":{"ha":383,"x_min":5,"x_max":374,"o":"m 232 109 l 374 109 l 374 0 l 112 0 l 112 922 l 232 922 l 232 109 m 343 1053 q 160 1050 214 1053 q 5 1039 105 1048 l 5 1099 l 122 1112 q 80 1156 96 1127 q 64 1220 64 1185 q 104 1314 64 1282 q 219 1347 145 1347 l 292 1347 l 273 1285 l 225 1285 q 146 1267 170 1285 q 123 1205 123 1250 q 151 1138 123 1164 q 223 1112 179 1112 l 343 1112 l 343 1053 z "},"إ":{"ha":399,"x_min":35,"x_max":374,"o":"m 112 922 l 232 922 l 232 0 l 112 0 l 112 922 m 283 -424 q 160 -427 208 -424 q 35 -440 112 -429 l 35 -378 l 153 -362 q 112 -318 127 -347 q 96 -254 96 -290 q 136 -151 96 -186 q 250 -117 176 -117 l 323 -117 l 304 -187 l 256 -187 q 178 -205 202 -187 q 154 -269 154 -224 q 182 -336 154 -309 q 254 -362 210 -362 l 374 -362 l 374 -424 l 283 -424 z "},"ﺈ":{"ha":411,"x_min":64,"x_max":403,"o":"m 232 109 l 374 109 l 374 0 l 112 0 l 112 922 l 232 922 l 232 109 m 311 -424 q 189 -427 237 -424 q 64 -440 140 -429 l 64 -378 l 181 -362 q 140 -318 156 -347 q 125 -254 125 -290 q 164 -151 125 -186 q 278 -117 204 -117 l 351 -117 l 332 -187 l 285 -187 q 207 -205 231 -187 q 182 -269 182 -224 q 211 -336 182 -309 q 283 -362 239 -362 l 403 -362 l 403 -424 l 311 -424 z "},"آ":{"ha":399,"x_min":-63,"x_max":391,"o":"m 112 922 l 232 922 l 232 0 l 112 0 l 112 922 m 391 1151 q 323 1076 361 1102 q 241 1050 286 1050 q 187 1058 213 1050 q 127 1080 161 1065 q 86 1095 101 1090 q 56 1100 71 1100 q 19 1087 37 1100 q -14 1049 1 1075 l -63 1074 q -11 1139 -43 1116 q 63 1162 22 1162 q 89 1160 75 1162 q 168 1135 120 1154 q 212 1119 197 1124 q 243 1114 227 1114 q 292 1130 269 1114 q 337 1182 315 1145 l 391 1151 z "},"ﺂ":{"ha":395,"x_min":-63,"x_max":391,"o":"m 232 109 l 374 109 l 374 0 l 112 0 l 112 922 l 232 922 l 232 109 m 391 1165 q 323 1090 361 1116 q 241 1065 286 1065 q 187 1072 213 1065 q 127 1094 161 1080 q 86 1109 101 1105 q 56 1114 71 1114 q 19 1102 37 1114 q -14 1063 1 1089 l -63 1088 q -11 1153 -43 1130 q 63 1176 22 1176 q 89 1174 75 1176 q 168 1149 120 1168 q 212 1133 197 1138 q 243 1128 227 1128 q 292 1144 269 1128 q 337 1196 315 1160 l 391 1165 z "},"ٱ":{"ha":344,"x_min":-8,"x_max":352,"o":"m 112 922 l 232 922 l 232 0 l 112 0 l 112 922 m 58 1115 q 74 1196 57 1154 q 129 1266 92 1238 q 222 1295 167 1295 q 320 1259 289 1295 q 352 1155 352 1224 l 352 1053 l 145 1053 q -8 1040 81 1053 l -8 1103 l 58 1115 m 289 1118 l 289 1151 q 274 1213 289 1194 q 221 1233 259 1233 q 164 1216 189 1233 q 124 1173 138 1200 q 109 1116 109 1146 l 136 1118 l 289 1118 z "},"ﭑ":{"ha":380,"x_min":-7,"x_max":374,"o":"m 232 109 l 374 109 l 374 0 l 112 0 l 112 922 l 232 922 l 232 109 m 59 1129 q 75 1210 58 1168 q 130 1280 92 1252 q 223 1309 168 1309 q 321 1274 290 1309 q 353 1169 353 1238 l 353 1067 l 146 1067 q -7 1054 82 1067 l -7 1118 l 59 1129 m 290 1133 l 290 1165 q 275 1227 290 1208 q 222 1247 260 1247 q 164 1231 190 1247 q 124 1187 139 1214 q 109 1130 110 1160 l 136 1133 l 290 1133 z "},"ٮ":{"ha":1305,"x_min":112,"x_max":1194,"o":"m 1194 690 l 1194 0 l 470 0 q 285 49 367 0 q 158 180 203 98 q 112 357 112 262 q 140 495 112 427 q 224 618 168 564 l 309 552 q 253 465 273 513 q 233 362 233 416 q 266 236 233 294 q 358 143 298 178 q 495 109 418 109 l 1074 109 l 1074 690 l 1194 690 z "},"ب":{"ha":1234,"x_min":112,"x_max":1194,"o":"m 1194 690 l 1194 0 l 470 0 q 285 49 367 0 q 158 180 203 98 q 112 357 112 262 q 140 495 112 427 q 224 618 168 564 l 309 552 q 253 465 273 513 q 233 362 233 416 q 266 236 233 294 q 358 143 298 178 q 495 109 418 109 l 1074 109 l 1074 690 l 1194 690 m 651 -288 q 602 -269 621 -288 q 583 -220 583 -250 q 602 -172 583 -192 q 651 -153 620 -153 q 701 -172 682 -153 q 720 -220 720 -192 q 701 -269 720 -249 q 651 -288 682 -288 z "},"ﺐ":{"ha":1409,"x_min":112,"x_max":1416,"o":"m 1416 109 l 1416 0 l 470 0 q 285 49 367 0 q 158 180 203 98 q 112 357 112 262 q 140 495 112 427 q 224 618 168 564 l 309 552 q 253 465 273 513 q 233 362 233 416 q 266 236 233 294 q 358 143 298 178 q 495 109 418 109 l 1074 109 l 1074 690 l 1194 690 l 1194 109 l 1416 109 m 653 -288 q 604 -269 623 -288 q 585 -220 585 -250 q 604 -172 585 -192 q 653 -153 622 -153 q 703 -172 684 -153 q 722 -220 722 -192 q 703 -269 722 -249 q 653 -288 684 -288 z "},"ﺒ":{"ha":551,"x_min":-7,"x_max":557,"o":"m -7 109 l 216 109 l 216 690 l 336 690 l 336 109 l 557 109 l 557 0 l -7 0 l -7 109 m 279 -288 q 230 -269 249 -288 q 212 -220 212 -250 q 230 -172 212 -192 q 279 -153 248 -153 q 329 -172 310 -153 q 348 -220 348 -192 q 329 -269 348 -249 q 279 -288 310 -288 z "},"ﺑ":{"ha":448,"x_min":-7,"x_max":336,"o":"m -7 109 l 216 109 l 216 690 l 336 690 l 336 0 l -7 0 l -7 109 m 231 -288 q 182 -269 201 -288 q 163 -220 163 -250 q 182 -172 163 -192 q 231 -153 200 -153 q 281 -172 262 -153 q 300 -220 300 -192 q 281 -269 300 -249 q 231 -288 262 -288 z "},"پ":{"ha":1305,"x_min":112,"x_max":1194,"o":"m 1194 690 l 1194 0 l 470 0 q 285 49 367 0 q 158 180 203 98 q 112 357 112 262 q 140 495 112 427 q 224 618 168 564 l 309 552 q 253 465 273 513 q 233 362 233 416 q 266 236 233 294 q 358 143 298 178 q 495 109 418 109 l 1074 109 l 1074 690 l 1194 690 m 585 -216 q 535 -197 554 -216 q 517 -149 517 -178 q 535 -100 517 -120 q 585 -81 553 -81 q 634 -100 615 -81 q 653 -149 653 -120 q 634 -197 653 -177 q 585 -216 615 -216 m 776 -216 q 727 -197 745 -216 q 708 -149 708 -178 q 726 -100 708 -120 q 776 -81 745 -81 q 825 -100 806 -81 q 844 -149 844 -120 q 825 -197 844 -177 q 776 -216 806 -216 m 680 -369 q 630 -349 649 -369 q 611 -301 611 -330 q 630 -253 611 -273 q 680 -234 648 -234 q 729 -253 710 -234 q 748 -301 748 -273 q 729 -349 748 -330 q 680 -369 710 -369 z "},"ﭗ":{"ha":1409,"x_min":112,"x_max":1416,"o":"m 1416 109 l 1416 0 l 470 0 q 285 49 367 0 q 158 180 203 98 q 112 357 112 262 q 140 495 112 427 q 224 618 168 564 l 309 552 q 253 465 273 513 q 233 362 233 416 q 266 236 233 294 q 358 143 298 178 q 495 109 418 109 l 1074 109 l 1074 690 l 1194 690 l 1194 109 l 1416 109 m 586 -216 q 537 -197 555 -216 q 518 -149 518 -178 q 536 -100 518 -120 q 586 -81 555 -81 q 635 -100 616 -81 q 654 -149 654 -120 q 635 -197 654 -177 q 586 -216 616 -216 m 777 -216 q 728 -197 747 -216 q 709 -149 709 -178 q 728 -100 709 -120 q 777 -81 746 -81 q 827 -100 808 -81 q 846 -149 846 -120 q 827 -197 846 -177 q 777 -216 808 -216 m 681 -369 q 631 -349 650 -369 q 612 -301 612 -330 q 631 -253 612 -273 q 681 -234 650 -234 q 730 -253 711 -234 q 749 -301 749 -273 q 730 -349 749 -330 q 681 -369 711 -369 z "},"ﭙ":{"ha":551,"x_min":-7,"x_max":557,"o":"m -7 109 l 216 109 l 216 690 l 336 690 l 336 109 l 557 109 l 557 0 l -7 0 l -7 109 m 177 -216 q 128 -197 146 -216 q 109 -149 109 -178 q 127 -100 109 -120 q 177 -81 146 -81 q 227 -100 208 -81 q 245 -149 245 -120 q 227 -197 245 -177 q 177 -216 208 -216 m 368 -216 q 319 -197 338 -216 q 300 -149 300 -178 q 319 -100 300 -120 q 368 -81 337 -81 q 418 -100 399 -81 q 437 -149 437 -120 q 418 -197 437 -177 q 368 -216 399 -216 m 272 -369 q 222 -349 241 -369 q 203 -301 203 -330 q 222 -253 203 -273 q 272 -234 241 -234 q 321 -253 302 -234 q 340 -301 340 -273 q 321 -349 340 -330 q 272 -369 302 -369 z "},"ﭘ":{"ha":448,"x_min":-7,"x_max":408,"o":"m -7 109 l 216 109 l 216 690 l 336 690 l 336 0 l -7 0 l -7 109 m 149 -216 q 99 -197 118 -216 q 81 -149 81 -178 q 99 -100 81 -120 q 149 -81 117 -81 q 198 -100 179 -81 q 217 -149 217 -120 q 198 -197 217 -177 q 149 -216 179 -216 m 340 -216 q 291 -197 309 -216 q 272 -149 272 -178 q 290 -100 272 -120 q 340 -81 309 -81 q 389 -100 370 -81 q 408 -149 408 -120 q 389 -197 408 -177 q 340 -216 370 -216 m 243 -369 q 194 -349 213 -369 q 175 -301 175 -330 q 194 -253 175 -273 q 243 -234 212 -234 q 293 -253 274 -234 q 312 -301 312 -273 q 293 -349 312 -330 q 243 -369 274 -369 z "},"ت":{"ha":1234,"x_min":112,"x_max":1194,"o":"m 1194 690 l 1194 0 l 470 0 q 285 49 367 0 q 158 180 203 98 q 112 357 112 262 q 140 495 112 427 q 224 618 168 564 l 309 552 q 253 465 273 513 q 233 362 233 416 q 266 236 233 294 q 358 143 298 178 q 495 109 418 109 l 1074 109 l 1074 690 l 1194 690 m 752 760 q 703 779 722 760 q 684 827 684 799 q 703 876 684 856 q 753 895 722 895 q 802 876 783 895 q 821 827 821 856 q 802 779 821 799 q 752 760 783 760 m 566 758 q 516 778 535 758 q 498 826 498 797 q 516 874 498 854 q 566 894 534 894 q 615 874 596 894 q 634 826 634 854 q 615 778 634 798 q 566 758 596 758 z "},"ﺖ":{"ha":1409,"x_min":112,"x_max":1416,"o":"m 1416 109 l 1416 0 l 470 0 q 285 49 367 0 q 158 180 203 98 q 112 357 112 262 q 140 495 112 427 q 224 618 168 564 l 309 552 q 253 465 273 513 q 233 362 233 416 q 266 236 233 294 q 358 143 298 178 q 495 109 418 109 l 1074 109 l 1074 690 l 1194 690 l 1194 109 l 1416 109 m 777 709 q 727 729 746 709 q 709 777 709 749 q 727 825 709 806 q 777 845 746 845 q 827 825 808 845 q 846 777 846 806 q 827 729 846 749 q 777 709 808 709 m 590 708 q 541 727 559 708 q 522 776 522 747 q 541 824 522 804 q 590 844 559 844 q 640 824 621 844 q 659 776 659 804 q 640 728 659 747 q 590 708 621 708 z "}}}
